<?xml version="1.0" standalone="no"?>
<!DOCTYPE svg PUBLIC "-//W3C//DTD SVG 1.1//EN" "http://www.w3.org/Graphics/SVG/1.1/DTD/svg11.dtd" >
<svg>
<metadata>
Created by FontForge 20090914 at Tue Nov 29 21:11:51 2016
 By www-data
Copyright (c) 2011 by vernon adams (vern@newtypography.co.uk), with Reserved Font Names "Amatic" "Amatic SC"
</metadata>
<defs>
<font id="AmaticSC-Bold" horiz-adv-x="752" >
  <font-face 
    font-family="Amatic SC"
    font-weight="700"
    font-stretch="normal"
    units-per-em="2048"
    panose-1="0 0 0 0 0 0 0 0 0 0"
    ascent="1638"
    descent="-410"
    x-height="1340"
    cap-height="1553"
    bbox="-483 -560.001 1530 2220"
    underline-thickness="102"
    underline-position="-102"
    unicode-range="U+0020-U+2212"
  />
<missing-glyph horiz-adv-x="748" 
d="M68 0v1365h544v-1365h-544zM136 68h408v1229h-408v-1229z" />
    <glyph glyph-name=".notdef" horiz-adv-x="748" 
d="M68 0v1365h544v-1365h-544zM136 68h408v1229h-408v-1229z" />
    <glyph glyph-name="space" unicode=" " horiz-adv-x="290" 
 />
    <glyph glyph-name="exclam" unicode="!" horiz-adv-x="345" 
d="M203 543l-4 -113.001c0 -84.667 -10.667 -127 -32 -127s-32 59.667 -32 179l-1 339l-17 672c0 21.333 9 39.833 27 55.5s36 23.5 54 23.5s31.833 -4.83301 41.5 -14.5s14.5 -21.5 14.5 -35.5c0 -109.333 -8.5 -272.666 -25.5 -489.999s-25.5 -380.333 -25.5 -489z
M148 -38.001c-33.333 8.66699 -59.334 32.332 -78.001 70.999c0 23.333 8.33301 44.5 25 63.5s37.334 28.5 62.001 28.5s44.5 -9.66699 59.5 -29s22.5 -42.666 22.5 -69.999c0 -48 -30.333 -74 -91 -78v14z" />
    <glyph glyph-name="quotedbl" unicode="&#x22;" horiz-adv-x="489" 
d="M144 1578c30 0 46.668 -22.334 50.001 -67.001c0 -59.333 -7.83301 -127.166 -23.5 -203.499s-32.834 -114.5 -51.501 -114.5c-3.33301 0 -6.83301 48.667 -10.5 146s-5.5 157 -5.5 179s4.33301 37.5 13 46.5s18 13.5 28 13.5zM289.001 1531c0 13.333 6.5 24.5 19.5 33.5
s27.333 13.5 43 13.5s26.5 -15.667 32.5 -47c-2 -65.333 -8.66699 -138 -20 -218s-24.333 -120 -39 -120c-6 0 -13.5 43.667 -22.5 131s-13.5 156.333 -13.5 207z" />
    <glyph glyph-name="numbersign" unicode="#" horiz-adv-x="795" 
d="M309 686c5.33301 -0.666992 28.832 -1.00098 70.499 -1.00098s80.167 -1.33301 115.5 -4c13.333 118.667 20.333 209 21 271c-22.667 5.33301 -52.167 8 -88.5 8s-65.166 -2 -86.499 -6c-17.333 -63.333 -28 -152.666 -32 -267.999zM464.999 -92.001
c-27.333 0 -40.9971 15.001 -40.9971 45.001c0 108.667 9.16699 228.167 27.5 358.5s30.166 220.166 35.499 269.499c-30 2.66699 -75.333 4 -136 4h-50c-4.66699 -28 -13.334 -100.667 -26.001 -218c-30 -275.333 -58.333 -424.333 -85 -447
c-3.33301 -2.66699 -8.83301 -4 -16.5 -4s-16.5 4.66699 -26.5 14s-15 19.333 -15 30c0 110.667 10.667 230.834 32 360.501s34.333 214.834 39 255.501c-30 -3.33301 -50 -5 -60 -5c-56.667 0 -85 22 -85 66c0 30.667 32 46 96 46l62 -2c12.667 72.667 23 161.667 31 267
c-26 -2 -43 -3 -51 -3c-64.667 0 -97 19.667 -97 59v43l93 -1c21.333 0 42.333 1 63 3c2.66699 23.333 8.66699 65 18 125c18 116.667 27 211 27 283l-1 37c0 22 3.5 39.667 10.5 53s21.167 20 42.5 20l36 -47c0 -53.333 -5.66699 -131.166 -17 -233.499
s-17.333 -178.5 -18 -228.5c11.333 -2.66699 28.666 -4 51.999 -4h39c42 0 73.667 0.666992 95 2c13.333 79.333 25.5 170.166 36.5 272.499s18.833 171.166 23.5 206.499c16 20.667 31.333 31 46 31s27.5 -4 38.5 -12s16.5 -19.833 16.5 -35.5s-3.16699 -46.5 -9.5 -92.5
s-13 -89.167 -20 -129.5l-25.5 -141c-10 -53.667 -16 -86.834 -18 -99.501h66l43 -36c-9.33301 -40.667 -27.333 -61 -54 -61h-67c-15.333 -70.667 -23.666 -157.667 -24.999 -261l21 1c56.667 0 85 -20.667 85 -62c0 -34 -25.667 -51 -77 -51h-6
c-6 -68 -20.333 -170.5 -43 -307.5s-37 -242.833 -43 -317.5c-1.33301 -15.333 -8.33301 -28 -21 -38s-26.334 -15 -41.001 -15z" />
    <glyph glyph-name="dollar" unicode="$" horiz-adv-x="542" 
d="M222 243l43.9961 4.99805c-1.33301 82 -8.66602 231 -21.999 447l-8 115c-12 26 -27.667 57.333 -47 94l-47.5 91.5c-12.333 24.333 -24.833 52.5 -37.5 84.5c-25.333 62.667 -38 124.334 -38 185.001s9 114.834 27 162.501s46.667 77.834 86 90.501c-4 32 -6 54 -6 66
c0 38 10.333 57 31 57c20.667 -2 32 -10 34 -24c2 -11.333 3 -28.833 3 -52.5s2.33301 -35.5 7 -35.5c24 0 50 -9 78 -27c2.66699 -3.33301 9.83398 -10.333 21.501 -21s21.167 -19.667 28.5 -27c20.667 -20.667 31 -39 31 -55c0 -18 -3.83301 -30.333 -11.5 -37
s-17.167 -10 -28.5 -10s-23.833 5 -37.5 15s-28 22.667 -43 38s-28.5 26.666 -40.5 33.999l3 -146c0 -57.333 3.33301 -116.5 10 -177.5s10.334 -96.167 11.001 -105.5c6.66699 1.33301 27.667 -39.5 63 -122.5s63 -151.5 83 -205.5c49.333 -130 74 -212.667 74 -248
s-3.5 -65.166 -10.5 -89.499s-16 -45 -27 -62s-23.5 -32.5 -37.5 -46.5c-24.667 -25.333 -51 -44 -79 -56c4 -72.667 6 -111.334 6 -116.001c0 -53.333 -12.667 -80 -38 -80s-38 20.333 -38 61v118c-59.333 0 -105.166 8.16699 -137.499 24.5s-48.5 47.5 -48.5 93.5
c0 11.333 4.16699 21.333 12.5 30s18 13 29 13s20 -3.83301 27 -11.5s14 -18.5 21 -32.5s12.833 -24 17.5 -30zM327.996 268.998c42.667 36 64 73.833 64 113.5s-5.33301 82.5 -16 128.5c-14 62.667 -29 114.167 -45 154.5s-25 63.5 -27 69.5
c1.33301 -41.333 5.33301 -115 12 -221s10.667 -187.667 12 -245zM187.996 1418c-28 -26.667 -42 -70.5 -42 -131.5s22 -128.5 66 -202.5c-9.33301 68 -17.333 179.333 -24 334z" />
    <glyph glyph-name="percent" unicode="%" horiz-adv-x="1127" 
d="M345.5 714c-23 -9.33301 -47.666 -13.998 -73.999 -13.998s-49.166 4.5 -68.499 13.5s-35.5 22.333 -48.5 40s-24.5 36.167 -34.5 55.5s-17.833 43.166 -23.5 71.499s-10.334 53.166 -14.001 74.499s-6.16699 47.333 -7.5 78c-2 46 -3 86.333 -3 121
s2.66699 71.5 8 110.5s13.666 81.333 24.999 127s29 84 53 115s51.667 46.5 83 46.5c152.667 0 229 -135.333 229 -406c0 -11.333 0.333008 -31.333 1 -60s1.16699 -52.5 1.5 -71.5s-0.5 -43.167 -2.5 -72.5s-5.16699 -54 -9.5 -74s-11.5 -41.5 -21.5 -64.5
s-22.333 -41.5 -37 -55.5s-33.5 -25.667 -56.5 -35zM950.501 38.502c-30.333 -24.333 -62.333 -36.4961 -96 -36.4961s-60.334 9.66699 -80.001 29s-35.334 43.166 -47.001 71.499s-21.5 60.166 -29.5 95.499c-12.667 59.333 -19.5 109.333 -20.5 150
s-1.5 75.167 -1.5 103.5s1 61.166 3 98.499s7.16699 72.166 15.5 104.499s18.833 62.833 31.5 91.5c28.667 61.333 73.334 92 134.001 92c124.667 0 190.334 -110.333 197.001 -331c0.666992 -22 1 -48 1 -78v-51c0 -88 -10.333 -160.5 -31 -217.5
s-46.167 -97.667 -76.5 -122zM364.501 32.0059c-11.667 14.667 -17.499 30.167 -17.499 46.5s4.5 50.833 13.5 103.5s23 118.5 42 197.5l53.5 220.5c16.667 68 39 153.167 67 255.5l62 228.5l59 213c26 92 39.167 143.5 39.5 154.5s5.5 27.833 15.5 50.5s23.167 34 39.5 34
s29.666 -4.5 39.999 -13.5s15.5 -26.333 15.5 -52s-11.167 -87.167 -33.5 -184.5s-49.666 -207 -81.999 -329s-51.833 -197 -58.5 -225c-46.667 -202 -110.667 -434 -192 -696c-5.33301 -17.333 -14.333 -26 -27 -26s-24.834 7.33301 -36.501 22zM248.002 1449.01
c-16.667 0 -33.667 -38.999 -51 -116.999s-26 -129 -26 -153s0.333008 -45.167 1 -63.5s2 -42.5 4 -72.5s5.16699 -58.333 9.5 -85s9.83301 -52.334 16.5 -77.001c13.333 -54 34 -81 62 -81c74.667 0 112 97.333 112 292c0 238 -42.667 357 -128 357zM854.002 733.007
c-18.667 0 -34.5 -16.167 -47.5 -48.5s-21.167 -69.5 -24.5 -111.5c-10 -112 -11.667 -181 -5 -207c0 -29.333 7.5 -78.333 22.5 -147s30.167 -103 45.5 -103c75.333 0 113 90 113 270v48c0 199.333 -34.667 299 -104 299z" />
    <glyph glyph-name="ampersand" unicode="&#x26;" horiz-adv-x="937" 
d="M277 969c-70 -114.667 -105 -247.668 -105 -399.001c0 -104.667 27.667 -184.667 83 -240c31.333 -31.333 70 -47 116 -47c20.667 0 46.5 5.66699 77.5 17s53.167 24 66.5 38c-4.66699 6.66699 -19 22.667 -43 48s-48 61.333 -72 108s-44 101.334 -60 164.001
c-22 84 -43 187.667 -63 311zM500 1600l-6.00488 -104c0 -14 1.66699 -28.667 5 -44c-11.333 -25.333 -26.833 -68.666 -46.5 -129.999s-34.167 -101 -43.5 -119s-18.666 -34 -27.999 -48c-21.333 -32 -32 -55 -32 -69c0 -65.333 25.167 -182.5 75.5 -351.5
s93.833 -274.5 130.5 -316.5c41.333 98 62 218.667 62 362v9c-23.333 0 -40.333 11.667 -51 35v52c34 0 78.333 2.5 133 7.5s93.334 11.167 116.001 18.5c38.667 -8 58 -26 58 -54c0 -37.333 -37.667 -56 -113 -56h-51c0 -40.667 -1.66699 -86.667 -5 -138
c14 1.33301 7.5 -41.667 -19.5 -129s-46.833 -144 -59.5 -170c40.667 -42 84 -63 130 -63l83 6l38 -31c0 -27.333 -9.5 -45.5 -28.5 -54.5s-44.167 -13.5 -75.5 -13.5c-63.333 0 -129 25.667 -197 77c-73.333 -52 -141.166 -78 -203.499 -78s-115.166 17.5 -158.499 52.5
s-76.666 78.167 -99.999 129.5s-35 104 -35 158s3.33301 104.333 10 151s19 94.667 37 144c25.333 69.333 69.333 166.666 132 291.999l-14 281v170c0 53.333 9 92 27 116s42 36 72 36s63.833 -12 101.5 -36s56.5 -54.667 56.5 -92zM332.995 1471l1.99902 -185v-23
c18 38.667 35.333 85 52 139s25 97 25 129c0 64.667 -16 97.667 -48 99c-9.33301 -8 -19.666 -24.667 -30.999 -50v-109z" />
    <glyph glyph-name="quotesingle" unicode="'" horiz-adv-x="318" 
d="M215 1525l-3.99902 -14.001c0 -59.333 -7.83301 -127.166 -23.5 -203.499s-32.834 -114.5 -51.501 -114.5c-6 0 -13.5 43.667 -22.5 131s-13.5 156.333 -13.5 207c0 13.333 6.5 24.5 19.5 33.5s26.833 13.5 41.5 13.5c24.667 0 42.667 -15.667 54 -47v-6z" />
    <glyph glyph-name="parenleft" unicode="(" horiz-adv-x="467" 
d="M424 -318c-11.333 -28.667 -30.668 -43 -58.001 -43c-36 0 -70.333 37.333 -103 112s-59.667 165.834 -81 273.501s-40 221.5 -56 341.5c-30.667 230 -46 382.167 -46 456.5s5 151.166 15 230.499s23.833 164.833 41.5 256.5s41.334 171.5 71.001 239.5
s60.834 102 93.501 102h45c0 -44 -18.667 -108.333 -56 -193c-72 -166 -108 -349.333 -108 -550c0 -512 61.333 -877.333 184 -1096c29.333 -52 48.666 -95.333 57.999 -130z" />
    <glyph glyph-name="parenright" unicode=")" horiz-adv-x="482" 
d="M406 817v-1.99805c0 -91.333 -15 -218.333 -45 -381s-57 -292.834 -81 -390.501s-52.333 -179.834 -85 -246.501s-65 -100 -97 -100c-14 0 -26.5 4.5 -37.5 13.5s-16.5 19.833 -16.5 32.5s5.5 30.667 16.5 54s24.5 49 40.5 77c62.667 110.667 112.167 262.5 148.5 455.5
s54.5 347.833 54.5 464.5c0 305.333 -40 532.333 -120 681c-30 56 -45 101 -45 135v11h37c38.667 0 73.667 -34.667 105 -104s55.333 -152.333 72 -249c34 -196 51.667 -346.333 53 -451z" />
    <glyph glyph-name="asterisk" unicode="*" horiz-adv-x="893" 
d="M590 1189l135.002 9.99609c69.333 0 104 -20.667 104 -62c0 -34.667 -23.667 -52 -71 -52c-30 0 -74.333 1.5 -133 4.5s-102 4.5 -130 4.5c4 -11.333 29.667 -64.666 77 -159.999s71 -153 71 -173s-8 -36.667 -24 -50s-31.333 -20 -46 -20l-140 320l-28 -77l-31 -86
c-22 -58.667 -45.333 -109 -70 -151h-49l-44 39v6c0.666992 26 24.667 86.667 72 182s74.333 152.666 81 171.999h-183.5c-45 0 -70.5 0.333008 -76.5 1s-12.667 2.33398 -20 5.00098c-14 6 -21 18.667 -21 38s4.5 33.833 13.5 43.5s19.833 14.5 32.5 14.5h241l-31 62
c-68.667 137.333 -103 215.333 -103 234c0 35.333 18.667 53 56 53c28.667 0 66 -66 112 -198c19.333 -54 30.666 -84.333 33.999 -91c44 154.667 80 249.334 108 284.001c13.333 16.667 26.666 25 39.999 25s25.833 -5.5 37.5 -16.5s17.5 -21.167 17.5 -30.5
s-0.5 -16.166 -1.5 -20.499s-2.16699 -8.16602 -3.5 -11.499s-3.16602 -7.16602 -5.49902 -11.499s-4.33301 -7.83301 -6 -10.5s-4.16699 -6.33398 -7.5 -11.001s-9.83301 -14.5 -19.5 -29.5s-23.167 -53.5 -40.5 -115.5s-29 -100.667 -35 -116
c25.333 -3.33301 54.666 -5 87.999 -5z" />
    <glyph glyph-name="plus" unicode="+" horiz-adv-x="740" 
d="M298 705l-11.999 150.001c0 75.333 22 113 66 113c16 0 30 -5.83301 42 -17.5s18 -25.5 18 -41.5v-25c0 -4 -0.166992 -14.167 -0.5 -30.5s-0.333008 -32.333 0 -48s0.833008 -31.834 1.5 -48.501c1.33301 -37.333 7.33301 -56 18 -56l119 8
c70.667 0 106 -20.667 106 -62c0 -16 -5.66699 -29.333 -17 -40s-25 -16 -41 -16l-121 11c-43.333 0 -65 -16.333 -65 -49l19 -164c0 -16.667 -6.83301 -30.167 -20.5 -40.5s-28.834 -15.5 -45.501 -15.5s-32 4.83301 -46 14.5s-21 22.167 -21 37.5l6 199v15l-133 -9
c-58 0 -87 21.667 -87 65c0 14 4.16699 26.333 12.5 37s19.5 16 33.5 16l121 -7c17.333 0 33 1.33301 47 4z" />
    <glyph glyph-name="comma" unicode="," horiz-adv-x="425" 
d="M332 91l-3 -14.002c0 -31.333 -8.66699 -68.666 -26 -111.999s-41 -82 -71 -116s-59.667 -51 -89 -51h-61v72c5.33301 5.33301 18.666 16.666 39.999 33.999c44.667 36 69.334 66.667 74.001 92c-39.333 28.667 -59 58.834 -59 90.501s10.5 55.834 31.5 72.501
s44 25 69 25s44.5 -7.5 58.5 -22.5s26 -36.167 36 -63.5v-7z" />
    <glyph glyph-name="hyphen" unicode="-" horiz-adv-x="649" 
d="M546 739c0 -15.333 -39.667 -25 -119 -29c-119.333 -6 -196.333 -9 -231 -9c-61.333 0 -92 19.667 -92 59c0 15.333 39.667 25 119 29c119.333 6 196 9 230 9c62 0 93 -19.667 93 -59z" />
    <glyph glyph-name="period" unicode="." horiz-adv-x="355" 
d="M125.5 -9.5c-13.667 15 -20.5 32.333 -20.5 52s7.66699 37.5 23 53.5s33 24 53 24s37.333 -8 52 -24s22 -34.5 22 -55.5s-7.66699 -38.333 -23 -52s-33.5 -20.5 -54.5 -20.5s-38.333 7.5 -52 22.5z" />
    <glyph glyph-name="slash" unicode="/" horiz-adv-x="567" 
d="M64 30c0 90.667 21.834 226.332 65.501 406.999s94.334 373.834 152.001 579.501s90.667 330.167 99 373.5l15.5 80.5c2 10.333 3.5 17.833 4.5 22.5s3 11.5 6 20.5s6.16699 15.833 9.5 20.5c10 12.667 21.833 19 35.5 19s26 -4.66699 37 -14s16.5 -22.666 16.5 -39.999
s-2.16699 -36.333 -6.5 -57s-10.5 -44.667 -18.5 -72c-32.667 -105.333 -115.334 -464.666 -248.001 -1078c-1.33301 -4.66699 -4.83301 -22.834 -10.5 -54.501s-11.334 -60.334 -17.001 -86.001s-13.167 -53.5 -22.5 -83.5c-20 -66 -44 -99 -72 -99
c-30.667 18.667 -46 39 -46 61z" />
    <glyph glyph-name="zero" unicode="0" horiz-adv-x="644" 
d="M98 1233c0 115.333 8.66406 193.001 25.9971 233.001c18.667 44 44 72.667 76 86c18.667 7.33301 39.334 11 62.001 11s46.334 -7 71.001 -21s42.834 -25.833 54.501 -35.5s22 -20.667 31 -33l24 -32.5c7 -9.33301 13.167 -22 18.5 -38l12.5 -37
c3 -8.66699 6.33301 -22.834 10 -42.501s5.83398 -33.167 6.50098 -40.5c6.66699 -45.333 11 -76.166 13 -92.499s6.66699 -51.333 14 -105l16 -117c3.33301 -24.333 7.66602 -60 12.999 -107s9.33301 -86.167 12 -117.5c6.66699 -78.667 10 -153 10 -223
c0 -342.667 -75 -514 -225 -514c-36 0 -68.167 15.667 -96.5 47s-51 73.5 -68 126.5s-31.333 108 -43 165s-20.167 118.5 -25.5 184.5c-8 109.333 -12 200.666 -12 273.999v429zM194.997 990.001l21.999 -200c0 -108 5.66699 -220.667 17 -338
c22.667 -234.667 65.667 -352 129 -352c21.333 0 39.833 20.333 55.5 61s26.834 90 33.501 148c14 113.333 21 199.666 21 258.999c0 141.333 -24.667 370 -74 686c-10.667 68 -28.667 119 -54 153s-50.5 51 -75.5 51s-45.5 -11.167 -61.5 -33.5s-24 -51.166 -24 -86.499z
" />
    <glyph glyph-name="one" unicode="1" horiz-adv-x="602" 
d="M389 96c32 4 57.001 5.99902 75.001 5.99902v1c57.333 0 86 -17 86 -51c0 -40 -77.667 -60 -233 -60l-61 -1c-25.333 0 -45.5 3.66699 -60.5 11s-22.5 22.333 -22.5 45v44c43.333 -3.33301 67.333 -5 72 -5c30 0 45 11.333 45 34c0 206.667 -11.667 474.667 -35 804
c-2 28.667 -5.66699 69 -11 121c-10.667 114.667 -16 202.334 -16 263.001l3 75c0 64 -23.667 96 -71 96l-47 -2c-38.667 0 -58 14.667 -58 44c0 36 55 54 165 54c48 0 78 -11.333 90 -34c-2.66699 -4.66699 -2.83398 -19 -0.500977 -43s3.5 -47.667 3.5 -71
s5.16699 -76.666 15.5 -159.999s15.5 -162.333 15.5 -237s7.5 -219.834 22.5 -435.501s22.5 -377.5 22.5 -485.5v-13z" />
    <glyph glyph-name="two" unicode="2" horiz-adv-x="578" 
d="M443 4l-312 -18.998c-19.333 0 -36.666 5.66699 -51.999 17s-23 26.333 -23 45v8c28.667 34 52.667 78.833 72 134.5s33 92.167 41 109.5c78 172.667 136 331 174 475s57 299.667 57 467s-32.667 253.666 -98 258.999c-22 -12 -37.333 -44.667 -46 -98
c-7.33301 -50 -27.5 -75 -60.5 -75s-49.5 21 -49.5 63c0 66 19.333 120 58 162c20.667 22.667 45.334 34 74.001 34v1c71.333 0 122.666 -22 153.999 -66c24 -32.667 39 -62 45 -88s10.167 -46.667 12.5 -62s4.16602 -35 5.49902 -59c2 -36 3 -73 3 -111
c0 -118 -14.833 -251.5 -44.5 -400.5s-67.5 -275.167 -113.5 -378.5c-8 -18.667 -32 -67.834 -72 -147.501s-67.667 -142.5 -83 -188.5c82.667 14 160 21 232 21l62 -52z" />
    <glyph glyph-name="three" unicode="3" horiz-adv-x="600" 
d="M234 865l-0.00195312 23.9971c0 20.667 14 47.334 42 80.001c52 62 78 122.333 78 181c0 52.667 -4.66699 107 -14 163c-18 109.333 -49 164 -93 164c-16.667 0 -30.5 -6.16699 -41.5 -18.5s-18.833 -25.666 -23.5 -39.999s-12.834 -27.666 -24.501 -39.999
s-26 -18.5 -43 -18.5s-30.833 5.5 -41.5 16.5s-17.334 24.167 -20.001 39.5c18.667 46 44.834 83.667 78.501 113s71.834 44 114.501 44s79.667 -17 111 -51c29.333 -0.666992 53.166 -52.667 71.499 -156s27.5 -174.5 27.5 -213.5s-3.16699 -68.167 -9.5 -87.5
s-12.666 -34.166 -18.999 -44.499s-17.166 -26.5 -32.499 -48.5l-31 -45c84 -50 138.333 -191.667 163 -425c5.33301 -50.667 8 -94.334 8 -131.001s-0.666992 -66.834 -2 -90.501s-4.16602 -51.5 -8.49902 -83.5s-11.333 -59.667 -21 -83s-22.167 -46 -37.5 -68
c-30.667 -44 -78.334 -66 -143.001 -66c-51.333 0 -89.333 10.5 -114 31.5s-37 42.5 -37 64.5v13h34c7.33301 -1.33301 16.833 -2.5 28.5 -3.5s20.5 -1.83301 26.5 -2.5c14 -1.33301 29.333 -7.66602 46 -18.999c83.333 3.33301 125 80 125 230c0 200 -18 344.667 -54 434
c-18 44 -41.667 84.333 -71 121c-2.66699 -0.666992 -9.16699 -1 -19.5 -1s-28.166 5.66699 -53.499 17z" />
    <glyph glyph-name="four" unicode="4" horiz-adv-x="554" 
d="M210 1333l-18.999 -711.003c0 -16 1 -31.333 3 -46c28 0.666992 58.667 4.33398 92 11.001l-17 573c0 14 5.33301 25.167 16 33.5s21.667 12.5 33 12.5l42 -36v-129c0 -189.333 8.66699 -337.666 26 -444.999l59 5c40.667 0 61 -14.667 61 -44
c0 -20 -5.83301 -33.333 -17.5 -40s-30.834 -10 -57.501 -10s-40 -6 -40 -18c0 -46 1.83301 -109.333 5.5 -190s8.83398 -128.667 15.501 -144c-2.66699 -16 -4 -30.5 -4 -43.5s3.33301 -24.833 10 -35.5v-37c0 -51.333 -16.333 -77 -49 -77c-20.667 0 -36 10.5 -46 31.5
s-15 42.833 -15 65.5v7c4.66699 16 7 40.667 7 74l-15 199l2 89c0 23.333 -1.33301 44.333 -4 63l-128 -11v-1c-26 0 -53 11 -81 33c0 30.667 3 57 9 79c-6 32 -9 70.833 -9 116.5s5.16699 115.5 15.5 209.5s15.5 163 15.5 207v379c0 26.667 13 40 39 40
c15.333 0 29.166 -4.66699 41.499 -14s18.5 -21.666 18.5 -36.999z" />
    <glyph glyph-name="five" unicode="5" horiz-adv-x="578" 
d="M245 907l-67 -15.9961c-32.667 0 -53.667 13 -63 39c-8 22 -12 48 -12 78l11 104c0 85.333 -16.667 228 -50 428l35 34h167c41.333 0 65.833 -5.5 73.5 -16.5s11.5 -22.167 11.5 -33.5v-11l-38 -31h-44v-5h-94c2.66699 -74.667 16 -233 40 -475
c3.33301 -0.666992 16.5 -2 39.5 -4s39.167 -4 48.5 -6c34 -6 60 -15 78 -27c31.333 -21.333 57.333 -69.333 78 -144c33.333 -120.667 50 -249.667 50 -387c0 -116.667 -3.33301 -188.334 -10 -215.001s-14.167 -52.334 -22.5 -77.001s-18.5 -46 -30.5 -64
c-28 -40.667 -64.667 -78.667 -110 -114l-35 -1c-74.667 0 -112 19.333 -112 58c0 15.333 6.5 26.833 19.5 34.5s28.5 11.5 46.5 11.5s34.667 -5.66699 50 -17c32.667 11.333 58.5 48.666 77.5 111.999s28.5 118.666 28.5 165.999c0 80 -6 172 -18 276
c-24 206.667 -60 310 -108 310h-40v-7z" />
    <glyph glyph-name="six" unicode="6" horiz-adv-x="531" 
d="M349 522c-23.333 229.333 -61.667 349.332 -115 359.999c-18 -13.333 -29.667 -28.666 -35 -45.999s-8 -39.333 -8 -66c0 -128.667 16.333 -316.334 49 -563.001c0.666992 -4.66699 1.66699 -14.167 3 -28.5s2.5 -24.833 3.5 -31.5s3.16699 -15.667 6.5 -27
s7.33301 -19.666 12 -24.999c12.667 -14.667 29.667 -22 51 -22c34 0 51 45.667 51 137s-6 195.333 -18 312zM374.999 0.999023c-20.667 -10 -45.8379 -15.0029 -75.5049 -15.0029s-55.167 7.33301 -76.5 22s-37.5 32.5 -48.5 53.5s-20.167 47.5 -27.5 79.5
s-11.833 60.833 -13.5 86.5s-3.5 55.5 -5.5 89.5s-4 58.667 -6 74c-20.667 168.667 -31 331.667 -31 489c0 470.667 71.667 706 215 706c10 0 20.167 -4.16699 30.5 -12.5s15.5 -19.666 15.5 -33.999s-7.66699 -27.666 -23 -39.999s-32.666 -20.5 -51.999 -24.5
c-23.333 -24 -42.333 -95.333 -57 -214s-24 -222.667 -28 -312c10.667 2 26.334 3 47.001 3s43.834 -10.667 69.501 -32s46.667 -48.333 63 -81s30.5 -72.5 42.5 -119.5s21 -91.5 27 -133.5s11 -88.333 15 -139c4.66699 -69.333 7 -129.166 7 -179.499
s-0.666992 -85.5 -2 -105.5s-5.16602 -42 -11.499 -66s-15.166 -43.333 -26.499 -58s-27.333 -27 -48 -37z" />
    <glyph glyph-name="seven" unicode="7" horiz-adv-x="465" 
d="M114 1489c-32 15.333 -48.001 35.334 -48.001 60.001c0 22 62.667 33 188 33h38c36.667 0 62 -5.5 76 -16.5s23.333 -25.167 28 -42.5c-4 -18 -12 -99 -24 -243s-35.333 -344.167 -70 -600.5s-72.334 -443.166 -113.001 -560.499c0.666992 -3.33301 1 -14 1 -32
s-6 -38.833 -18 -62.5s-29.333 -35.5 -52 -35.5l-49 35c0 28 5.5 58.833 16.5 92.5s23.833 78.167 38.5 133.5s30.334 138.666 47.001 249.999s32.834 242.833 48.501 394.5s26.167 248.167 31.5 289.5s11 81.333 17 120c13.333 79.333 20.666 142.666 21.999 189.999
c-21.333 2.66699 -40.166 4 -56.499 4s-56.833 -3 -121.5 -9z" />
    <glyph glyph-name="eight" unicode="8" horiz-adv-x="526" 
d="M219 1515c-32.667 -36.667 -48.999 -75.166 -48.999 -115.499s8.66699 -108 26 -203s34.666 -170.833 51.999 -227.5c27.333 121.333 41 235.666 41 342.999c0 29.333 -4.5 71 -13.5 125s-20.833 81 -35.5 81zM276.001 6.00098c64 0 96 47.001 96 141.001
s-9.66699 191.167 -29 291.5s-47 215.166 -83 344.499c-32.667 -133.333 -49 -331 -49 -593v-2c0 -27.333 6.83301 -64.5 20.5 -111.5s28.5 -70.5 44.5 -70.5zM460.001 72.002l0.00195312 -11.999c-42 -94.667 -104 -142 -186 -142c-30 0 -56 9.66699 -78 29
s-38.667 44.333 -50 75c-20.667 57.333 -31 116 -31 176c0 228 22 415 66 561c18.667 63.333 28.667 98 30 104c-36.667 93.333 -69.334 195.166 -98.001 305.499s-43 192.666 -43 246.999s11.833 99.833 35.5 136.5s59.167 55 106.5 55h41
c66.667 -42.667 104.667 -92 114 -148c6 -35.333 9 -92.333 9 -171s-21 -211 -63 -397l-6 -29c45.333 -109.333 83.166 -232.666 113.499 -369.999s45.5 -261.666 45.5 -372.999c0 -16.667 -2 -32.334 -6 -47.001z" />
    <glyph glyph-name="nine" unicode="9" horiz-adv-x="531" 
d="M167.5 1317c-3 -27.333 -4.49902 -56.501 -4.49902 -87.501s5.33301 -53.5 16 -67.5c5.33301 -43.333 14.666 -71.5 27.999 -84.5s24.333 -21.833 33 -26.5s22 -11 40 -19s33.333 -15.667 46 -23c6 104 9 243.333 9 418c0 31.333 -4.83301 55.833 -14.5 73.5
s-26.5 26.5 -50.5 26.5s-43 -11.5 -57 -34.5s-24.333 -51.167 -31 -84.5s-11.5 -63.666 -14.5 -90.999zM328.001 685.999l-4.00098 244.999c-76 17.333 -138.5 54.5 -187.5 111.5s-73.5 123.833 -73.5 200.5c0 174.667 37.333 289.334 112 344.001
c24.667 18 53.334 27 86.001 27c66.667 0 112 -15.333 136 -46s36 -80 36 -148c0 -131.333 -4.16699 -328.5 -12.5 -591.5s-12.5 -460.167 -12.5 -591.5l-13 -147l1 -41c0 -55.333 -19 -83 -57 -83l-43 38c21.333 64 32 291.333 32 682z" />
    <glyph glyph-name="colon" unicode=":" horiz-adv-x="354" 
d="M135 973.5c-13.333 15 -20.001 32.168 -20.001 51.501s7.66699 37.166 23 53.499s32.833 24.5 52.5 24.5s36.834 -8 51.501 -24s22 -34.5 22 -55.5s-7.66699 -38.333 -23 -52s-33.5 -20.5 -54.5 -20.5s-38.167 7.5 -51.5 22.5zM114.499 199.501
c-13.667 15 -20.499 32.333 -20.499 52s7.66699 37.5 23 53.5s33 24 53 24s37.167 -8 51.5 -24s21.5 -34.5 21.5 -55.5s-7.66699 -38.333 -23 -52s-33.333 -20.5 -54 -20.5s-37.834 7.5 -51.501 22.5z" />
    <glyph glyph-name="semicolon" unicode=";" horiz-adv-x="410" 
d="M125 -11c-8 0 -17 4.33398 -27 13.001s-15 17 -15 25v24c3.33301 3.33301 15.666 13.666 36.999 30.999c42.667 34 66.334 63.667 71.001 89c-39.333 28.667 -59 58.834 -59 90.501s10.5 55.834 31.5 72.501s44.333 25 70 25s47.167 -10.167 64.5 -30.5
s26 -44.833 26 -73.5s-9.16699 -63.834 -27.5 -105.501s-43.5 -78.834 -75.5 -111.501s-64 -49 -96 -49zM188 974.501c-13.333 15 -20.001 32.168 -20.001 51.501s7.66699 37.166 23 53.499s32.833 24.5 52.5 24.5s36.834 -8 51.501 -24s22 -34.5 22 -55.5
s-7.66699 -38.333 -23 -52s-33.5 -20.5 -54.5 -20.5s-38.167 7.5 -51.5 22.5z" />
    <glyph glyph-name="less" unicode="&#x3c;" horiz-adv-x="553" 
d="M388 1447l7 -1.00293l45 -35c-11.333 -89.333 -58 -214 -140 -374c-78.667 -154.667 -118 -266.334 -118 -335.001c0 -10 45.833 -107.333 137.5 -292s149.5 -298.334 173.5 -341.001c-0.666992 -6 -0.666992 -13 0 -21s0.666992 -16 0 -24s-1.66699 -15.333 -3 -22
c-2.66699 -16 -11 -24 -25 -24l-44 4c-71.333 108.667 -143.5 244.834 -216.5 408.501s-119.5 266.167 -139.5 307.5c1.33301 37.333 36.666 131.333 105.999 282s106.5 234.834 111.5 252.501s9.83301 36.334 14.5 56.001s9.33398 36.834 14.001 51.501
s11 31.334 19 50.001c16 38 35.333 57 58 57z" />
    <glyph glyph-name="equal" unicode="=" horiz-adv-x="783" 
d="M624 579l-432 10c-54.667 0 -82 15 -82 45c0 14 4.16699 25.167 12.5 33.5s19.5 12.5 33.5 12.5h307c139.333 0 209 -18 209 -54c0 -14 -4.5 -25.333 -13.5 -34s-20.5 -13 -34.5 -13zM311 770l-78 -3c-82 0 -123 19.667 -123 59c0 14 4.16699 25.167 12.5 33.5
s19.5 12.5 33.5 12.5h367c106 0 159 -18 159 -54s-72 -54 -216 -54c-61.333 0 -110 2 -146 6h-9z" />
    <glyph glyph-name="greater" unicode="&#x3e;" horiz-adv-x="578" 
d="M155 -19l-42 -4.00098c-16.667 0 -29.667 7.5 -39 22.5s-14.333 31.5 -15 49.5l202.5 384c88.333 170 132.5 259.667 132.5 269c0 68 -30 161.333 -90 280c-74.667 145.333 -121 243.666 -139 294.999s-27.333 96 -28 134l45 35v-2c29.333 -14 49.333 -32.333 60 -55
s17.334 -37.667 20.001 -45c6.66699 -16 15 -43.167 25 -81.5s49.667 -132.166 119 -281.499s104.666 -243.666 105.999 -282.999z" />
    <glyph glyph-name="question" unicode="?" horiz-adv-x="1161" 
d="M670 1298c0 151.333 -34.666 226.999 -103.999 226.999c-40.667 0 -68.334 -10.167 -83.001 -30.5s-22 -49.5 -22 -87.5l8 -144c0 -115.333 7.66699 -203 23 -263c118.667 50.667 178 141.334 178 272.001v26zM534.001 209.999c0 -44.667 -18.333 -66.999 -55 -66.999
c-18.667 0 -35.5 6.16699 -50.5 18.5s-22.5 30.333 -22.5 54s-5.66699 64.667 -17 123s-17 102.166 -17 131.499v984c0 73.333 15.333 122 46 146c28.667 23.333 76 35 142 35c151.333 0 227 -121.667 227 -365c0 -112.667 -27.667 -195.667 -83 -249
c-12 -12 -23.167 -22.167 -33.5 -30.5s-16.5 -15.5 -18.5 -21.5c2 -50.667 60.333 -269 175 -655c0 -14.667 5.83301 -34.167 17.5 -58.5s17.5 -42.833 17.5 -55.5s-6.33301 -25.334 -19 -38.001s-24.667 -19 -36 -19c-42.667 0 -85.667 79.667 -129 239
c-25.333 92 -51.5 198.833 -78.5 320.5s-44.167 192.167 -51.5 211.5h-53c-3.33301 -53.333 -5 -102.666 -5 -147.999s7.33301 -133 22 -263s22 -227.667 22 -293zM624.001 1832c-275.333 0 -412.999 -292.667 -412.999 -878c0 -516 44.667 -825 134 -927
c13.333 -15.333 35 -32.833 65 -52.5s49 -32.5 57 -38.5h59v-20c157.333 2 270.666 74 339.999 216c64.667 132.667 97 324 97 574c0 188.667 -8.16699 359.667 -24.5 513s-48.5 298.666 -96.5 435.999v15c-20.667 32.667 -54.5 67.834 -101.5 105.501
s-85.833 56.5 -116.5 56.5zM784.502 -150c-50.333 -26.667 -108.664 -39.9971 -174.997 -39.9971s-126.666 11.167 -180.999 33.5s-99.333 50.5 -135 84.5s-66.5 78.5 -92.5 133.5s-45.833 107.833 -59.5 158.5s-24.167 111.334 -31.5 182.001
c-11.333 102 -17 191.333 -17 268v163c-2 34.667 -2.33301 73.167 -1 115.5s2.16602 86.833 2.49902 133.5s3.16602 94.667 8.49902 144s11.333 98.333 18 147s17 96.5 31 143.5s29.667 91.5 47 133.5s39.333 80.5 66 115.5s56 65.167 88 90.5c68 54.667 153.333 82 256 82
c56.667 0 111.167 -17.333 163.5 -52s97.166 -78.334 134.499 -131.001c61.333 -36.667 109.666 -225.667 144.999 -567c16.667 -156.667 25 -276.334 25 -359.001s-0.333008 -144.5 -1 -185.5s-4 -100.667 -10 -179s-14.5 -143 -25.5 -194s-27.833 -108.333 -50.5 -172
s-50 -114.334 -82 -152.001s-73.167 -69.834 -123.5 -96.501z" />
    <glyph glyph-name="at" unicode="@" horiz-adv-x="1078" 
d="M518 1246c-64.667 0 -96.999 -108.666 -96.999 -325.999v-65c0 -137.333 3.66699 -226.5 11 -267.5s14.666 -74.167 21.999 -99.5c16 -52 41 -78 75 -78c28 0 56.667 24.667 86 74s44 89.666 44 120.999v154c0 79.333 -7 161 -21 245c-26 161.333 -66 242 -120 242z
M200.001 1051.5c-1.33301 -37.667 -1.66992 -71.0039 -1.00293 -100.004s1 -55.167 1 -78.5c-0.666992 -602.667 87 -904 263 -904c119.333 0 199.666 19 240.999 57l71.5 66c31.667 29.333 65.5 55 101.5 77v10l49 -39c-10.667 -39.333 -33.667 -76.166 -69 -110.499
s-75.666 -62.166 -120.999 -83.499c-94.667 -44 -183.334 -66 -266.001 -66c-253.333 0 -380 358.667 -380 1076c0 200 11.333 343.333 34 430c29.333 110 69.333 188.667 120 236c68 64.667 155 97 261 97c169.333 0 291 -84 365 -252
c37.333 -84 68.666 -209.5 93.999 -376.5s38 -268.5 38 -304.5s-0.166992 -62 -0.5 -78s-1.66602 -37.667 -3.99902 -65s-5.66602 -50.666 -9.99902 -69.999s-10.666 -40.333 -18.999 -63s-18.5 -40.667 -30.5 -54c-28.667 -33.333 -61.5 -50 -98.5 -50
s-71.167 14.333 -102.5 43c-24 -42 -56.167 -76.333 -96.5 -103s-77.333 -40 -111 -40s-60 4.33301 -79 13s-35.5 19.667 -49.5 33s-26.5 31.166 -37.5 53.499s-20 43.833 -27 64.5s-13 46 -18 76s-8.66699 56.167 -11 78.5s-4.16602 49.5 -5.49902 81.5
c-2 48.667 -3 94.167 -3 136.5s0.166992 75.333 0.5 99s2 54.834 5 93.501s7.16699 70.834 12.5 96.501s13.5 53.5 24.5 83.5s23.833 54 38.5 72c36 42.667 83 64 141 64s109.333 -22.333 154 -67c21.333 -21.333 39.333 -84.666 54 -189.999s25 -185 31 -239
c12.667 -104.667 23 -201.334 31 -290.001v-9l45 -46c14 8 25.333 31.667 34 71c11.333 55.333 17 120.333 17 195c0 231.333 -36.333 440.666 -109 627.999c-30.667 75.333 -66.5 128.833 -107.5 160.5s-99.167 47.5 -174.5 47.5c-101.333 0 -176.666 -46 -225.999 -138
c-22.667 -43.333 -39.167 -96.166 -49.5 -158.499s-16 -112.5 -17 -150.5s-2.16699 -75.833 -3.5 -113.5z" />
    <glyph glyph-name="A" unicode="A" horiz-adv-x="709" 
d="M482 447c-2 24.667 -8.66699 98.333 -20 221c-30 313.333 -45 488.5 -45 525.5s0.333008 57.167 1 60.5c-8 -9.33301 -27.167 -106 -57.5 -290s-47.5 -284 -51.5 -300s-10.333 -38 -19 -66c-18 -58 -27.667 -102.667 -29 -134c56.667 -15.333 103.667 -23 141 -23
s64 2 80 6zM490 1529c26.667 -191.333 54.668 -440.332 84.001 -746.999s44 -544 44 -712c0 -46 -22.333 -69 -67 -69s-67 17.667 -67 53v267c-19.333 13.333 -53.833 24.666 -103.5 33.999s-93.834 15.333 -132.501 18c-16.667 -28 -29.5 -85.167 -38.5 -171.5
s-23.5 -145.833 -43.5 -178.5c-66 0 -102.333 13.667 -109 41c30.667 44.667 93 329.334 187 854.001c36.667 207.333 58.667 327.666 66 360.999c36.667 176 76.334 264 119.001 264c25.333 0 45.666 -6 60.999 -18v4z" />
    <glyph glyph-name="B" unicode="B" horiz-adv-x="625" 
d="M104 1403c0 89.333 25.6689 134.002 77.002 134.002c62.667 0 117 -15 163 -45c93.333 -59.333 140 -156.333 140 -291c0 -104 -41.667 -214.667 -125 -332c58 -82 93.167 -130.333 105.5 -145s23.166 -29.834 32.499 -45.501s14.666 -25.334 15.999 -29.001
s3.66602 -14.167 6.99902 -31.5s5.33301 -32.333 6 -45c0.666992 -32.667 3.83398 -71.334 9.50098 -116.001s9.5 -69.667 11.5 -75s-0.5 -22.5 -7.5 -51.5s-11.833 -48.333 -14.5 -58l-11 -40c-4.66699 -17 -8.66699 -29.667 -12 -38s-8 -19.333 -14 -33s-12 -24 -18 -31
l-22 -27c-8.66699 -11 -18 -20 -28 -27l-34 -24.5c-42 -29.333 -79.5 -48.166 -112.5 -56.499s-51.5 -12.5 -55.5 -12.5h-10c-37.333 0 -61 2.66699 -71 8c-19.333 10.667 -29 25 -29 43l10 504l-14 832v33zM292.002 785.002v0.999023h-70c6 -169.333 9 -401.333 9 -696
c66 10.667 118 42.167 156 94.5s57 113.833 57 184.5c0 230.667 -50.667 369.334 -152 416.001zM243.002 1421c-18.667 0 -28.002 -24.5 -28.002 -73.5s1.33301 -126 4 -231s4 -181.167 4 -228.5c48.667 11.333 90.334 71.333 125.001 180c18.667 58 30.667 93 36 105v73
c0 40 -14.167 79.167 -42.5 117.5s-61.166 57.5 -98.499 57.5z" />
    <glyph glyph-name="C" unicode="C" horiz-adv-x="685" 
d="M206 999l-18 -143.001c0 -69.333 9.16699 -196.333 27.5 -381s36.166 -289.667 53.499 -315c30.667 -44.667 77.667 -67 141 -67s111.666 19.667 144.999 59c23.333 0 45 3.33301 65 10v-27c0 -41.333 -12 -75 -36 -101c-39.333 -44.667 -102 -67 -188 -67
c-46 0 -91.333 15.5 -136 46.5s-78.667 71.167 -102 120.5s-41.666 176.333 -54.999 381s-20 362.334 -20 473.001s4.66699 190 14 238c-4 22 -6 43.333 -6 64c0 84 31.333 150.833 94 200.5s140 74.5 232 74.5c32.667 0 64.667 -9.16699 96 -27.5s47 -42.5 47 -72.5
c0 -14.667 -5.66699 -26 -17 -34s-27.166 -12 -47.499 -12s-35.5 8.33301 -45.5 25v-4h-32v8c-105.333 0 -171.333 -44.667 -198 -134c-13.333 -44 -20 -102 -20 -174z" />
    <glyph glyph-name="D" unicode="D" horiz-adv-x="691" 
d="M103 982l6.00195 224.003c0 63.333 -3 108.833 -9 136.5s-13.5 54 -22.5 79s-13.5 44 -13.5 57s2.66699 23.833 8 32.5s13.333 15.5 24 20.5s21 9 31 12s22.667 5.16699 38 6.5c25.333 1.33301 43.666 2 54.999 2h20c56 0 115.667 -30 179 -90
c76.667 -72.667 123.334 -149.334 140.001 -230.001c10 -47.333 16.667 -100 20 -158s5.66602 -96.667 6.99902 -116c4 -44 9.33301 -74 16 -90v-95c-7.33301 -12.667 -11 -33.334 -11 -62.001c0 -103.333 -23.667 -216.333 -71 -339s-106 -216 -176 -280
c-52 -47.333 -87.167 -75.333 -105.5 -84s-36.333 -13 -54 -13s-36.834 5.83301 -57.501 17.5s-31 29.167 -31 52.5c30 31.333 45 111.666 45 240.999c0 76 -6.33301 189 -19 339s-19 262.333 -19 337zM239.002 310.003v-196.001c106 74.667 180.333 213.667 223 417
c21.333 104 32 211.667 32 323c0 383.333 -94.667 575 -284 575v-2c0 -126.667 4.66699 -314.167 14 -562.5s14.333 -433.166 15 -554.499z" />
    <glyph glyph-name="E" unicode="E" horiz-adv-x="505" 
d="M315 750l-51.001 2.00098c-16 0 -28 -5 -36 -15v-632c70 4 106 6 108 6c76 0 114 -18 114 -54v-7c-9.33301 -18.667 -25.166 -33 -47.499 -43s-41.833 -15.667 -58.5 -17s-38.667 -2 -66 -2h-64c-52 0 -84 10 -96 30c-5.33301 9.33301 -8 21.666 -8 36.999v1478l177 18
c20.667 0 41.5 -6.16699 62.5 -18.5s31.5 -28.5 31.5 -48.5c0 -40.667 -31 -61 -93 -61l-59 2c-10 0 -17.333 -0.333008 -22 -1l16 -338c0 -27.333 -1.66699 -67.166 -5 -119.499s-5 -90.5 -5 -114.5c7.33301 1.33301 17.333 3.66602 30 6.99902
c28 7.33301 49.833 11 65.5 11s29.667 -5.66699 42 -17s18.5 -25 18.5 -41s-5 -30.333 -15 -43s-23 -19 -39 -19z" />
    <glyph glyph-name="F" unicode="F" horiz-adv-x="452" 
d="M391 828c0 -44.667 -56.665 -67.001 -169.998 -67.001c0 -74 6.5 -185 19.5 -333s19.5 -259.333 19.5 -334l-4 -13c2 -6 3 -16 3 -30s-6.33301 -26.333 -19 -37s-29.334 -16 -50.001 -16c-39.333 0 -59 43.667 -59 131c0 130 -6.83301 375.667 -20.5 737
s-27.5 552.666 -41.5 573.999c0 70.667 48.333 108.334 145 113.001c14 0.666992 33.667 1 59 1s45.166 -4.66699 59.499 -14s21.5 -28.333 21.5 -57s-19 -43 -57 -43l-50 2c-38 0 -57 -7.66699 -57 -23c0 -63.333 5 -156.166 15 -278.499s15.333 -212.833 16 -271.5
c58.667 14.667 96.167 22 112.5 22s30 -6.5 41 -19.5s16.5 -27.5 16.5 -43.5z" />
    <glyph glyph-name="G" unicode="G" horiz-adv-x="771" 
d="M540 371l-76.9971 -7.99805c-45.333 0 -68 19.333 -68 58c0 33.333 42.333 55 127 65c16.667 2 35.167 3 55.5 3s37.833 -10.667 52.5 -32s22 -49.833 22 -85.5s6.83301 -93.834 20.5 -174.501s20.5 -135 20.5 -163c0 -50 -17 -75 -51 -75s-56.667 14.333 -68 43v2
c-8 -4 -22.333 -12 -43 -24c-40.667 -22.667 -76.834 -34 -108.501 -34s-63 6.33301 -94 19s-57.667 28.834 -80 48.501s-42.333 45.167 -60 76.5s-32.334 62.333 -44.001 93s-21.667 66.667 -30 108s-14.5 78.333 -18.5 111s-7.33301 70.667 -10 114
c-3.33301 53.333 -5 118.333 -5 195l-1 151c0 320.667 45.333 533 136 637c52.667 61.333 121 92 205 92c54.667 0 82 -19.333 82 -58c0 -14.667 -5.16699 -26.334 -15.5 -35.001s-22.5 -13 -36.5 -13l-56 10c-49.333 0 -88.333 -31 -117 -93
c-29.333 -64 -48.333 -127.167 -57 -189.5s-15 -112.166 -19 -149.499s-6.66699 -79 -8 -125c-2.66699 -64.667 -4 -129.334 -4 -194.001l-1 -127c0 -134 5.66699 -227.833 17 -281.5s22.833 -96.834 34.5 -129.501s25.5 -60 41.5 -82
c37.333 -48.667 85.166 -73 143.499 -73s106.833 28.667 145.5 86c-2 122.667 -12.333 200.667 -31 234z" />
    <glyph glyph-name="H" unicode="H" horiz-adv-x="624" 
d="M392 824l-17.9971 671.997c-0.666992 10 4.66602 21 15.999 33s24.166 18 38.499 18s27.166 -12 38.499 -36s17 -63.333 17 -118c0 -150 6.33301 -375.167 19 -675.5s19 -525.166 19 -674.499c0 -18 -5.66699 -34.833 -17 -50.5s-25.666 -23.5 -42.999 -23.5
c-34.667 0 -52 22.667 -52 68c0 254.667 -5.66699 495.334 -17 722.001c-36.667 6.66699 -70.334 10 -101.001 10s-58 -5.33301 -82 -16c0.666992 -74.667 6.5 -189.167 17.5 -343.5s16.5 -271.166 16.5 -350.499c0 -13.333 -4 -25.666 -12 -36.999s-18.667 -17 -32 -17
c-22 0 -38.5 9.16699 -49.5 27.5s-18 66.666 -21 144.999s-4.83301 164.166 -5.5 257.499s-1.66699 149 -3 167c-24.667 354.667 -37 657.334 -37 908.001v15c2 21.333 13.667 32 35 32c42 0 66 -14.333 72 -43c-4.66699 -48.667 -7 -100 -7 -154l14 -421l-2 -77
c0 -19.333 1.33301 -37 4 -53z" />
    <glyph glyph-name="I" unicode="I" horiz-adv-x="489" 
d="M304 115l41.998 1.00391c55.333 0 83 -11.333 83 -34c5.33301 -22.667 2.83301 -38.834 -7.5 -48.501s-24.833 -14.5 -43.5 -14.5h-257c-39.333 0 -59 15.667 -59 47s20.667 47 62 47l63 -1c6.66699 0 10 34 10 102s-6.33301 207.167 -19 417.5s-19 368.166 -19 473.499
l4 209c0 44 -1.66699 82 -5 114c-18 -6 -34 -9 -48 -9c-32 0 -48 16.333 -48 49c0 16.667 10.333 31.167 31 43.5s46.334 21.166 77.001 26.499c57.333 10 99.833 15 127.5 15s47.5 -5.5 59.5 -16.5s18 -24 18 -39s-4.5 -28 -13.5 -39s-20.5 -16.5 -34.5 -16.5l-36 1
c-13.333 0 -23.166 -2.83301 -29.499 -8.5s-9.5 -16.834 -9.5 -33.501c0 -133.333 8.66699 -333 26 -599s26 -465.667 26 -599v-88z" />
    <glyph glyph-name="J" unicode="J" horiz-adv-x="475" 
d="M319 1429l-4 -317.002c0 -88.667 6.16699 -221.5 18.5 -398.5s18.5 -320.167 18.5 -429.5s-14.667 -203.166 -44 -281.499s-81 -143.833 -155 -196.5c-21.333 0 -39 5.33301 -53 16s-21 25.334 -21 44.001s8.5 35.667 25.5 51s35.167 27 54.5 35
c54.667 68.667 82 165 82 289c0 68 -3.5 165.333 -10.5 292s-11 212.167 -12 256.5s-1.83301 101 -2.5 170s-1.33398 125.167 -2.00098 168.5c-2 115.333 -10.667 221 -26 317c-4.66699 -0.666992 -13.667 -2.66699 -27 -6c-26.667 -6.66699 -47.167 -10 -61.5 -10
s-26.666 5.16699 -36.999 15.5s-15.5 22.5 -15.5 36.5c0 48 81.667 72 245 72c78.667 0 118 -18.667 118 -56s-30.333 -55 -91 -53v-15z" />
    <glyph glyph-name="K" unicode="K" horiz-adv-x="691" 
d="M120 660l3.00098 388.999c0 148.667 -2.16699 241 -6.5 277s-9.33301 66.833 -15 92.5s-8.5 46 -8.5 61s5.5 29 16.5 42s24.833 19.5 41.5 19.5c50.667 0 76 -55.333 76 -166c0 -0.666992 -3 -141 -9 -421l38 100l64 167l70 173c57.333 134.667 98.333 202 123 202
c15.333 0 28.833 -5.16699 40.5 -15.5s17.5 -22.666 17.5 -36.999s-37.333 -99.5 -112 -255.5s-116.334 -255 -125.001 -297v-36c20 -52.667 74.5 -218.834 163.5 -498.501s133.5 -428 133.5 -445s-6.66699 -31.167 -20 -42.5s-28.333 -17 -45 -17l-48 8
c-33.333 195.333 -67.333 364.833 -102 508.5s-80.667 280.834 -138 411.501c-38 -72.667 -58.333 -116.667 -61 -132c-4.66699 -35.333 -7 -68 -7 -98l13 -380c0 -184.667 -23.333 -277 -70 -277c-40 0 -60 34.5 -60 103.5s4.5 164.833 13.5 287.5s13.5 214.667 13.5 276z
" />
    <glyph glyph-name="L" unicode="L" horiz-adv-x="485" 
d="M200 1512l21 -736.999c0 -24 -1.33301 -45.667 -4 -65v-9c2 -39.333 5 -95.333 9 -168c10 -162 15 -284 15 -366v-65h146c22.667 -13.333 35.667 -23 39 -29s5 -14.5 5 -25.5s-5 -22.333 -15 -34s-20.333 -17.5 -31 -17.5s-23 2.33301 -37 7
c-11.333 -2.66699 -24.333 -4 -39 -4l-66 3c-14 -16.667 -31.5 -25 -52.5 -25s-38.667 6.5 -53 19.5s-21.5 28.167 -21.5 45.5l13 90c0 155.333 -6.83301 388.166 -20.5 698.499s-20.5 543.166 -20.5 698.499c0 12.667 5 22.834 15 30.501s22.5 11.5 37.5 11.5
s28.667 -5.66699 41 -17s18.5 -25.333 18.5 -42z" />
    <glyph glyph-name="M" unicode="M" horiz-adv-x="854" 
d="M423 424c92 523.333 148.67 887.666 170.003 1093v12c3.33301 18 12.166 32.167 26.499 42.5s28.666 15.5 42.999 15.5s25.166 -2.66699 32.499 -8c16 -11.333 24 -26 24 -44c0 -162 4.33301 -404.667 13 -728s13 -566 13 -728c0 -40.667 -13.667 -72.667 -41 -96
c-14.667 -10 -23.667 -12 -27 -6c-27.333 -7.33301 -42.666 -1.66602 -45.999 17.001c-1.33301 8 -2 18 -2 30l1 33c-2.66699 104 -4 185.333 -4 244s0.5 139.667 1.5 243s0.833008 299.333 -0.5 588c-7.33301 -42.667 -22.833 -123.167 -46.5 -241.5
s-39.834 -204.333 -48.501 -258s-15.667 -98.5 -21 -134.5s-10.5 -68.167 -15.5 -96.5s-11.167 -57.166 -18.5 -86.499c-15.333 -62 -37.333 -93 -66 -93c-42.667 0 -64 63.667 -64 191c-8 65.333 -30 196.166 -66 392.499s-60 331.166 -72 404.499
c-1.33301 -126.667 -2 -221.667 -2 -285l17 -852c0 -29.333 -10.333 -55 -31 -77c-34 0 -57 11.333 -69 34s-18 53.334 -18 92.001l7 342l-7 793c0 88.667 1 177 3 265l57 32c38 -4 80.333 -124 127 -360c37.333 -186.667 67.833 -358.667 91.5 -516s36.5 -242 38.5 -254z
" />
    <glyph glyph-name="N" unicode="N" horiz-adv-x="764" 
d="M647 1444l-8.00488 -757.001v-626c0 -32.667 -13.333 -56.334 -40 -71.001c-14 -7.33301 -28.5 -11 -43.5 -11s-26.333 2.33301 -34 7s-13.5 10.334 -17.5 17.001s-7.5 15 -10.5 25s-5.16699 19.333 -6.5 28c-7.33301 48.667 -32.666 150.667 -75.999 306
c-84 298.667 -137.667 523.667 -161 675c-1.33301 4.66699 -2.16602 11 -2.49902 19s-0.833008 14.667 -1.5 20c-0.666992 14.667 -4.33398 26.667 -11.001 36c0.666992 28 -5.16602 63.833 -17.499 107.5s-19.166 69.834 -20.499 78.501v-1296h-72v38
c2.66699 10 2.33398 31 -0.999023 63s-5 70 -5 114s-4.33301 145.333 -13 304s-13 255.667 -13 291v261l14 376c0 50.667 3.66699 79 11 85c17.333 13.333 35.333 20 54 20s33 -2.66699 43 -8c23.333 -12.667 35 -30.334 35 -53.001s2.66699 -45.167 8 -67.5
s13 -47.333 23 -75s17 -48.834 21 -63.501s7.5 -31.667 10.5 -51s5.16699 -36.666 6.5 -51.999c4.66699 -51.333 10.5 -95.666 17.5 -132.999s20.5 -92.833 40.5 -166.5s39 -138.834 57 -195.501c45.333 -145.333 71 -275.666 77 -390.999
c10.667 -20 17.334 -44.333 20.001 -73l6 714v606c8 34 30.5 51 67.5 51s55.5 -26.667 55.5 -80v-12c-8.66699 -18 -13 -38 -13 -60z" />
    <glyph glyph-name="O" unicode="O" horiz-adv-x="694" 
d="M369.5 1448.5c-19.667 19 -38.6699 28.5039 -57.0029 28.5039s-33.166 -4.66699 -44.499 -14s-21 -23.333 -29 -42s-15.333 -38.5 -22 -59.5s-12.167 -46.667 -16.5 -77l-11.5 -82.5c-3.33301 -24.667 -6 -54 -8 -88l-5 -83c-1.33301 -21.333 -2.16602 -47 -2.49902 -77
s-0.5 -50 -0.5 -60v-42c0 -110 10.333 -236 31 -378c41.333 -279.333 99.666 -419 174.999 -419c26.667 0 49.334 25.5 68.001 76.5s31.667 114.833 39 191.5c13.333 130 20 224.167 20 282.5s-0.166992 100.166 -0.5 125.499s-1.33301 62.166 -3 110.499
s-4.5 93.666 -8.5 135.999s-9 89.166 -15 140.499s-14.167 97 -24.5 137s-22.166 77.5 -35.499 112.5s-29.833 62 -49.5 81zM598.997 618.004l-18.0039 -258.998v-9c-8.66699 -38 -13 -79 -13 -123s-7.5 -86.5 -22.5 -127.5s-38 -77.333 -69 -109
s-64.833 -47.5 -101.5 -47.5s-70.167 12.667 -100.5 38s-55.333 57.833 -75 97.5s-37.167 87 -52.5 142s-27 108.667 -35 161s-14.667 107.5 -20 165.5c-7.33301 88.667 -11 161.5 -11 218.5s1 103.833 3 140.5c2.66699 67.333 5.66699 127.166 9 179.499
s5.33301 92.5 6 120.5s1.33398 51.667 2.00098 71s2.66699 43.166 6 71.499s7.33301 52.5 12 72.5s11.834 41 21.501 63s21.167 40 34.5 54c30.667 31.333 65 47 103 47s68.333 -3.66699 91 -11s41.834 -16.833 57.501 -28.5s30 -27 43 -46s23.667 -37.5 32 -55.5
s15.833 -39.667 22.5 -65c8.66699 -32 17.334 -77.667 26.001 -137c32.667 -233.333 49 -441.333 49 -624z" />
    <glyph glyph-name="P" unicode="P" horiz-adv-x="551" 
d="M205 811c103.333 98 155 213.667 155 347v1c0 98.667 -18 166.667 -54 204c-22.667 23.333 -62.334 55.333 -119.001 96c0.666992 -72 3.83398 -180 9.50098 -324s8.5 -252 8.5 -324zM109 58l9.99902 731.003c0 324 -17.333 567.667 -52 731
c21.333 30.667 47.333 46 78 46c50.667 0 96.834 -11.333 138.501 -34s75.5 -52.667 101.5 -90c54 -78.667 81 -167.834 81 -267.501s-21.667 -190.334 -65 -272.001s-107 -145.167 -191 -190.5l16 -638c0 -56.667 -22.667 -85 -68 -85c-16.667 0 -29 7.16699 -37 21.5
s-12 30.166 -12 47.499z" />
    <glyph glyph-name="Q" unicode="Q" horiz-adv-x="720" 
d="M587 -169c50.667 0 76.002 -16.667 76.002 -50c0 -42 -30.333 -63 -91 -63c-23.333 0 -51.666 9.66699 -84.999 29v1c-36 17.333 -60.667 47.666 -74 90.999c-11.333 36.667 -19.333 73 -24 109s-8.33398 60 -11.001 72h-81c-126.667 85.333 -197 227.333 -211 426
c-2.66699 37.333 -4 80 -4 128l10 334l-2 144c0 349.333 73.667 524 221 524c54 0 104.333 -19.5 151 -58.5s76.334 -85.833 89.001 -140.5c23.333 -103.333 38.333 -210.833 45 -322.5s10 -208.5 10 -290.5v-153c0 -170.667 -6.66699 -277 -20 -319
c-26.667 -86.667 -61.667 -160.667 -105 -222c1.33301 -5.33301 3.66602 -18.833 6.99902 -40.5s7.16602 -42.667 11.499 -63s9.5 -41.166 15.5 -62.499c13.333 -48.667 30.666 -73 51.999 -73h20zM411.002 107c55.333 52.667 82.999 125.999 82.999 219.999v466
c0 62 -4.83301 136.167 -14.5 222.5s-15.334 138.833 -17.001 157.5s-3.16699 36.334 -4.5 53.001s-2.33301 30 -3 40s-2 23 -4 39s-4.16699 28.833 -6.5 38.5s-5.66602 21.167 -9.99902 34.5s-9.16602 24 -14.499 32s-12 16.5 -20 25.5s-17 15.833 -27 20.5
c-23.333 12 -49.666 18 -78.999 18c-24 0 -44.167 -35.167 -60.5 -105.5s-27.5 -158.5 -33.5 -264.5c-11.333 -185.333 -17 -316 -17 -392s0.666992 -132.333 2 -169s5.66602 -84.167 12.999 -142.5s16.833 -109 28.5 -152s29.5 -81.167 53.5 -114.5s52 -51.333 84 -54v2
c10 17.333 25.667 26 47 26v-1z" />
    <glyph glyph-name="R" unicode="R" horiz-adv-x="601" 
d="M221 1463l-10.999 -418c0 -42 0.666992 -73.333 2 -94c22.667 22 44.667 48.333 66 79l30 177c0 70.667 -9.33301 130 -28 178s-38.334 74 -59.001 78zM535.001 46c0 -44.667 -16.3359 -66.9971 -49.0029 -66.9971c-25.333 0 -50 18.333 -74 55v7
c-3.33301 54.667 -20.166 129.667 -50.499 225s-49.166 159.666 -56.499 192.999s-19.166 96.166 -35.499 188.499s-30.5 162.833 -42.5 211.5v-807c0 -43.333 -22.333 -65 -67 -65c-16 0 -29.667 5.5 -41 16.5s-17 24.5 -17 40.5v16l14 1201v252c0 16 3.33301 27.333 10 34
s26 10 58 10s64.667 -10.5 98 -31.5s60 -48.167 80 -81.5c41.333 -68.667 62 -144.334 62 -227.001c0 -66.667 -16.667 -143 -50 -229c-4 -9.33301 -12 -29 -24 -59s-19 -47.667 -21 -53c0.666992 -53.333 9.5 -119.833 26.5 -199.5s32.833 -144 47.5 -193
s39.167 -125.5 73.5 -229.5l58.5 -178v-30z" />
    <glyph glyph-name="S" unicode="S" horiz-adv-x="581" 
d="M64 24c0 36.667 15.3359 55.001 46.0029 55.001c15.333 0 35.5 -5.16699 60.5 -15.5s46.667 -15.5 65 -15.5s38.166 11.667 59.499 35s38 52.333 50 87c24.667 70 37 133.667 37 191s-10 118.666 -30 183.999s-44.5 126.666 -73.5 183.999l-86.5 172
c-68.667 137.333 -103 262 -103 374c0 106.667 33.667 190.334 101 251.001c36 32 78.333 48 127 48c24.667 0 48.667 -6.83301 72 -20.5s39.666 -31.5 48.999 -53.5v-44c-57.333 0 -95.666 6.66699 -114.999 20c-25.333 -2.66699 -47.333 -14.667 -66 -36
c-34 -40 -51 -86.167 -51 -138.5s7.66699 -106.333 23 -162s33.666 -108 54.999 -157s42.833 -94.5 64.5 -136.5s40.167 -76.333 55.5 -103s23 -40.667 23 -42v-16c4.66699 -17.333 12.667 -44.666 24 -81.999l27 -89c16.667 -60 25 -114.333 25 -163
s-5.83301 -95 -17.5 -139s-28.334 -85.5 -50.001 -124.5s-51 -70.833 -88 -95.5s-71.5 -37 -103.5 -37s-59 1.66699 -81 5s-44 10.666 -66 21.999s-33 25.333 -33 42z" />
    <glyph glyph-name="T" unicode="T" horiz-adv-x="543" 
d="M347 1189l-4 -263.997c0 -124.667 10.667 -229.334 32 -314.001v-1c-9.33301 -43.333 -14 -95.333 -14 -156l17 -368c0 -66.667 -19.667 -100 -59 -100c-22.667 0 -39.334 10.667 -50.001 32s-16 45 -16 71l16 327c0 70.667 -4.66699 177 -14 319s-14 248.333 -14 319
l3 179c0 98 -6.33301 161.667 -19 191l-111 -11c-17.333 0 -32.833 5.16699 -46.5 15.5s-20.5 23.666 -20.5 39.999s16.333 30.333 49 42s72.667 20.167 120 25.5c82 9.33301 151 14 207 14c16.667 0 31.834 -5.5 45.501 -16.5s20.5 -24.833 20.5 -41.5
s-6 -29.834 -18 -39.501s-26.667 -14.5 -44 -14.5l-73 4c-9.33301 0 -16.333 -0.333008 -21 -1c9.33301 -78.667 14 -162.667 14 -252z" />
    <glyph glyph-name="U" unicode="U" 
d="M645 586l5.99805 -126.004v-31l-5 -22l1 -119c0 -120 -17 -205 -51 -255c-32 -46.667 -81.667 -70 -149 -70c-82 0 -144.333 29.667 -187 89c-37.333 50.667 -64.666 118.667 -81.999 204c-22 102.667 -39.667 175.334 -53 218.001
c-1.33301 3.33301 -8.83301 156 -22.5 458s-20.5 469.667 -20.5 503c-10 11.333 -15 25.333 -15 42s5.83301 31.334 17.5 44.001s25.5 19 41.5 19c49.333 0 74 -48.667 74 -146l19 -712c8 -18 14.833 -54.333 20.5 -109s8.5 -97.167 8.5 -127.5
s4.83301 -67.666 14.5 -111.999s22.834 -89.166 39.501 -134.499s39.167 -84 67.5 -116s58.5 -48 90.5 -48c52 0 79.333 47 82 141c0.666992 12 1 26.333 1 43v919c0 38.667 -7.33301 97.167 -22 175.5s-22 131.333 -22 159s6.83301 46.667 20.5 57s29.167 15.5 46.5 15.5
l62 -48v-34l-18 -125c0 -79.333 5 -195.5 15 -348.5s15.333 -266.5 16 -340.5v-3z" />
    <glyph glyph-name="V" unicode="V" horiz-adv-x="664" 
d="M554 1569l42.9961 0.000976562c-9.33301 -88.667 -33.666 -282.334 -72.999 -581.001s-62.833 -494 -70.5 -586s-11.667 -154.667 -12 -188s-1.16602 -62.5 -2.49902 -87.5s-4 -50.5 -8 -76.5c-8.66699 -56 -29 -84 -61 -84c-19.333 0 -35.333 7.33301 -48 22
c-31.333 130 -78 390.167 -140 780.5s-105.667 641.833 -131 754.5c8 26.667 28 40 60 40c15.333 0 25.833 -3.5 31.5 -10.5s9.83398 -12.5 12.501 -16.5s5 -9.83301 7 -17.5s3.5 -13.667 4.5 -18s2 -10.833 3 -19.5s4.83301 -33.167 11.5 -73.5s21.667 -138.833 45 -295.5
c49.333 -340 92 -597.667 128 -773c8.66699 77.333 25.334 200.333 50.001 369c50 350 75 623.333 75 820c21.333 27.333 46.333 41 75 41z" />
    <glyph glyph-name="W" unicode="W" horiz-adv-x="950" 
d="M305 503c50 400 75.0049 661 75.0049 783v39c0 14.667 5.5 28.834 16.5 42.501s23.5 20.5 37.5 20.5c55.333 0 83 -20 83 -60v-31c0 -132.667 27 -324 81 -574c24.667 -112 42 -199.333 52 -262c7.33301 75.333 20.666 184.333 39.999 327c42 310.667 63 550 63 718
c0 30 5 51.833 15 65.5s26.333 20.5 49 20.5s40.5 -5.33301 53.5 -16s19.5 -24.334 19.5 -41.001s-7 -32 -21 -46c-20.667 -112 -38.834 -279 -54.501 -501s-30.834 -377.167 -45.501 -465.5s-24.334 -149.166 -29.001 -182.499c-17.333 -113.333 -26 -212.333 -26 -297
c0 -20.667 -5.16699 -37.667 -15.5 -51s-24.666 -20 -42.999 -20s-33.5 11 -45.5 33s-21.333 51.167 -28 87.5s-11.834 71 -15.501 104s-6.66699 67.333 -9 103s-6 73 -11 112s-20.833 123.667 -47.5 254s-42 206.166 -46 227.499c-50 -383.333 -75 -671.666 -75 -864.999
c0 -14.667 -6.16699 -27.834 -18.5 -39.501s-25.833 -17.5 -40.5 -17.5c-50 0 -75 52 -75 156c0 64 -28.167 297.833 -84.5 701.5s-92.166 624.5 -107.499 662.5c17.333 32.667 41 49 71 49c39.333 0 67.666 -51.333 84.999 -154c8 -48 13 -108 15 -180
s4.16699 -121.333 6.5 -148s6.66602 -67 12.999 -121s12.5 -100.333 18.5 -139z" />
    <glyph glyph-name="X" unicode="X" horiz-adv-x="578" 
d="M433 24c-40 0 -60.001 15.666 -60.001 46.999s-1.5 62.5 -4.5 93.5s-7.83301 64.167 -14.5 99.5s-12.5 64.333 -17.5 87l-22.5 97.5l-21 89.5c-50.667 -216 -81 -351.833 -91 -407.5s-16.667 -88.667 -20 -99s-10.333 -20.333 -21 -30s-23.834 -14.5 -39.501 -14.5
s-29.334 4.33301 -41.001 13s-17.5 20.167 -17.5 34.5s2.5 30.5 7.5 48.5s12 38.5 21 61.5s20.333 56.833 34 101.5s35.334 136.5 65.001 275.5s44.5 235.833 44.5 290.5s-7 112.834 -21 174.501s-29.333 116.834 -46 165.501c-44 130.667 -66 237.667 -66 321v5
c12.667 28 32 42 58 42s41.833 -6.16699 47.5 -18.5s9.33398 -21.5 11.001 -27.5s3.16699 -16.167 4.5 -30.5s3.66602 -33.333 6.99902 -57s14.833 -74.334 34.5 -152.001s31.834 -126.834 36.501 -147.501c2 6.66699 10.333 54 25 142c36.667 214 75.667 321 117 321
c15.333 0 29.333 -4 42 -12s19 -17.833 19 -29.5s-1.5 -22.167 -4.5 -31.5s-7.16699 -20 -12.5 -32s-12.166 -29.167 -20.499 -51.5s-29.666 -118.333 -63.999 -288s-51.5 -266 -51.5 -289s7.83301 -74 23.5 -153l53.5 -263c20 -96.333 30.333 -147.166 31 -152.499v-12
c1.33301 -16.667 6.66602 -42 15.999 -76s14 -59.5 14 -76.5s-5.5 -31.167 -16.5 -42.5s-24.167 -17 -39.5 -17z" />
    <glyph glyph-name="Y" unicode="Y" horiz-adv-x="522" 
d="M353 183l-1.00195 -102v-46c0 -18 -6 -32.5 -18 -43.5s-25.5 -16.5 -40.5 -16.5s-27.667 4.83301 -38 14.5s-15.5 21.5 -15.5 35.5l10 396c0 40 -6.5 99.167 -19.5 177.5s-19.5 141.333 -19.5 189s-8.16699 105.667 -24.5 174s-34.5 129.833 -54.5 184.5
c-52.667 142.667 -79 265 -79 367c0 22 21.667 33 65 33c10 0 20.333 -4 31 -12s16.334 -17 17.001 -27c13.333 -157.333 47.333 -324.333 102 -501c2.66699 12 5.83398 40.5 9.50098 85.5s8 91.167 13 138.5s11.5 95.333 19.5 144c18 110 45.167 165 81.5 165
s54.5 -7.33301 54.5 -22c0 -76.667 -16.333 -191 -49 -343s-49 -267.333 -49 -346l6 -71v-31z" />
    <glyph glyph-name="Z" unicode="Z" horiz-adv-x="494" 
d="M307 1451c-46.667 -6.66699 -85.6689 -9.99805 -117.002 -9.99805c-74 0 -111 21.667 -111 65v43l29 1c18 -4.66699 37 -7 57 -7l193 21c16 0 29.333 -5.83301 40 -17.5s16 -30.5 16 -56.5c0 -30.667 -13.333 -119.334 -40 -266.001
c-8 -58.667 -21 -163.334 -39 -314.001c-35.333 -298 -70 -531.667 -104 -701c-3.33301 -15.333 -10.666 -36.5 -21.999 -63.5s-18.666 -47.167 -21.999 -60.5l108 8c72 0 108 -21 108 -63v-9l-32 -32l-253 -8c-26 0 -45.333 16.667 -58 50
c31.333 50 66.5 179.833 105.5 389.5s71 412.167 96 607.5s40.167 336.333 45.5 423z" />
    <glyph glyph-name="bracketleft" unicode="[" horiz-adv-x="523" 
d="M415 1465l-115 13.001c-25.333 0 -38 -6.66699 -38 -20c0 -190 -8.33301 -411.167 -25 -663.5l-27.5 -418c-1.66699 -26.333 -6.66699 -77.333 -15 -153s-12.5 -134.167 -12.5 -175.5v-42h9c129.333 0.666992 194 -24 194 -74c0 -29.333 -22 -44 -66 -44
c-164.667 0 -247 25.667 -247 77c0 56 7.16699 140.167 21.5 252.5s21.5 210.666 21.5 294.999s8.83301 238.5 26.5 462.5s26.5 392.333 26.5 505c0 43.333 13 75.333 39 96h78c124 0 186 -21.667 186 -65c0 -14 -5.83301 -25.167 -17.5 -33.5s-24.5 -12.5 -38.5 -12.5z" />
    <glyph glyph-name="backslash" unicode="\" horiz-adv-x="561" 
d="M463 -30l-0.000976562 -1.00195c-21.333 0 -40.333 18.333 -57 55c-30 66.667 -54.333 156.334 -73 269.001l-119.5 529l-98 427.5c-12.333 55.667 -22.166 96.5 -29.499 122.5c-17.333 57.333 -26 97.5 -26 120.5s5.5 39.167 16.5 48.5s22.333 14 34 14
s20.667 -2.33301 27 -7s11.5 -11.667 15.5 -21s7 -17.333 9 -24s4 -16.167 6 -28.5s7 -35.666 15 -69.999s32.167 -125.333 72.5 -273l111.5 -409.5c89.333 -328 134 -558.333 134 -691c0 -24.667 -12.667 -45 -38 -61z" />
    <glyph glyph-name="bracketright" unicode="]" horiz-adv-x="506" 
d="M121 -68c0 49.333 60.334 74.001 181.001 74.001h21v42c-2.66699 134.667 -13.334 360.5 -32.001 677.5s-28 561.167 -28 732.5v18l-135 -11c-49.333 0 -74 15.333 -74 46c0 44.667 64.333 67 193 67h72c22 -9.33301 34 -19.166 36 -29.499s3.16699 -16.833 3.5 -19.5
s0.333008 -10.167 0 -22.5s-0.5 -46.833 -0.5 -103.5s6 -192.667 18 -408s18 -365.333 18 -450s6.83301 -187.334 20.5 -308.001s20.5 -211.334 20.5 -272.001c0 -51.333 -82.667 -77 -248 -77c-44 0 -66 14.667 -66 44z" />
    <glyph glyph-name="asciicircum" unicode="^" horiz-adv-x="355" 
d="M129.5 1530.5c-14.333 10.333 -21.501 25.498 -21.501 45.498s5.5 38.333 16.5 55s26.5 25 46.5 25s37.333 -7.16699 52 -21.5s22 -31.166 22 -50.499s-6 -35.666 -18 -48.999s-27.667 -20 -47 -20s-36.166 5.16699 -50.499 15.5z" />
    <glyph glyph-name="underscore" unicode="_" horiz-adv-x="982" 
d="M690 -115l-549 -22c-14 0 -26 5.16699 -36 15.5s-15 22.5 -15 36.5c0 41.333 72.667 62 218 62l177 3l329 20c16.667 -0 32 -5.66699 46 -17s21 -28 21 -50s-8.83301 -35.667 -26.5 -41s-47 -7.83301 -88 -7.5s-66.5 0.5 -76.5 0.5z" />
    <glyph glyph-name="grave" unicode="`" horiz-adv-x="583" 
d="M215 1598c-14.667 -1.33301 -26.333 -1.99609 -35 -1.99609c-59.333 0 -89 20.667 -89 62c0 34 9.33301 56.667 28 68c46 0 75 -3 87 -9s20.167 -10.333 24.5 -13s19.833 -8.33398 46.5 -17.001s48.5 -16.334 65.5 -23.001s36.833 -15.334 59.5 -26.001
c47.333 -22 71 -46.333 71 -73c0 -11.333 -5 -20.833 -15 -28.5s-19.5 -11.5 -28.5 -11.5s-20.333 2 -34 6s-29.667 9.33301 -48 16l-50 18.5l-49.5 19.5c-18 7.33301 -29 11.666 -33 12.999z" />
    <glyph glyph-name="a" unicode="a" horiz-adv-x="674" 
d="M572 331l-11 -41.001c0 -16.667 6 -57.334 18 -122.001s18 -107 18 -127v-2c0 -30.667 -10.333 -50 -31 -58c-28.667 0 -51 4.66699 -67 14s-24 32.833 -24 70.5s-10 115.167 -30 232.5l-63 6h-68c-15.333 6.66699 -42.333 10 -81 10
c0 -1.33301 -0.833008 -10.166 -2.5 -26.499l-4 -39.5c-1 -10 -2.66699 -24.833 -5 -44.5s-4.83301 -36.334 -7.5 -50.001s-6 -29.667 -10 -48s-8.5 -33.666 -13.5 -45.999s-10.5 -24.166 -16.5 -35.499c-12 -23.333 -26.667 -35 -44 -35s-32.833 5.16699 -46.5 15.5
s-20.5 23.5 -20.5 39.5c36 138 66.833 282.667 92.5 434l46 269.5c5 28.333 16.667 83 35 164s29.333 135.167 33 162.5s7.16699 62.666 10.5 105.999c6 94.667 18.333 155.667 37 183h69c46.667 0 70 -14 70 -42c0 -263.333 25.667 -525 77 -785
c2.66699 -15.333 7.66699 -36.666 15 -63.999c16 -59.333 24 -106.333 24 -141zM432 374.999c-4 20 -5.99902 52.333 -5.99902 97s-2.83301 98.834 -8.5 162.501s-13.834 137.5 -24.501 221.5s-18 144.667 -22 182c-8 -38.667 -23.667 -103.334 -47 -194.001
c-47.333 -188.667 -71.666 -334 -72.999 -436c23.333 -15.333 83.666 -26.333 180.999 -33z" />
    <glyph glyph-name="b" unicode="b" horiz-adv-x="542" 
d="M111 524l9 649c0 47.333 -0.666992 82.666 -2 105.999v19c0 56.667 19.333 85 58 85c30.667 0 72 -8.66699 124 -26s78 -37.666 78 -60.999c0 -30.667 10.167 -75.5 30.5 -134.5s30.5 -103.5 30.5 -133.5c0 -92.667 -6.66699 -159.5 -20 -200.5
s-34.333 -81.833 -63 -122.5c39.333 -38 65 -85.833 77 -143.5s18 -115.667 18 -174s-3.33301 -105.5 -10 -141.5s-17.667 -70.333 -33 -103s-34 -61 -56 -85c-48.667 -52 -114.334 -78 -197.001 -78c-29.333 0 -47.666 12.667 -54.999 38c-6 18.667 -9 42 -9 70zM220 244
c-8.66699 -14.667 -13 -37.333 -13 -68v-92c44 10.667 77.333 37.834 100 81.501s34 84.167 34 121.5s-0.5 67.166 -1.5 89.499s-3.83301 49.5 -8.5 81.5s-11 60 -19 84c-19.333 58 -49.333 91.667 -90 101c-5.33301 -78.667 -8 -160.667 -8 -246s2 -136.333 6 -153z
M220 1288v-525c68.667 2 103 85 103 249c0 43.333 -5 88.333 -15 135c-20 90 -49.333 137 -88 141z" />
    <glyph glyph-name="c" unicode="c" horiz-adv-x="568" 
d="M437 97c41.333 0 62.001 -14.998 62.001 -44.998c0 -54 -38 -81 -114 -81c-31.333 0 -63.5 4.5 -96.5 13.5s-57.833 18.833 -74.5 29.5c-90.667 58.667 -136 219 -136 481l-1 120c0 392.667 48 624.334 144 695.001c49.333 36 118 54 206 54
c14.667 0 28.167 -5.33301 40.5 -16s18.5 -23 18.5 -37v-8c-12.667 -31.333 -45.667 -47 -99 -47l-37 2c-22.667 0 -42.834 -12.333 -60.501 -37s-31.167 -54.334 -40.5 -89.001s-17 -73.334 -23 -116.001c-9.33301 -67.333 -14 -130.333 -14 -189v-10l-13 -395
c0 -83.333 4.5 -141 13.5 -173s18.333 -57.833 28 -77.5s21.167 -35.834 34.5 -48.501c30.667 -29.333 70 -44 118 -44c16 0 30.667 6 44 18z" />
    <glyph glyph-name="d" unicode="d" horiz-adv-x="645" 
d="M216 1045l23 -904v-49h37c71.333 86.667 117.333 166 138 238c19.333 67.333 29 161.333 29 282c0 412 -70.667 627.333 -212 646c-10 -54 -15 -125 -15 -213zM551 808l-4.00098 -103v-112c0 -135.333 -6 -226.666 -18 -273.999s-24.167 -86.333 -36.5 -117
s-27.166 -58 -44.499 -82c-40 -54 -90.667 -98 -152 -132h-140c-34.667 0 -52 89.333 -52 268l6 645c0 119.333 -2.33301 231.333 -7 336c-11.333 13.333 -17 29.166 -17 47.499s7.66699 34.333 23 48s33.833 20.5 55.5 20.5s40.167 -12 55.5 -36
c10 -4 24.833 -7.66699 44.5 -11s34.167 -7.33301 43.5 -12c76 -35.333 135.5 -97.833 178.5 -187.5s64.5 -189.167 64.5 -298.5z" />
    <glyph glyph-name="e" unicode="e" horiz-adv-x="517" 
d="M289 77l81.002 5.00195c52 0 78 -16.667 78 -50c0 -20.667 -9 -35.667 -27 -45s-38.333 -14 -61 -14h-193c-17.333 0 -32.166 6 -44.499 18s-19 27.333 -20 46s0.333008 42 4 70s5.5 50.333 5.5 67l-10 262l14 598l-11 173c0 96.667 28.667 145 86 145c16 0 31 -5 45 -15
c5.33301 -0.666992 18.166 -1.83398 38.499 -3.50098s38.166 -3.83398 53.499 -6.50098s32 -6.33398 50 -11.001c38.667 -10.667 58 -29 58 -55c0 -28 -20 -49.333 -60 -64c-62.667 21.333 -114.334 34.333 -155.001 39c2 -29.333 3 -58.666 3 -87.999l-9 -294
c0 -1.33301 2 -12 6 -32l73 3c66 0 99 -18.667 99 -56c0 -20 -5.83301 -37.667 -17.5 -53s-28.167 -23 -49.5 -23s-40 6 -56 18h-52c4 -52 6 -101.333 6 -148l-9 -371c0 -76.667 24.667 -115 74 -115z" />
    <glyph glyph-name="f" unicode="f" horiz-adv-x="541" 
d="M226 808l18.999 411v24c60 0 103.667 -6.66699 131 -20c69.333 0 104 19.333 104 58c0 44 -67.333 71 -202 81c-24 1.33301 -46.167 2 -66.5 2s-38.666 -5.33301 -54.999 -16s-24.5 -25.667 -24.5 -45c0 -60 -3.5 -151.333 -10.5 -274s-12.333 -293.167 -16 -511.5
s-10.834 -386.5 -21.501 -504.5l57 -43c46 0 69 34 69 102v580c25.333 -8 49.833 -12 73.5 -12s42.834 5.5 57.501 16.5s22 25.5 22 43.5c0 36 -33 54 -99 54l-38 -1v55z" />
    <glyph glyph-name="g" unicode="g" horiz-adv-x="654" 
d="M406 519l-36.0078 -1.00879c-19.333 0 -34.666 3.16699 -45.999 9.5s-17 19 -17 38s6.16699 33.5 18.5 43.5s27.5 15 45.5 15v-1c133.333 0 200 -21 200 -63l-22 -149l10 -217c0 -39.333 -3 -73 -9 -101c-79.333 -72.667 -149.666 -109 -210.999 -109
c-32.667 0 -62.667 8.83301 -90 26.5s-54 47.834 -80 90.501s-48.667 123.834 -68 243.501s-29 202.834 -29 249.501s1 85.334 3 116.001s5 65.5 9 104.5s6.33301 64.333 7 76s1.83398 28.334 3.50098 50.001l5 62c1.66699 19.667 5.33398 47.334 11.001 83.001
s11.834 63.834 18.501 84.501s16.334 44.167 29.001 70.5s27.334 46.833 44.001 61.5c40.667 34.667 87.834 52 141.501 52s80.5 -17.333 80.5 -52c0 -16 -5.83301 -29.167 -17.5 -39.5s-25.167 -15.5 -40.5 -15.5l-37 5c-40 0 -70.333 -46.667 -91 -140
c-20 -90.667 -31.667 -172.334 -35 -245.001c-6 -111.333 -9 -185.5 -9 -222.5s0.166992 -65.667 0.5 -86s1 -45.666 2 -75.999s2.66699 -57.166 5 -80.499s5.5 -49.166 9.5 -77.499s8.83301 -53 14.5 -74s12.667 -42 21 -63s17.833 -38.167 28.5 -51.5
c24 -30 52.667 -45 86 -45c59.333 0 88.333 115 87 345v75c-8.66699 5.33301 -22.667 8 -42 8z" />
    <glyph glyph-name="h" unicode="h" horiz-adv-x="627" 
d="M219 1233l-7.99902 -511.001c24 -6.66699 60 -10 108 -10h78v43c0 62.667 -4.66699 156.834 -14 282.501s-14 219.834 -14 282.501c0 15.333 5.83301 28.166 17.5 38.499s22 15.5 31 15.5s16.833 0.5 23.5 1.5s12.167 1.33301 16.5 1s9.16602 -1.83301 14.499 -4.5
c10 -4.66699 15 -20 15 -46c0 -143.333 6.33301 -358 19 -644s19 -500.667 19 -644c0 -12 -5.16699 -21.333 -15.5 -28s-23.5 -10 -39.5 -10s-31 4.16699 -45 12.5s-21.333 19.5 -22 33.5c-7.33301 136 -11 303.333 -11 502v8l-1 59l-1 19v2c-10.667 -2.66699 -26 -4 -46 -4
l-127 19l-6 -226v-9l17 -337c0 -20 -4.83301 -37.333 -14.5 -52s-23.834 -22 -42.501 -22c-27.333 0 -46.166 24.833 -56.499 74.5s-15.5 117.5 -15.5 203.5l6 312l1 117l4 120l-14 462c0 16 5.66699 30.167 17 42.5s25 18.5 41 18.5c43.333 0 65 -40.667 65 -122z" />
    <glyph glyph-name="i" unicode="i" horiz-adv-x="551" 
d="M357 23l-77.001 -1.00098l-89 -4c-38 0 -63.333 12.333 -76 37c0 20 2.5 35.5 7.5 46.5s15.5 16.5 31.5 16.5h58l4 27l-14 435l11 456c0 76.667 -3.33301 149.334 -10 218.001h-79.5c-24.333 0 -42.166 3.83301 -53.499 11.5s-17 22.167 -17 43.5c0 32 37 47.667 111 47
h7c175.333 0 263 -23.333 263 -70c0 -7.33301 -4 -20 -12 -38h-105c5.33301 -50 8 -108.667 8 -176l-11 -391l15 -435v-61c0 -12 -2.33301 -30.333 -7 -55h87c56 0 84 -17 84 -51c0 -15.333 -4.83301 -28.333 -14.5 -39s-20.5 -16 -32.5 -16z" />
    <glyph glyph-name="j" unicode="j" horiz-adv-x="569" 
d="M370 290l3 -175.998c0 -130 -23.667 -221.333 -71 -274c-43.333 -48.667 -109.666 -80 -198.999 -94l-61 61c88 55.333 146.5 108 175.5 158s43.5 124 43.5 222l-18 1046v9c-14.667 0 -35 2.33301 -61 7s-43 8.66699 -51 12s-16.333 7.33301 -25 12
c-16.667 8.66699 -25 20.667 -25 36s7.66699 27.5 23 36.5s33.5 13.5 54.5 13.5s58.167 -3.33301 111.5 -10s107.166 -18.834 161.499 -36.501s81.5 -37.5 81.5 -59.5c0 -14.667 -5.5 -26.334 -16.5 -35.001s-23.833 -13 -38.5 -13s-34.667 3.16699 -60 9.5
s-40.333 9.83301 -45 10.5v-17l20 -826z" />
    <glyph glyph-name="k" unicode="k" horiz-adv-x="696" 
d="M250 1288l-17 -373.001v-107c4 7.33301 29 61.333 75 162c115.333 249.333 187.333 374 216 374c20 0 38.167 -4.66699 54.5 -14s24.5 -23 24.5 -41c0 -1.33301 -34.667 -59.166 -104 -173.499s-108 -179.833 -116 -196.5l-4 -122c0 -58.667 23.5 -168.334 70.5 -329.001
s86.167 -267 117.5 -319c4 -6 12.833 -18.333 26.5 -37s23.667 -35 30 -49s9.5 -28.667 9.5 -44s-5.83301 -28.166 -17.5 -38.499s-25.167 -15.5 -40.5 -15.5c-32 0 -65.333 33.833 -100 101.5s-65.667 150.5 -93 248.5c-46 167.333 -79.667 313 -101 437
c-22.667 -23.333 -40.167 -54.5 -52.5 -93.5s-18.5 -65.833 -18.5 -80.5v-561c0 -32 -15 -48 -45 -48c-20.667 0 -37.167 5.83301 -49.5 17.5s-18.5 27.5 -18.5 47.5v622c0 74 6.5 184.5 19.5 331.5s19.5 257.167 19.5 330.5c12 26 29.333 39 52 39c41.333 0 62 -23 62 -69z
" />
    <glyph glyph-name="l" unicode="l" horiz-adv-x="522" 
d="M219 1148l5.99902 -491.999c-8 -19.333 -12 -56.333 -12 -111l-8 -326c0 -94 23 -141 69 -141l85 3c73.333 0 110 -20 110 -60c0 -14.667 -6.33301 -26.834 -19 -36.501s-27 -15.5 -43 -17.5c-50 16 -111 24 -183 24c-22 -12.667 -43.167 -19 -63.5 -19
s-36.166 7 -47.499 21s-17 29.333 -17 46l20 915v15c-4 42.667 -6 106.667 -6 192c0 129.333 23.667 194 71 194c14 0 26.167 -5 36.5 -15s15.5 -22 15.5 -36z" />
    <glyph glyph-name="m" unicode="m" horiz-adv-x="878" 
d="M206 89l2.99805 -61.0039c0 -22 -4.5 -38.833 -13.5 -50.5s-23.5 -17.5 -43.5 -17.5s-36.333 4.83301 -49 14.5s-18.667 23.667 -18 42s8.5 189.333 23.5 513s22.5 567.5 22.5 731.5c2 34.667 7.33301 57.834 16 69.501s21 18.167 37 19.5s26.667 0.666016 32 -2.00098
s10.166 -7.16699 14.499 -13.5s8 -12.166 11 -17.499s5.83301 -13.5 8.5 -24.5l6 -25c1.33301 -5.66699 3 -14.667 5 -27l6 -36c2 -11.667 12 -59 30 -142s37.833 -190 59.5 -321s46.834 -297.167 75.501 -498.5c42 224.667 78.333 437.667 109 639
s46.834 308.333 48.501 321s3 22 4 28s2.83301 15 5.5 27s5.16699 21.333 7.5 28s5.83301 14.5 10.5 23.5s9.66699 15.833 15 20.5c12.667 12 27.667 18 45 18s34 -5 50 -15s24 -23.667 24 -41c0 -313.333 2.83301 -530.333 8.5 -651s8.5 -193.334 8.5 -218.001l-2 -330
c6 -14.667 9 -30.167 9 -46.5s-5.33301 -33.833 -16 -52.5s-24.667 -28 -42 -28c-42.667 0 -64 42.667 -64 128l3 189c0 132.667 -1.33301 251.334 -4 356.001c2 62 3 224 3 486l-86 -515l-58.5 -342.5c-2.33301 -13 -4.16602 -25.5 -5.49902 -37.5
s-2.66602 -22.333 -3.99902 -31s-3.83301 -18.667 -7.5 -30s-7.83398 -20.666 -12.501 -27.999c-11.333 -18 -27.333 -27 -48 -27c-40 0 -64 29.333 -72 88c-10.667 83.333 -32.5 229.833 -65.5 439.5s-57.5 350.834 -73.5 423.501
c-10.667 -467.333 -16 -792.666 -16 -975.999z" />
    <glyph glyph-name="n" unicode="n" horiz-adv-x="769" 
d="M211 808l12.002 -530.001v-232c0 -18 -4.66699 -33.167 -14 -45.5s-22.333 -18.5 -39 -18.5c-44.667 0 -67 41.667 -67 125l-4 722l12 382c0 92 25 138 75 138c30 0 51.667 -23 65 -69c18.667 -88 51.167 -214.5 97.5 -379.5s78.166 -290.5 95.499 -376.5
c12.667 -42 29 -104.167 49 -186.5s35.667 -144.166 47 -185.499c5.33301 296 8 654.667 8 1076l-3 55c0 18.667 3.5 33.5 10.5 44.5s18.833 16.5 35.5 16.5s30.334 -4 41.001 -12c21.333 -16 32 -38.667 32 -68c0 -187.333 -5.33301 -428 -16 -722
s-26.667 -477.667 -48 -551c-2.66699 -0.666992 -8.33398 -2.5 -17.001 -5.5s-15 -4.83301 -19 -5.5c-38 -8.66699 -62 -7 -72 5s-17.167 28 -21.5 48s-9.33301 39.5 -15 58.5s-26.834 109.833 -63.501 272.5c-98 430 -158.333 680 -181 750v-306z" />
    <glyph glyph-name="o" unicode="o" horiz-adv-x="669" 
d="M190 1033l3 -120.001l-1 -196c0 -16.667 0.333008 -36.334 1 -59.001s1.5 -52.5 2.5 -89.5s3 -73.667 6 -110s6.5 -74.666 10.5 -114.999s9.33301 -77.666 16 -111.999s14 -65.5 22 -93.5c18 -60.667 41.667 -91 71 -91c39.333 0 69.333 37 90 111
c30.667 110 46 245.333 46 406l3 211c0 148 -6.5 247.667 -19.5 299s-25.167 90 -36.5 116c-22.667 52.667 -57 79 -103 79h-4c-71.333 0 -107 -78.667 -107 -236zM570 550.999c0 -392.667 -80.335 -588.997 -241.002 -588.997c-148 0 -231 186 -249 558
c-1.33301 35.333 -2 70.666 -2 105.999l-1 125v40c0 288.667 42.333 467 127 535c20.667 16.667 43.667 25.667 69 27c19.333 -6.66699 43 -12.834 71 -18.501s48.667 -11.5 62 -17.5c24.667 -11.333 51.334 -40.833 80.001 -88.5s49.834 -111.334 63.501 -191.001
s20.5 -159.5 20.5 -239.5v-247z" />
    <glyph glyph-name="p" unicode="p" horiz-adv-x="540" 
d="M226 1115l-11 -398.999v-3c82.667 11.333 124 126.666 124 345.999c0 80 -17.667 131.333 -53 154c-16 10 -36 15 -60 15v-113zM111 885.001l2.99902 195c0 80.667 -5.66699 144 -17 190c3.33301 17.333 9.83301 33.666 19.5 48.999s21.834 23 36.501 23h90
c78.667 0 134 -32.667 166 -98c28 -58 42 -124.667 42 -200c0 -95.333 -2.33301 -153.833 -7 -175.5s-9.66699 -42.167 -15 -61.5s-11.833 -35 -19.5 -47s-17.5 -25.167 -29.5 -39.5s-25.667 -26.5 -41 -36.5c-34 -22 -75 -40.667 -123 -56v-219l16 -388
c0 -17.333 -6 -31.666 -18 -42.999s-26.667 -17 -44 -17h-50c-8 37.333 -12 93 -12 167l-5 524z" />
    <glyph glyph-name="q" unicode="q" horiz-adv-x="654" 
d="M283 1288c-20 0 -37.6689 -25.832 -53.002 -77.499s-26.666 -113.834 -33.999 -186.501c-12.667 -136 -19 -230 -19 -282s0.166992 -87 0.5 -105s0.833008 -48.333 1.5 -91s2.16699 -81 4.5 -115s5.33301 -73.333 9 -118s8.83398 -83.667 15.501 -117s14 -65.333 22 -96
c17.333 -62.667 42 -94 74 -94c18 8 37 12 57 12c13.333 0 28 34.667 44 104c38 166 57 367.333 57 604c0 265.333 -31.333 437.333 -94 516c-24 30.667 -52.333 46 -85 46zM503.998 -433.999v2.00098c-74 0 -124.333 15.667 -151 47c0 62 -4.66699 118 -14 168
c-16 86.667 -25.667 138.334 -29 155.001c-78 18.667 -131.333 54 -160 106c-48 89.333 -72 326 -72 710c0 320 44.667 516 134 588c22.667 18 48 27 76 27c10 -4.66699 26 -9.5 48 -14.5s41.833 -11.667 59.5 -20s36.5 -23.833 56.5 -46.5s36.167 -49.5 48.5 -80.5
s22.333 -62 30 -93s13.5 -65.833 17.5 -104.5c5.33301 -60.667 8 -126.667 8 -198c0 -520.667 -50 -807.667 -150 -861c0 -50.667 7 -107.834 21 -171.501s21.667 -98.834 23 -105.501c69.333 0 104 -19.333 104 -58c0 -14 -4.83301 -25.833 -14.5 -35.5
s-21.5 -14.5 -35.5 -14.5z" />
    <glyph glyph-name="r" unicode="r" horiz-adv-x="557" 
d="M201 606c-9.33301 -38 -13.998 -73.1689 -13.998 -105.502s4.16699 -101.333 12.5 -207s12.5 -173.834 12.5 -204.501s-5.5 -54 -16.5 -70s-23.5 -24 -37.5 -24c-20 0 -32.667 13.667 -38 41c1.33301 50.667 2 112.834 2 186.501s-5.83301 235.5 -17.5 485.5
s-17.5 436.667 -17.5 560c0 64.667 22.667 97 68 97c71.333 0 131.333 -18.667 180 -56s73 -90.666 73 -159.999c0 -93.333 -7.33301 -166 -22 -218s-42.334 -117 -83.001 -195c7.33301 -32.667 20.333 -98 39 -196c39.333 -212 83.666 -365 132.999 -459
c14 -26.667 21 -47.5 21 -62.5s-4.16699 -27.667 -12.5 -38s-19.5 -15.5 -33.5 -15.5c-44.667 0 -85.667 74.333 -123 223c-16 64.667 -30.333 130 -43 196c-36 180.667 -59 282.334 -69 305.001c0 -17.333 -4.66699 -45 -14 -83zM198.002 1289l-6.99902 -28.999
c0 -56 1.33301 -136.833 4 -242.5s4 -182.5 4 -230.5c32 16.667 57.833 60.167 77.5 130.5s29.5 124.166 29.5 161.499s-1 64.833 -3 82.5s-6.33301 37.167 -13 58.5c-12.667 44.667 -43.334 67.667 -92.001 69z" />
    <glyph glyph-name="s" unicode="s" horiz-adv-x="500" 
d="M75 86l108.001 -14.9932c26 0 48.667 11.333 68 34s33.666 51 42.999 85c18 65.333 27 123.166 27 173.499s-8.33301 100.166 -25 149.499s-37 95.166 -61 137.499l-73 129.5c-57.333 103.333 -86 205.333 -86 306c0 61.333 10.333 115.666 31 162.999
c38.667 88 90 132 154 132c24 0 46.833 -7.66699 68.5 -23s32.5 -32 32.5 -50c0 -31.333 -16.667 -47 -50 -47c-14.667 0 -29 4 -43 12c-43.333 -2 -72.666 -50.333 -87.999 -145c-3.33301 -20.667 -5 -44.834 -5 -72.501s6 -61.834 18 -102.501
s27.167 -76.834 45.5 -108.501l59 -105l59.5 -111.5c42 -83.333 63 -178.666 63 -285.999c0 -85.333 -17 -164.333 -51 -237c-18 -37.333 -43.5 -67.833 -76.5 -91.5s-71.167 -35.834 -114.5 -36.501v-5c-25.333 3.33301 -48.333 11.833 -69 25.5s-32.334 31.5 -35.001 53.5
v35z" />
    <glyph glyph-name="t" unicode="t" horiz-adv-x="552" 
d="M279 190l4.00098 70.002c-5.33301 17.333 -16.333 171.5 -33 462.5s-25.667 468.5 -27 532.5c-78.667 2 -127.334 9.16699 -146.001 21.5s-28 25.166 -28 38.499s7.33301 24.166 22 32.499s29 12.5 43 12.5l278 -19l33 1c42.667 0 64 -16.333 64 -49
c0 -16.667 -7 -30.167 -21 -40.5s-29.667 -15.5 -47 -15.5l-94 14l-4 -21c0 -129.333 11.333 -323 34 -581s34 -452 34 -582c0 -16.667 -6.16699 -31 -18.5 -43s-26.833 -18 -43.5 -18h-46z" />
    <glyph glyph-name="u" unicode="u" horiz-adv-x="698" 
d="M581 913l2.00195 -34.999c-10 -48 -16.5 -130.5 -19.5 -247.5s-8.83301 -211.333 -17.5 -283s-20.334 -134.667 -35.001 -189s-38.167 -99.5 -70.5 -135.5s-68.333 -54 -108 -54s-72.167 7.16699 -97.5 21.5s-46 35 -62 62s-29.333 56 -40 87s-18.667 66.833 -24 107.5
c-9.33301 71.333 -14 146.666 -14 225.999l11 540c0 118 -8.33301 215.667 -25 293v49c32.667 0 58.5 -12.667 77.5 -38s28.5 -53.666 28.5 -84.999v-991c0 -52.667 13.167 -100.834 39.5 -144.501s65.166 -65.5 116.499 -65.5c58 0 96.667 168.667 116 506v9l1 13
c17.333 308 26 557.333 26 748l-1 34c0 16 3.66699 28 11 36s21.333 12 42 12s36 -5.66699 46 -17s15.833 -22.833 17.5 -34.5s2.5 -27.5 2.5 -47.5l-14 -206z" />
    <glyph glyph-name="v" unicode="v" horiz-adv-x="732" 
d="M607 1378c31.333 0 47.001 -9 47.001 -27c0 -76.667 -16.333 -173.167 -49 -289.5s-52.5 -196 -59.5 -239s-14.5 -106.167 -22.5 -189.5s-14.5 -141.166 -19.5 -173.499s-14 -72.666 -27 -120.999s-21 -81 -24 -98s-5.33301 -38.333 -7 -64
s-3.83398 -48.5 -6.50098 -68.5s-7 -40.667 -13 -62c-14 -46.667 -42 -70 -84 -70l-46 31c0 166 -15.833 335.333 -47.5 508s-62.667 317.667 -93 435s-50.833 191.666 -61.5 222.999c-24 74 -36 120 -36 138s5.16699 31.667 15.5 41s22.333 14 36 14
s26.167 -5.66699 37.5 -17s20.333 -27.333 27 -48s12 -39.834 16 -57.501s7.83301 -38 11.5 -61s6.16699 -37.5 7.5 -43.5c69.333 -316 124 -613.333 164 -892c10.667 54 23.167 142.667 37.5 266s41 286.833 80 490.5s62.5 328.5 70.5 374.5h46z" />
    <glyph glyph-name="w" unicode="w" horiz-adv-x="841" 
d="M752 1329c0 32 -19.1689 48.0068 -57.502 48.0068s-57.5 -16.667 -57.5 -50c0 -11.333 2.33301 -23 7 -35c0 -34.667 -5.16699 -86 -15.5 -154s-15.5 -119.333 -15.5 -154c0 -260.667 -11.333 -486.334 -34 -677.001c-8 62 -16.667 150.333 -26 265
c-20.667 251.333 -48 441.666 -82 570.999v17c0 16 -5.33301 28.333 -16 37s-23.667 13 -39 13h-55c-1.33301 -25.333 -6 -79.666 -14 -162.999s-12 -143.5 -12 -180.5s-1 -72.833 -3 -107.5s-4 -64.834 -6 -90.501s-5.66699 -59.5 -11 -101.5s-9.33301 -72.167 -12 -90.5
l-15 -100.5l-14 -93c-3.33301 93.333 -19.333 241.5 -48 444.5s-43 354 -43 453s-22 148.5 -66 148.5c-28 0 -47.667 -12 -59 -36c25.333 -56.667 39.833 -114.5 43.5 -173.5s6.5 -113.167 8.5 -162.5s4.16699 -89.833 6.5 -121.5s9.33301 -85.334 21 -161.001
s18.667 -122.834 21 -141.501s4.33301 -52.5 6 -101.5s4.33398 -98.167 8.00098 -147.5s8.83398 -100 15.501 -152c15.333 -116.667 43.333 -175 84 -175c29.333 0 50.666 31 63.999 93c12.667 55.333 20.5 103.666 23.5 144.999s5.83301 72.166 8.5 92.499
s10 70.5 22 150.5c26 165.333 39 279.333 39 342s2 116.667 6 162c10 -72 20 -176 30 -312s17.333 -225 22 -267s10.334 -83.333 17.001 -124c16.667 -94.667 25 -157.667 25 -189s1.33301 -53.333 4 -66c7.33301 -35.333 23.333 -53 48 -53c50 0 75 69.333 75 208
c0 27.333 3.33301 56.666 10 87.999c35.333 166.667 53 389.667 53 669v150c1.33301 32 7 81 17 147s15.333 111.333 16 136z" />
    <glyph glyph-name="x" unicode="x" horiz-adv-x="531" 
d="M158 951.5c-34.667 155.667 -60 244.838 -76 267.505v22c-11.333 11.333 -17 26 -17 44c0 32.667 20.333 49 61 49c16 0 28.833 -5.5 38.5 -16.5s15.667 -22.667 18 -35s4.5 -28.5 6.5 -48.5s4.83301 -39 8.5 -57s13.5 -60.667 29.5 -128s27.667 -119 35 -155
c2.66699 16 9.33398 51.333 20.001 106c20 107.333 30 180.666 30 219.999c0 84 20.667 124 62 120c18.667 -1.33301 28.667 -11.333 30 -30c1.33301 -12.667 1.33301 -31 0 -55s-2 -41.667 -2 -53v-93c-17.333 -46.667 -37 -124.167 -59 -232.5s-33 -186 -33 -233
s12.167 -111.333 36.5 -193l73 -235c24.333 -75 36.5 -124.333 36.5 -148s-5.5 -40.334 -16.5 -50.001s-24 -14.5 -39 -14.5s-30.5 4.66699 -46.5 14l-47 202.5c-22 93 -38 164.167 -48 213.5c-3.33301 -18.667 -9.33301 -69.334 -18 -152.001
s-19.334 -145.334 -32.001 -188.001c0.666992 -4.66699 1 -12.667 1 -24c0 -50.667 -17.667 -76 -53 -76c-15.333 0 -29.5 4.16699 -42.5 12.5s-19.5 19.833 -19.5 34.5c0 87.333 19.167 190.666 57.5 309.999s57.5 210.5 57.5 273.5s-17.333 172.333 -52 328z" />
    <glyph glyph-name="y" unicode="y" horiz-adv-x="580" 
d="M379 109c0 -66.667 -9 -108.334 -27 -125.001c-9.33301 -8 -23.833 -12 -43.5 -12s-36.167 15 -49.5 45c15.333 30 23 145.667 23 347c0 38 -2.66699 91.5 -8 160.5s-8.33301 115.5 -9 139.5c-26.667 46 -67.834 151.833 -123.501 317.5s-83.5 267.834 -83.5 306.501v11
l46 34c42 -1.33301 92 -107 150 -317c25.333 -92 38 -138.333 38 -139c5.33301 14.667 16 65.667 32 153c40.667 221.333 83.334 332 128.001 332c12.667 0 24.167 -4 34.5 -12s15.5 -18.333 15.5 -31c0 -84 -20.5 -182.167 -61.5 -294.5s-61.5 -211.833 -61.5 -298.5v-617z
" />
    <glyph glyph-name="z" unicode="z" horiz-adv-x="550" 
d="M216 107l86.002 3.99805v1c55.333 0 83 -16.667 83 -50c0 -16.667 -7.33301 -29.167 -22 -37.5s-31 -12.5 -49 -12.5l-121 6c-8.66699 0 -20.667 -3.66699 -36 -11s-29 -11 -41 -11s-23.5 5 -34.5 15s-16.5 23.667 -16.5 41s3.83301 42.5 11.5 75.5
s19.167 74.667 34.5 125l32 107c6 21 16.5 67.167 31.5 138.5s27.5 126.166 37.5 164.499s28.667 97.5 56 177.5c62.667 180 96 318.667 100 416l-167 -12c-14.667 0 -27.167 5.83301 -37.5 17.5s-15.5 24.834 -15.5 39.501c0 38.667 69.333 58 208 58h7
c53.333 0 85.166 -6.16699 95.499 -18.5s15.5 -25.166 15.5 -38.499c0 -48 -14.833 -113.167 -44.5 -195.5s-48.834 -150.166 -57.501 -203.499s-29 -131 -61 -233s-60.833 -200.667 -86.5 -296s-40.167 -184.333 -43.5 -267h35z" />
    <glyph glyph-name="braceleft" unicode="{" horiz-adv-x="600" 
d="M384 39l121.002 23.002c5.33301 0 9.5 -5.83301 12.5 -17.5s4.5 -23.334 4.5 -35.001s-8 -22.834 -24 -33.501c-25.333 -16 -58.333 -24 -99 -24c-77.333 0 -130.333 20.833 -159 62.5s-43 102.834 -43 183.501v423c0 50.667 -12.333 80.667 -37 90
c-19.333 7.33301 -37.833 11.333 -55.5 12s-30 4.33398 -37 11.001s-10.5 18.167 -10.5 34.5s4.83301 28.166 14.5 35.499s21.167 11.333 34.5 12s26.666 2.66699 39.999 6c33.333 6.66699 50 38 50 94l-10 214c0 49.333 4.33301 81.333 13 96c-3.33301 20 -5 38 -5 54
c0 62.667 17.667 114.167 53 154.5s86 60.5 152 60.5c43.333 0 78 -6.5 104 -19.5s39 -26.667 39 -41s-5.83301 -25.5 -17.5 -33.5s-24.834 -12 -39.501 -12l-101 19c-65.333 0 -98 -83.667 -98 -251l8 -210c0 -88 -12 -147.667 -36 -179
c24.667 -30.667 37 -79.334 37 -146.001v-430c0 -57.333 5 -94 15 -110c17.333 -28.667 42 -43 74 -43z" />
    <glyph glyph-name="bar" unicode="|" horiz-adv-x="341" 
d="M223 1533l7 -1154v-408c0 -14 -5.66699 -26 -17 -36s-24 -15 -38 -15c-34 0 -51 64.667 -51 194l-14 1396c0 49.333 23.667 74 71 74c12 0 22 -5.33301 30 -16s12 -22.334 12 -35.001z" />
    <glyph glyph-name="braceright" unicode="}" horiz-adv-x="595" 
d="M218 1408l-121.001 -23c-5.33301 0 -9.5 5.83301 -12.5 17.5s-4.5 23.334 -4.5 35.001s8 22.5 24 32.5c25.333 16.667 58.333 25 99 25c76 0 128.667 -21 158 -63s44 -103 44 -183v-373c0 -57.333 15.333 -89.333 46 -96c12.667 -3.33301 25.334 -5.33301 38.001 -6
c30.667 -1.33301 46 -15.666 46 -42.999c0 -32 -15 -48.667 -45 -50c-12.667 -0.666992 -25.334 -2.33398 -38.001 -5.00098c-30.667 -6.66699 -46 -38.334 -46 -95.001l8 -251c0 -60.667 -3.66699 -97 -11 -109c2.66699 -16.667 4 -35 4 -55
c0 -62.667 -17.5 -114 -52.5 -154s-85.5 -60 -151.5 -60c-43.333 0 -78 6.5 -104 19.5s-39 26.667 -39 41s5.83301 25.5 17.5 33.5s24.834 12 39.501 12l101 -19c65.333 0 98 83.333 98 250l-10 245c0 98 12.667 163 38 195c-24.667 31.333 -37 80 -37 146l10 252
c0 187.333 -33 281 -99 281z" />
    <glyph glyph-name="exclamdown" unicode="&#xa1;" horiz-adv-x="346" 
d="M131 699l-8 339.001c0 73.333 3.33301 134.666 10 183.999c6 18.667 15.333 28 28 28c18 0 31.833 -20.333 41.5 -61s14.5 -100 14.5 -178s6.83301 -236.5 20.5 -475.5s20.5 -418.167 20.5 -537.5c0 -14 -4.83301 -25.833 -14.5 -35.5s-23.5 -14.5 -41.5 -14.5
s-36 7.83301 -54 23.5s-27 34.167 -27 55.5zM220.5 1424c-15 -19.333 -34.5 -29 -58.5 -29s-44.667 8.83301 -62 26.5s-26 37.5 -26 59.5v6c2.66699 56.667 28.667 85 78 85c26.667 0 48.5 -6.5 65.5 -19.5s25.5 -32.833 25.5 -59.5s-7.5 -49.667 -22.5 -69z" />
    <glyph glyph-name="cent" unicode="&#xa2;" horiz-adv-x="666" 
d="M250 1254l-12.0039 113.997c0 58.667 18 88 54 88c16.667 -10.667 26.5 -20.5 29.5 -29.5s4.5 -27 4.5 -54s3.33301 -66.5 10 -118.5c6 -2 17.167 -5.16699 33.5 -9.5s29.5 -8 39.5 -11s22.5 -7.66699 37.5 -14s27.167 -12.833 36.5 -19.5c22 -16 34.333 -36 37 -60v-5
c0 -11.333 -4.5 -22.666 -13.5 -33.999s-20 -17 -33 -17s-25.667 5.5 -38 16.5s-21.5 24.167 -27.5 39.5h-58c26.667 -354 42.834 -561.833 48.501 -623.5s8 -95.5 7 -101.5s-1.5 -10.167 -1.5 -12.5s0.666992 -6.16602 2 -11.499c36.667 1.33301 64.334 12 83.001 32
c23.333 24.667 46.333 54 69 88c39.333 0 59 -20 59 -60c0 -35.333 -25 -68.333 -75 -99s-95.667 -47.667 -137 -51v-79l14 -194c0 -13.333 -4.83301 -24.666 -14.5 -33.999s-20.834 -14 -33.501 -14c-21.333 21.333 -32 49.666 -32 84.999l-8 137
c0 16.667 -2.33301 53.667 -7 111c-61.333 22 -103.666 45 -126.999 69s-41 43.667 -53 59s-21.667 34.333 -29 57s-13.166 42.5 -17.499 59.5s-7.5 39.833 -9.5 68.5c-2.66699 38 -4 83.333 -4 136s0.5 92.834 1.5 120.501s4.5 62.5 10.5 104.5s14.667 77.667 26 107
c26.667 70.667 69.334 124 128.001 160zM261.996 1150c-28 -36.667 -48.167 -90 -60.5 -160s-18.5 -136.667 -18.5 -200c0 -241.333 48 -369.333 144 -384c-7.33301 147.333 -29 395.333 -65 744z" />
    <glyph glyph-name="sterling" unicode="&#xa3;" horiz-adv-x="764" 
d="M606 27l-100 7.00098h-66c-65.333 24.667 -108.166 37 -128.499 37s-51.166 -8.33301 -92.499 -25s-73.666 -31.334 -96.999 -44.001v4c-14.667 1.33301 -28 6 -40 14s-18 20.667 -18 38s7.16699 32 21.5 44s33.5 22.5 57.5 31.5s40.667 17.167 50 24.5
c20.667 16 36.167 47.667 46.5 95s15.5 93.333 15.5 138s-5.16699 92.5 -15.5 143.5s-26.5 112.833 -48.5 185.5s-36.333 121.667 -43 147c-12.667 2 -23.167 7.83301 -31.5 17.5s-12.5 23 -12.5 40s9 30.833 27 41.5c-0.666992 28 -5 72.333 -13 133s-12 105 -12 133
s0.833008 55.667 2.5 83s5.5 60.833 11.5 100.5s13.833 74.667 23.5 105s23.834 56.5 42.501 78.5s40.334 33 65.001 33h65c24.667 0 50.5 -14.167 77.5 -42.5s48.667 -60.5 65 -96.5s24.5 -66 24.5 -90v-9l-32 -35c-28 0 -45.333 4.83301 -52 14.5s-10.667 15.167 -12 16.5
c-2 3.33301 -7.66699 14 -17 32v37c-8 16 -14 32.667 -18 50c-15.333 16.667 -35 26.667 -59 30v-20c-14 -16.667 -32.167 -56.334 -54.5 -119.001s-33.5 -106 -33.5 -130c0 -136 6.33301 -234 19 -294c21.333 0.666992 54.666 5.16699 99.999 13.5s77.666 12.5 96.999 12.5
s34.166 -4.83301 44.499 -14.5s15.5 -21.667 15.5 -36s-6.33301 -26.333 -19 -36s-29.334 -16.334 -50.001 -20.001s-41 -6.16699 -61 -7.5s-40.833 -2.16602 -62.5 -2.49902s-36.167 -1.16602 -43.5 -2.49902c7.33301 -40 20.666 -93 39.999 -159
c44.667 -151.333 67 -266.666 67 -345.999c0 -42.667 -7.33301 -86.334 -22 -131.001s-23 -70.667 -25 -78c26 -2 68.5 -9.83301 127.5 -23.5s105.667 -20.5 140 -20.5s64.5 6.33301 90.5 19l49 -35c0 -54.667 -35.333 -82 -106 -82z" />
    <glyph glyph-name="currency" unicode="&#xa4;" horiz-adv-x="899" 
d="M328 1052c0 -28.667 -11.666 -43.001 -34.999 -43.001c-12 0 -24.667 -40.667 -38 -122s-20 -145 -20 -191l5 -27l-5 -84c0 -78 18.667 -132.667 56 -164c0 -77.333 52 -116 156 -116c37.333 0 70.666 12.167 99.999 36.5s52.333 54.166 69 89.499
s30.334 75.666 41.001 120.999c17.333 74.667 26 140.834 26 198.501s-6.33301 120.5 -19 188.5s-27.334 112 -44.001 132c-14.667 2.66699 -27 9.83398 -37 21.501s-15.667 24.834 -17 39.501c-30.667 32.667 -73.334 49 -128.001 49c-12 0 -30.667 -10 -56 -30
s-43.666 -37 -54.999 -51v-14zM684.001 250.999l-0.000976562 42.002c-32.667 -28 -74.5 -49.667 -125.5 -65s-105.167 -23 -162.5 -23s-115.666 28.333 -174.999 85c-17.333 -37.333 -32.166 -61.5 -44.499 -72.5s-27.5 -16.5 -45.5 -16.5s-32.5 7.16699 -43.5 21.5
s-16.5 29.666 -16.5 45.999s5.5 31.666 16.5 45.999s24.167 29 39.5 44s25.333 26.167 30 33.5c-21.333 40 -32 98.333 -32 175c0 269.333 24 439.666 72 510.999c-4 8 -21.167 27.167 -51.5 57.5s-45.5 53.333 -45.5 69s4.83301 28 14.5 37s19.167 13.5 28.5 13.5
s17.166 -0.833008 23.499 -2.5s11.833 -3.33398 16.5 -5.00098s9.83398 -4.83398 15.501 -9.50098l13 -10.5c3 -2.33301 7.33301 -6.83301 13 -13.5s9.5 -11 11.5 -13c11.333 -14 18.333 -23.667 21 -29c1.33301 1.33301 9.83301 10.833 25.5 28.5s28.167 31.167 37.5 40.5
c28 29.333 52 44 72 44c80 0 157 -23 231 -69c5.33301 6.66699 15.833 23.667 31.5 51s31 48.166 46 62.499s32.833 21.5 53.5 21.5l53 -47c-2 -28 -26 -70 -72 -126c-15.333 -18.667 -23 -31 -23 -37c0 -40 15 -100.5 45 -181.5s45 -143.167 45 -186.5
s-11.167 -106.166 -33.5 -188.499s-33.5 -145.166 -33.5 -188.499c0 -20 12.833 -44.667 38.5 -74s38.5 -52.666 38.5 -69.999s-4.83301 -31.166 -14.5 -41.499s-22.834 -15.5 -39.501 -15.5s-32.667 4.83301 -48 14.5s-24 23.5 -26 41.5z" />
    <glyph glyph-name="yen" unicode="&#xa5;" horiz-adv-x="938" 
d="M254 1057l98.9971 -4.99707c34.667 0 67.334 2.33301 98.001 7v12c-21.333 33.333 -57 94.333 -107 183c-127.333 222.667 -224.333 373 -291 451c-6 12 -9 22.667 -9 32c0 24.667 20.667 37 62 37c52 0 150.667 -131.333 296 -394
c60.667 -108.667 93.334 -166.334 98.001 -173.001c6 15.333 19.667 60.5 41 135.5l62.5 214.5c20.333 68 44.5 130.833 72.5 188.5s53 86.5 75 86.5c15.333 0 28.833 -5.16699 40.5 -15.5s17.5 -23.166 17.5 -38.499v-10l-58 -156
c-55.333 -146.667 -89.833 -246.834 -103.5 -300.501s-28.167 -102.834 -43.5 -147.501s-25.666 -79.667 -30.999 -105l178 7c84.667 0 127 -20.333 127 -61c0 -32 -37.667 -48 -113 -48h-198v-70l196 2c73.333 0 110 -23 110 -69c0 -11.333 -5.83301 -20.833 -17.5 -28.5
s-24.5 -11.5 -38.5 -11.5c-70 0 -155 -1.33301 -255 -4c0 -69.333 -5.16699 -174.333 -15.5 -315s-15.5 -247 -15.5 -319l1 -48c0 -30.667 -4.66699 -55.334 -14 -74.001s-24.666 -28 -45.999 -28c-48 0 -72 16 -72 48v5c11.333 29.333 21.166 136 29.499 320
s12.5 320 12.5 408h-236c-18.667 0.666992 -33.667 7.66699 -45 21s-17 28.833 -17 46.5s8 29.167 24 34.5c90 0 184 2.66699 282 8c1.33301 16 2 41 2 75h-148c-87.333 0 -131 17.333 -131 52c0 31.333 27 47 81 47z" />
    <glyph glyph-name="brokenbar" unicode="&#xa6;" horiz-adv-x="331" 
d="M159 695c40.667 0 61 -24.666 61 -73.999v-637c0 -42.667 -16.333 -64 -49 -64c-14 0 -26.167 5 -36.5 15s-15.5 22 -15.5 36v673c0 13.333 3.66699 25.166 11 35.499s17 15.5 29 15.5zM114 1020l-8 490c0 49.333 23.667 74 71 74c28.667 0 43 -63.667 43 -191v-516
c0 -14 -5.66699 -26 -17 -36s-24 -15 -38 -15c-34 0 -51 64.667 -51 194z" />
    <glyph glyph-name="section" unicode="&#xa7;" horiz-adv-x="505" 
d="M167 1018c-38.667 80 -58 165.669 -58 257.002c0 112 54.333 168 163 168c19.333 0 40.666 -4.33301 63.999 -13s35 -21 35 -37s-6.16699 -26.833 -18.5 -32.5s-27.333 -8.66699 -45 -9s-35.5 -1.16602 -53.5 -2.49902s-33.167 -7.83301 -45.5 -19.5
s-18.5 -33.834 -18.5 -66.501s8.16699 -69.5 24.5 -110.5s36.333 -79.167 60 -114.5l71.5 -110c56 -89.333 84 -187.333 84 -294c0 -74.667 -29.667 -131 -89 -169c49.333 -77.333 74 -150.333 74 -219c0 -86.667 -27.333 -155.334 -82 -206.001
c-28.667 -26 -58.167 -39 -88.5 -39s-56.166 7.83301 -77.499 23.5s-32 32.167 -32 49.5c0 31.333 16.667 47 50 47c13.333 0 27 -4 41 -12c27.333 0.666992 49 17.667 65 51s24 65.5 24 96.5s-5.83301 61.833 -17.5 92.5s-26.5 58.167 -44.5 82.5l-57.5 81l-57.5 85.5
c-41.333 64 -62 138.667 -62 224s30.333 150.666 91 195.999zM314.5 745.002l-20.5 48.5c-3.33301 7.66699 -9.5 19.334 -18.5 35.001l-18 31.5c-3 5.33301 -9.83301 16.666 -20.5 33.999l-19 31c-28 -36 -42 -74 -42 -114s6 -75.667 18 -107c16 -42 45.667 -93.667 89 -155
c31.333 28 47 61.5 47 100.5s-5.16699 70.833 -15.5 95.5z" />
    <glyph glyph-name="dieresis" unicode="&#xa8;" horiz-adv-x="754" 
d="M536 975c-12.667 14 -19.002 30.333 -19.002 49s7.33301 35.667 22 51s31.334 23 50.001 23s34.834 -7.5 48.501 -22.5s20.5 -32.333 20.5 -52s-7.66699 -36.167 -23 -49.5s-32.5 -20 -51.5 -20s-34.833 7 -47.5 21zM212.498 975c-17 -14 -35.333 -21 -55 -21
s-34.667 6.33301 -45 19s-15.5 29 -15.5 49s6.66699 37.167 20 51.5s29.833 21.5 49.5 21.5s36.5 -6.66699 50.5 -20s21 -29.833 21 -49.5s-8.5 -36.5 -25.5 -50.5z" />
    <glyph glyph-name="copyright" unicode="&#xa9;" horiz-adv-x="1233" 
d="M527 372c27.333 -26.667 56.0039 -39.999 86.0039 -39.999s55.167 5.66699 75.5 17s36.166 23.666 47.499 36.999c30.667 36 57.667 54 81 54s40.166 -6.83301 50.499 -20.5s15.5 -31.834 15.5 -54.501s-15.333 -45.667 -46 -69
c-60.667 -47.333 -128.334 -71 -203.001 -71c-225.333 0 -338 196 -338 588v12c0 209.333 17.333 363 52 461c25.333 68.667 51.333 115.667 78 141c52 48 107.667 72 167 72s119 -24.5 179 -73.5s90 -99.167 90 -150.5c0 -14 -5.16699 -26.167 -15.5 -36.5
s-24.5 -15.5 -42.5 -15.5s-34.667 5.66699 -50 17s-27.833 25 -37.5 41l-28.5 48c-22.667 38.667 -51.334 58 -86.001 58s-67 -28.333 -97 -85c-60.667 -115.333 -91 -277.666 -91 -486.999c0 -130.667 16 -242 48 -334c16 -46 37.667 -82.333 65 -109zM207.004 1052.5
c-2 -38.333 -3.00098 -75.335 -3.00098 -111.002s1 -72 3 -109s4.83301 -80.5 8.5 -130.5s7.66699 -112 12 -186s13.833 -138.667 28.5 -194c42 -160.667 143.667 -241 305 -241c134.667 0 240 33.167 316 99.5s130.333 160.833 163 283.5v430c0 36 -6.33301 79 -19 129
s-22.834 93.5 -30.501 130.5s-18.5 77.833 -32.5 122.5s-32.333 91.334 -55 140.001c-45.333 98 -115.666 178.667 -210.999 242c-54 36.667 -100.167 55 -138.5 55s-75.5 -10.667 -111.5 -32s-66 -48.833 -90 -82.5s-45.333 -74 -64 -121s-33.167 -93.833 -43.5 -140.5
s-18.666 -96.167 -24.999 -148.5s-10.5 -97.666 -12.5 -135.999zM197.003 158.999c-45.333 74 -74.998 192.666 -88.998 355.999s-21 284 -21 362s1.16699 140.167 3.5 186.5s7.5 99.833 15.5 160.5s18.5 117.167 31.5 169.5s31 104.833 54 157.5s49.833 97.667 80.5 135
c68 84 155.667 126 263 126c195.333 0 347.666 -102 456.999 -306c83.333 -155.333 134.666 -348.666 153.999 -579.999c5.33301 -58.667 8 -115 8 -169c0 -518 -188.333 -777 -565 -777c-189.333 0 -320 59.667 -392 179z" />
    <glyph glyph-name="ordfeminine" unicode="&#xaa;" horiz-adv-x="692" 
d="M365 817l-54.001 -2.00195c-9.33301 4 -30.666 8 -63.999 12l-52 -175c-24 -89.333 -39.333 -137.166 -46 -143.499s-15.834 -5 -27.501 4s-17.5 17.833 -17.5 26.5c27.333 44.667 89 268.667 185 672c10 91.333 18.333 143 25 155l28 -2c16.667 0 29 4 37 12
c8.66699 0 17 -2.83301 25 -8.5s12 -13.167 12 -22.5l134 -679c11.333 -60 17 -102.167 17 -126.5s-5.33301 -39.5 -16 -45.5c-28 0 -45.167 4 -51.5 12s-9.5 20.833 -9.5 38.5s-1.16699 39.334 -3.5 65.001s-4.66602 46.167 -6.99902 61.5s-6.33301 39.5 -12 72.5
s-9.16699 54.167 -10.5 63.5c-26 6.66699 -56.667 10 -92 10zM262.999 891.998l74 -16c56.667 -5.33301 89.667 -10 99 -14h21l-98 420c-37.333 -166.667 -69.333 -296.667 -96 -390zM557.999 392.998c0 -4.66699 -44.333 -8.83398 -133 -12.501s-150 -5.5 -184 -5.5
s-55.667 3.16699 -65 9.5s-14 14.833 -14 25.5c0 4.66699 44.667 8.83398 134 12.501s161.333 5.5 216 5.5c10.667 0 21 -3.5 31 -10.5s15 -15.167 15 -24.5z" />
    <glyph glyph-name="guillemotleft" unicode="&#xab;" horiz-adv-x="728" 
d="M388 1485l19.0029 3.99902c16 0 30.5 -4.33301 43.5 -13s19.833 -20.667 20.5 -36c-31.333 -72 -77.833 -193.667 -139.5 -365s-113.167 -300.666 -154.5 -387.999c13.333 -66.667 77 -194 191 -382c110.667 -182.667 166 -288.667 166 -318
c0 -14.667 -6.83301 -26 -20.5 -34s-27.834 -12 -42.501 -12s-55.334 56.5 -122.001 169.5s-130.5 231.833 -191.5 356.5s-91.5 198 -91.5 220s18.5 79.667 55.5 173l125 306.5c46.333 111 73.166 175.833 80.499 194.5c2 18 9.33301 39.333 22 64s25.667 44 39 58v2z
M563.003 1447l6.99805 -1.00293l45 -35c-11.333 -89.333 -57.666 -214 -138.999 -374c-79.333 -154.667 -119 -266.334 -119 -335.001c0 -10 45.833 -107.333 137.5 -292s149.5 -298.334 173.5 -341.001c-0.666992 -6 -0.666992 -13 0 -21s0.666992 -16 0 -24
s-1.66699 -15.333 -3 -22c-2.66699 -16 -12.167 -24 -28.5 -24s-28.5 1.33301 -36.5 4c-21.333 6.66699 -141.333 245.334 -360 716.001c1.33301 37.333 36.666 131.333 105.999 282s106.5 234.834 111.5 252.501s9.83301 36.334 14.5 56.001s9.33398 36.834 14.001 51.501
s10.667 31.334 18 50.001c16.667 38 36.334 57 59.001 57z" />
    <glyph glyph-name="logicalnot" unicode="&#xac;" horiz-adv-x="993" 
d="M696 733l-545.999 -22.001c-14 0 -26 5.16699 -36 15.5s-15 22.5 -15 36.5c0 48 72.667 72 218 72l177 -7l323 20c16.667 0 32 -5.66699 46 -17s21 -27.166 21 -47.499s-6.33301 -41.5 -19 -63.5c0 -72 8 -133 24 -183c-2 -16 -7.83301 -30.333 -17.5 -43
s-21.834 -19 -36.501 -19c-42 0 -63 39 -63 117l2 67c0 27.333 -1.66699 50 -5 68z" />
    <glyph glyph-name="uni00AD" unicode="&#xad;" horiz-adv-x="648" 
d="M525 781.5c14 -11 21 -25 21 -42s-16.167 -31.667 -48.5 -44s-72.166 -20.833 -119.499 -25.5c-85.333 -9.33301 -154.333 -14 -207 -14c-17.333 0 -32.833 5.66699 -46.5 17s-20.5 25.333 -20.5 42s16.167 31 48.5 43s72.166 20.667 119.499 26
c82 9.33301 150.667 14 206 14c17.333 0 33 -5.5 47 -16.5z" />
    <glyph glyph-name="registered" unicode="&#xae;" horiz-adv-x="1161" 
d="M670 1298c0 151.333 -34.666 226.999 -103.999 226.999c-40.667 0 -68.334 -10.167 -83.001 -30.5s-22 -49.5 -22 -87.5l8 -144c0 -115.333 7.66699 -203 23 -263c118.667 50.667 178 141.334 178 272.001v26zM534.001 209.999c0 -44.667 -18.333 -66.999 -55 -66.999
c-18.667 0 -35.5 6.16699 -50.5 18.5s-22.5 30.333 -22.5 54s-5.66699 64.667 -17 123s-17 102.166 -17 131.499v984c0 73.333 15.333 122 46 146c28.667 23.333 76 35 142 35c151.333 0 227 -121.667 227 -365c0 -112.667 -27.667 -195.667 -83 -249
c-12 -12 -23.167 -22.167 -33.5 -30.5s-16.5 -15.5 -18.5 -21.5c2 -50.667 60.333 -269 175 -655c0 -14.667 5.83301 -34.167 17.5 -58.5s17.5 -42.833 17.5 -55.5s-6.33301 -25.334 -19 -38.001s-24.667 -19 -36 -19c-42.667 0 -85.667 79.667 -129 239
c-25.333 92 -51.5 198.833 -78.5 320.5s-44.167 192.167 -51.5 211.5h-53c-3.33301 -53.333 -5 -102.666 -5 -147.999s7.33301 -133 22 -263s22 -227.667 22 -293zM624.001 1832c-275.333 0 -412.999 -292.667 -412.999 -878c0 -516 44.667 -825 134 -927
c13.333 -15.333 35 -32.833 65 -52.5s49 -32.5 57 -38.5h59v-20c157.333 2 270.666 74 339.999 216c64.667 132.667 97 328.667 97 588s-10 461 -30 605c-46.667 337.333 -149.667 506.333 -309 507zM784.502 -150c-50.333 -26.667 -108.664 -39.9971 -174.997 -39.9971
s-126.666 11.167 -180.999 33.5s-99.333 50.5 -135 84.5s-66.5 78.5 -92.5 133.5s-45.833 107.833 -59.5 158.5s-24.167 111.334 -31.5 182.001c-11.333 102 -17 191.333 -17 268v163c-2 34.667 -2.33301 73.167 -1 115.5s2.16602 86.833 2.49902 133.5
s3.16602 94.667 8.49902 144s11.333 98.333 18 147s17 96.5 31 143.5s29.667 91.5 47 133.5s39.333 80.5 66 115.5s56 65.167 88 90.5c68 54.667 153.333 82 256 82c56.667 0 111.167 -17.333 163.5 -52s97.166 -78.334 134.499 -131.001
c61.333 -36.667 109.666 -225.667 144.999 -567c16.667 -156.667 25 -276.334 25 -359.001s-0.333008 -144.5 -1 -185.5s-4 -100.667 -10 -179s-14.5 -143 -25.5 -194s-27.833 -108.333 -50.5 -172s-50 -114.334 -82 -152.001s-73.167 -69.834 -123.5 -96.501z" />
    <glyph glyph-name="macron" unicode="&#xaf;" horiz-adv-x="652" 
d="M196 800l144 4c138.667 0 208 -18.333 208 -55c0 -30 -22 -45 -66 -45l-148 -4c-152 0 -228 18.667 -228 56c0 29.333 30 44 90 44z" />
    <glyph glyph-name="degree" unicode="&#xb0;" horiz-adv-x="704" 
d="M334 901c-39.333 0 -71.335 -12.668 -96.002 -38.001c-41.333 -42.667 -62 -108.667 -62 -198c0 -32 16.167 -65 48.5 -99s67 -51 104 -51s68.333 5.5 94 16.5s45.834 24.667 60.501 41s26.667 34.833 36 55.5c15.333 34 23 63.833 23 89.5s-3.16699 47.5 -9.5 65.5
s-16.666 36.333 -30.999 55s-36 33.834 -65 45.501s-63.167 17.5 -102.5 17.5zM161.998 901.999c42 45.333 96.332 68.0029 162.999 68.0029c120 0 203.333 -38.667 250 -116c23.333 -38.667 35 -73.334 35 -104.001s-2.16699 -57.334 -6.5 -80.001s-13 -48.167 -26 -76.5
s-29.5 -53.5 -49.5 -75.5c-47.333 -53.333 -114.666 -80 -201.999 -80c-44 0 -81.667 9.66699 -113 29s-55 44.666 -71 75.999c-28.667 58 -43 121 -43 189s21 124.667 63 170z" />
    <glyph glyph-name="plusminus" unicode="&#xb1;" horiz-adv-x="745" 
d="M303 705l-11.999 150.001c0 75.333 22 113 66 113c16 0 30 -5.83301 42 -17.5s18 -25.5 18 -41.5v-25c0 -4 -0.166992 -14.167 -0.5 -30.5s-0.333008 -32.333 0 -48s0.833008 -31.834 1.5 -48.501c1.33301 -37.333 7.33301 -56 18 -56l119 8
c70.667 0 106 -20.667 106 -62c0 -16 -5.66699 -29.333 -17 -40s-25 -16 -41 -16l-121 11c-43.333 0 -65 -16.333 -65 -49l19 -164c0 -16.667 -6.83301 -30.167 -20.5 -40.5s-28.834 -15.5 -45.501 -15.5s-32 4.83301 -46 14.5s-21 22.167 -21 37.5l6 199v15l-133 -9
c-58 0 -87 21.667 -87 65c0 14 4.16699 26.333 12.5 37s19.5 16 33.5 16l121 -7c17.333 0 33 1.33301 47 4zM603.001 145.001l-431.999 -9.99902c-54.667 0 -82 21.667 -82 65c0 14 4.16699 25.167 12.5 33.5s19.5 12.5 33.5 12.5h427
c49.333 0 78.166 -5.83301 86.499 -17.5s12.5 -23.834 12.5 -36.501c0 -31.333 -19.333 -47 -58 -47z" />
    <glyph glyph-name="uni00B2" unicode="&#xb2;" horiz-adv-x="578" 
d="M443 4l-312 -18.998c-19.333 0 -36.666 5.66699 -51.999 17s-23 26.333 -23 45v8c28.667 34 52.667 78.833 72 134.5s33 92.167 41 109.5c78 172.667 136 331 174 475s57 299.667 57 467s-32.667 253.666 -98 258.999c-22 -12 -37.333 -44.667 -46 -98
c-7.33301 -50 -27.5 -75 -60.5 -75s-49.5 21 -49.5 63c0 66 19.333 120 58 162c20.667 22.667 45.334 34 74.001 34v1c71.333 0 122.666 -22 153.999 -66c24 -32.667 39 -62 45 -88s10.167 -46.667 12.5 -62s4.16602 -35 5.49902 -59c2 -36 3 -73 3 -111
c0 -118 -14.833 -251.5 -44.5 -400.5s-67.5 -275.167 -113.5 -378.5c-8 -18.667 -32 -67.834 -72 -147.501s-67.667 -142.5 -83 -188.5c82.667 14 160 21 232 21c33.333 -8 50 -23.333 50 -46c0 -16 -8 -35 -24 -57z" />
    <glyph glyph-name="uni00B3" unicode="&#xb3;" horiz-adv-x="600" 
d="M234 865l-0.00195312 23.9971c0 20.667 14 47.334 42 80.001c52 62 78 122.333 78 181c0 52.667 -4.66699 107 -14 163c-18 109.333 -49 164 -93 164c-16.667 0 -30.5 -6.16699 -41.5 -18.5s-18.833 -25.666 -23.5 -39.999s-12.834 -27.666 -24.501 -39.999
s-26 -18.5 -43 -18.5s-30.833 5.5 -41.5 16.5s-17.334 24.167 -20.001 39.5c18.667 46 44.834 83.667 78.501 113s71.834 44 114.501 44s79.667 -17 111 -51c29.333 -0.666992 53.166 -52.667 71.499 -156s27.5 -174.5 27.5 -213.5s-3.16699 -68.167 -9.5 -87.5
s-12.666 -34.166 -18.999 -44.499s-17.166 -26.5 -32.499 -48.5l-31 -45c84 -50 138.333 -191.667 163 -425c5.33301 -50.667 8 -94.334 8 -131.001s-0.666992 -66.834 -2 -90.501s-4.16602 -51.5 -8.49902 -83.5s-11.333 -59.667 -21 -83s-22.167 -46 -37.5 -68
c-30.667 -44 -78.334 -66 -143.001 -66c-51.333 0 -89.333 10.5 -114 31.5s-37 42.5 -37 64.5v13h34c7.33301 -1.33301 16.833 -2.5 28.5 -3.5s20.5 -1.83301 26.5 -2.5c14 -1.33301 29.333 -7.66602 46 -18.999c83.333 3.33301 125 80 125 230c0 200 -18 344.667 -54 434
c-18 44 -41.667 84.333 -71 121c-2.66699 -0.666992 -9.16699 -1 -19.5 -1s-28.166 5.66699 -53.499 17z" />
    <glyph glyph-name="acute" unicode="&#xb4;" horiz-adv-x="530" 
d="M159 1285c-46 0 -69 17.999 -69 53.999v2c1.33301 26.667 62 82.334 182 167.001c47.333 34 76 55.667 86 65c52 0 78 -18.667 78 -56c0 -0.666992 -3 -17 -9 -49c-44 -18 -91.5 -44.5 -142.5 -79.5s-92.833 -69.5 -125.5 -103.5z" />
    <glyph glyph-name="uni00B5" unicode="&#xb5;" horiz-adv-x="686" 
d="M533 913l1.99805 -35.001c-10.667 -51.333 -17.167 -134.5 -19.5 -249.5s-7.66602 -208.333 -15.999 -280s-19.666 -134.667 -33.999 -189s-37.333 -99.5 -69 -135.5s-69.667 -54.167 -114 -54.5s-81.5 13.5 -111.5 41.5c2 -59.333 3 -117.333 3 -174s-21 -85 -63 -85
c-14 0 -25.167 4.16699 -33.5 12.5s-12.5 19.5 -12.5 33.5v301l-7 376v9l11 529c0 118 -8.33301 215.667 -25 293v49c32.667 0 58.5 -12.667 77.5 -38s28.5 -53.666 28.5 -84.999v-991c0 -74.667 21 -133 63 -175c23.333 -23.333 52 -35 86 -35c26 0 48.333 40.333 67 121
c30.667 132.667 46 254.334 46 365.001s4.33301 249.167 13 415.5s13 291.166 13 374.499l-1 34c0 16 3.66699 28 11 36s21.333 12 42 12s36 -5.66699 46 -17s15.833 -22.833 17.5 -34.5s2.5 -27.5 2.5 -47.5l-14 -206z" />
    <glyph glyph-name="uni00B5" unicode="&#x3bc;" horiz-adv-x="686" 
d="M533 913l1.99805 -35.001c-10.667 -51.333 -17.167 -134.5 -19.5 -249.5s-7.66602 -208.333 -15.999 -280s-19.666 -134.667 -33.999 -189s-37.333 -99.5 -69 -135.5s-69.667 -54.167 -114 -54.5s-81.5 13.5 -111.5 41.5c2 -59.333 3 -117.333 3 -174s-21 -85 -63 -85
c-14 0 -25.167 4.16699 -33.5 12.5s-12.5 19.5 -12.5 33.5v301l-7 376v9l11 529c0 118 -8.33301 215.667 -25 293v49c32.667 0 58.5 -12.667 77.5 -38s28.5 -53.666 28.5 -84.999v-991c0 -74.667 21 -133 63 -175c23.333 -23.333 52 -35 86 -35c26 0 48.333 40.333 67 121
c30.667 132.667 46 254.334 46 365.001s4.33301 249.167 13 415.5s13 291.166 13 374.499l-1 34c0 16 3.66699 28 11 36s21.333 12 42 12s36 -5.66699 46 -17s15.833 -22.833 17.5 -34.5s2.5 -27.5 2.5 -47.5l-14 -206z" />
    <glyph glyph-name="paragraph" unicode="&#xb6;" horiz-adv-x="935" 
d="M558 1854c14.667 14.667 30.167 21.998 46.5 21.998s47.166 -5.66699 92.499 -17v-1h54v-4c28.667 -1.33301 57.834 -7.16602 87.501 -17.499s44.5 -25.833 44.5 -46.5c0 -36.667 -26.667 -53.667 -80 -51l14 -597l-12 -877l12 -229c0 -16 -5.66699 -29.333 -17 -40
s-25 -16 -41 -16c-49.333 0 -74 41 -74 123l18 1074l-14 446l3 66c0 53.333 -20 80 -60 80c-5.33301 0 -8 -33.167 -8 -99.5s4.16699 -178.166 12.5 -335.499s12.5 -281.166 12.5 -371.499s-6 -237.166 -18 -440.499s-18 -356 -18 -458c0 -24 -4.16699 -42 -12.5 -54
s-22.666 -18 -42.999 -18s-36.333 6.16699 -48 18.5s-17.5 27.5 -17.5 45.5c0 101.333 7.16699 252.666 21.5 453.999s21.5 352.666 21.5 453.999l-4 134c-143.333 0 -251.666 18.667 -324.999 56c-29.333 15.333 -56 37.333 -80 66c-28 32.667 -46 75.667 -54 129
c-2.66699 15.333 -5.66699 27 -9 35c0 122 18.333 214 55 276c39.333 66 94.666 112.333 165.999 139s162.666 45 273.999 55zM533 1200l-20 497v43c-18 5.33301 -44.667 8 -80 8c-70.667 0 -131 -30.833 -181 -92.5s-75.333 -128.5 -76 -200.5c0 -138 56 -219 168 -243
c48.667 -10.667 106.667 -16 174 -16z" />
    <glyph glyph-name="periodcentered" unicode="&#xb7;" horiz-adv-x="361" 
d="M126.5 655.5c-13.667 15 -20.5 32.333 -20.5 52s7.66699 37.5 23 53.5s33 24 53 24s37.333 -8 52 -24s22 -34.5 22 -55.5s-7.66699 -38.333 -23 -52s-33.5 -20.5 -54.5 -20.5s-38.333 7.5 -52 22.5z" />
    <glyph glyph-name="cedilla" unicode="&#xb8;" horiz-adv-x="461" 
d="M112 -157c12.667 25.333 18.999 62.665 18.999 111.998v47h112c-7.33301 -38 -11.666 -69 -12.999 -93c52 -10 89.833 -36 113.5 -78s35.5 -88.5 35.5 -139.5s-18.667 -96.333 -56 -136s-74.166 -59.5 -110.499 -59.5s-66.166 6.83301 -89.499 20.5
s-35 29.834 -35 48.501s4.66699 32.334 14 41.001s23.166 13 41.499 13s37.166 -6.66699 56.499 -20c10 0.666992 20.167 8.16699 30.5 22.5s15.5 26.833 15.5 37.5s-1.16699 21.5 -3.5 32.5s-5.83301 23.5 -10.5 37.5s-7.66699 24.333 -9 31l35 -35v9
c0 24 -5.66699 41.333 -17 52c-22 -3.33301 -39.667 -5 -53 -5s-25.333 4.16699 -36 12.5s-24 24.833 -40 49.5z" />
    <glyph glyph-name="uni00B9" unicode="&#xb9;" horiz-adv-x="602" 
d="M389 96c32 4 57.001 5.99902 75.001 5.99902v1c57.333 0 86 -17 86 -51c0 -40 -77.667 -60 -233 -60l-61 -1c-25.333 0 -45.5 3.66699 -60.5 11s-22.5 22.333 -22.5 45v44c43.333 -3.33301 67.333 -5 72 -5c30 0 45 11.333 45 34c0 206.667 -11.667 474.667 -35 804
c-2 28.667 -5.66699 69 -11 121c-10.667 114.667 -16 202.334 -16 263.001l3 75c0 64 -23.667 96 -71 96l-47 -2c-38.667 0 -58 14.667 -58 44c0 36 55 54 165 54c48 0 78 -11.333 90 -34c-2.66699 -4.66699 -2.83398 -19 -0.500977 -43s3.5 -47.667 3.5 -71
s5.16699 -76.666 15.5 -159.999s15.5 -162.333 15.5 -237s7.5 -219.834 22.5 -435.501s22.5 -377.5 22.5 -485.5v-13z" />
    <glyph glyph-name="ordmasculine" unicode="&#xba;" horiz-adv-x="729" 
d="M607 826c0 -108 -49.334 -195.667 -148.001 -263c-24 -16.667 -51 -25 -81 -25c-161.333 0 -242 116.333 -242 349c0 20.667 0.833008 46 2.5 76s14.834 115.667 39.501 257c7.33301 40.667 29.333 72 66 94c20.667 12.667 48.334 19 83.001 19s73 -3.66699 115 -11
c27.333 -4.66699 53.666 -31 78.999 -79c54 -86.667 82.667 -225.667 86 -417zM201.999 954c2.66699 -237.333 58.333 -356.001 167 -356.001c116.667 0 175 81.333 175 244c0 202.667 -21.333 325.334 -64 368.001c-55.333 56 -100.333 84 -135 84
c-83.333 0 -131 -113.333 -143 -340zM551.998 448.999c0 -4.66699 -44.167 -8.83398 -132.5 -12.501s-149.5 -5.5 -183.5 -5.5s-55.667 3.16699 -65 9.5s-14 14.833 -14 25.5c0 4.66699 44.667 8.83398 134 12.501s161.333 5.5 216 5.5c10 0 20 -3.5 30 -10.5
s15 -15.167 15 -24.5z" />
    <glyph glyph-name="guillemotright" unicode="&#xbb;" horiz-adv-x="755" 
d="M348 1490l15.002 -4.00098v-1c14.667 -14.667 28.667 -34 42 -58s21.333 -45.333 24 -64c6.66699 -17.333 33.334 -82 80.001 -194c120 -288 180 -445.167 180 -471.5s-30.5 -102 -91.5 -227s-124.667 -244 -191 -357s-107 -169.5 -122 -169.5s-29.333 4 -43 12
s-20.5 20 -20.5 36s17.167 55.333 51.5 118s72.5 128.667 114.5 198c114.667 190 178.667 317 192 381c-40 84 -77 182.333 -111 295c-60.667 206 -122.334 355.667 -185.001 449c1.33301 16.667 8.16602 30.334 20.499 41.001s27.166 16 44.499 16zM155.002 -19.001
l-42 -4.00098c-16.667 0 -29.667 7.5 -39 22.5s-14.333 31.5 -15 49.5l202.5 384c88.333 170 132.5 259.667 132.5 269c0 68 -30 161.333 -90 280c-74.667 145.333 -121 243.666 -139 294.999s-27.333 96 -28 134l45 35v-2c29.333 -14 49.333 -32.333 60 -55
s17.334 -37.667 20.001 -45c6.66699 -16 15 -43.167 25 -81.5s49.667 -132.166 119 -281.499s104.666 -243.666 105.999 -282.999z" />
    <glyph glyph-name="onequarter" unicode="&#xbc;" horiz-adv-x="1561" 
d="M389 96c32 4 56.001 5.99902 72.001 5.99902v1c55.333 0 83 -17 83 -51c0 -40 -75.667 -60 -227 -60l-61 -1c-25.333 0 -45.5 3.66699 -60.5 11s-22.5 22.333 -22.5 45v44c43.333 -3.33301 67.333 -5 72 -5c30 0 45 11.333 45 34c0 206.667 -11.667 474.667 -35 804
c-2 28.667 -5.66699 69 -11 121c-10.667 114.667 -16 202.334 -16 263.001l3 75c0 64 -23.667 96 -71 96l-47 -2c-38.667 0 -58 14.667 -58 44c0 36 55 54 165 54c48 0 78 -11.333 90 -34c-2.66699 -4.66699 -2.83398 -19 -0.500977 -43s3.5 -47.667 3.5 -71
s5.16699 -76.666 15.5 -159.999s15.5 -162.333 15.5 -237s7.5 -219.834 22.5 -435.501s22.5 -377.5 22.5 -485.5v-13zM609.001 29.999c0 90.667 20.999 226.333 62.999 407s90.667 373.834 146 579.501s87 330.167 95 373.5s13 70 15 80l4 22
c5.33301 26.667 13 43.5 23 50.5s20.167 10.5 30.5 10.5s20.666 -4.66699 30.999 -14s15.5 -22.5 15.5 -39.5s-2.16699 -36.167 -6.5 -57.5s-10.166 -45.333 -17.499 -72c-28.667 -99.333 -75.667 -304.666 -141 -615.999s-100.833 -483.5 -106.5 -516.5
s-11.167 -61.833 -16.5 -86.5s-12.666 -52.334 -21.999 -83.001c-18.667 -66 -41.667 -99 -69 -99c-29.333 19.333 -44 39.666 -44 60.999zM1305 490.998l-108.997 -11.0039v-1c-26 0 -53 11 -81 33c0 30.667 3 57 9 79c-6 32 -9 70.833 -9 116.5s5.16699 115.5 15.5 209.5
s15.5 163 15.5 207v379c0 26.667 13 40 39 40c15.333 0 29.166 -4.66699 41.499 -14s18.5 -21.666 18.5 -36.999l-9 -159c0 -28 2.66699 -52.667 8 -74v-7c0.666992 -6 1 -40.167 1 -102.5s-4.66699 -151.333 -14 -267s-14 -192 -14 -229s1 -62.833 3 -77.5
c22 0.666992 46.333 4.33398 73 11.001c-1.33301 231.333 -6.83301 379.666 -16.5 444.999s-14.5 106.5 -14.5 123.5s6.66699 29.667 20 38s27.666 12.5 42.999 12.5l42 -36v-129c0 -189.333 8.66699 -337.666 26 -444.999l59 5c40.667 0 61 -14.667 61 -44
c0 -20 -5.83301 -33.333 -17.5 -40s-30.834 -10 -57.501 -10s-40 -6 -40 -18c0 -199.333 5 -310.666 15 -333.999c-2.66699 -16 -4 -30.5 -4 -43.5s3.33301 -24.833 10 -35.5v-37c0 -51.333 -16.333 -77 -49 -77c-20.667 0 -36 10.5 -46 31.5s-15 42.833 -15 65.5v7
c4.66699 16 7 40.667 7 74l-15 199c0 32.667 2.66699 62.334 8 89.001c0 23.333 -1.33301 44.333 -4 63z" />
    <glyph glyph-name="onehalf" unicode="&#xbd;" horiz-adv-x="1610" 
d="M389 96c32 4 56.001 5.99902 72.001 5.99902v1c55.333 0 83 -17 83 -51c0 -40 -75.667 -60 -227 -60l-61 -1c-25.333 0 -45.5 3.66699 -60.5 11s-22.5 22.333 -22.5 45v44c43.333 -3.33301 67.333 -5 72 -5c30 0 45 11.333 45 34c0 206.667 -11.667 474.667 -35 804
c-2 28.667 -5.66699 69 -11 121c-10.667 114.667 -16 202.334 -16 263.001l3 75c0 64 -23.667 96 -71 96l-47 -2c-38.667 0 -58 14.667 -58 44c0 36 55 54 165 54c48 0 78 -11.333 90 -34c-2.66699 -4.66699 -2.83398 -19 -0.500977 -43s3.5 -47.667 3.5 -71
s5.16699 -76.666 15.5 -159.999s15.5 -162.333 15.5 -237s7.5 -219.834 22.5 -435.501s22.5 -377.5 22.5 -485.5v-13zM609.001 29.999c0 90.667 20.999 226.333 62.999 407s90.667 373.834 146 579.501s87 330.167 95 373.5s13 70 15 80l4 22
c5.33301 26.667 13 43.5 23 50.5s20.167 10.5 30.5 10.5s20.666 -4.66699 30.999 -14s15.5 -22.5 15.5 -39.5s-2.16699 -36.167 -6.5 -57.5s-10.166 -45.333 -17.499 -72c-28.667 -99.333 -75.667 -304.666 -141 -615.999s-100.833 -483.5 -106.5 -516.5
s-11.167 -61.833 -16.5 -86.5s-12.666 -52.334 -21.999 -83.001c-18.667 -66 -41.667 -99 -69 -99c-29.333 19.333 -44 39.666 -44 60.999zM1475 3.99805l-306.997 -18.9971c-18.667 0 -35.334 5.66699 -50.001 17s-22 26.333 -22 45v8c26 32.667 48.5 77 67.5 133
s32.5 93 40.5 111c76.667 174 133.834 332.667 171.501 476s56.5 298.666 56.5 465.999s-32.667 253.666 -98 258.999c-22 -12 -37.333 -44.667 -46 -98c-7.33301 -50 -26.833 -75 -58.5 -75s-47.5 21 -47.5 63c0 66 18.667 120 56 162c20.667 22.667 44.667 34 72 34v1
c71.333 0 122.666 -22 153.999 -66c24 -32.667 39 -62 45 -88s10.167 -46.667 12.5 -62s4.16602 -35 5.49902 -59c2 -36 3 -73 3 -111c0 -118 -14.833 -251.5 -44.5 -400.5s-67.5 -275.167 -113.5 -378.5c-5.33301 -12 -28.333 -59.333 -69 -142
s-68.334 -147.334 -83.001 -194.001c80 14 156.333 21 229 21l62 -52z" />
    <glyph glyph-name="threequarters" unicode="&#xbe;" horiz-adv-x="1556" 
d="M234 865l-0.00195312 23.9971c0 20.667 14 47.334 42 80.001c52 62 78 122.333 78 181c0 52.667 -4.66699 107 -14 163c-18 109.333 -49 164 -93 164c-16.667 0 -30.5 -6.16699 -41.5 -18.5s-18.833 -25.666 -23.5 -39.999s-12.834 -27.666 -24.501 -39.999
s-26 -18.5 -43 -18.5s-30.833 5.5 -41.5 16.5s-17.334 24.167 -20.001 39.5c18.667 46 44.834 83.667 78.501 113s71.834 44 114.501 44s79.667 -17 111 -51c29.333 -0.666992 53.166 -52.667 71.499 -156s27.5 -174.5 27.5 -213.5s-3.16699 -68.167 -9.5 -87.5
s-12.666 -34.166 -18.999 -44.499s-17.166 -26.5 -32.499 -48.5l-31 -45c84 -50 138.333 -191.667 163 -425c5.33301 -50.667 8 -94.334 8 -131.001s-0.666992 -66.834 -2 -90.501s-4.16602 -51.5 -8.49902 -83.5s-11.333 -59.667 -21 -83s-22.167 -46 -37.5 -68
c-30.667 -44 -78.334 -66 -143.001 -66c-51.333 0 -89.333 10.5 -114 31.5s-37 42.5 -37 64.5v13h34c7.33301 -1.33301 16.833 -2.5 28.5 -3.5s20.5 -1.83301 26.5 -2.5c14 -1.33301 29.333 -7.66602 46 -18.999c83.333 3.33301 125 80 125 230c0 200 -18 344.667 -54 434
c-18 44 -41.667 84.333 -71 121c-2.66699 -0.666992 -9.16699 -1 -19.5 -1s-28.166 5.66699 -53.499 17zM603.998 29.9971c0 90.667 21 226.335 63 407.002s90.667 373.834 146 579.501s87 330.167 95 373.5s13 70 15 80l5 22c4.66699 26.667 12 43.5 22 50.5
s20.167 10.5 30.5 10.5s20.833 -4.66699 31.5 -14s16 -22.5 16 -39.5s-2.16699 -36.167 -6.5 -57.5s-10.5 -45.333 -18.5 -72c-26 -84.667 -72.333 -286.334 -139 -605.001s-102.834 -494.5 -108.501 -527.5s-11.167 -61.833 -16.5 -86.5s-12.333 -52.334 -21 -83.001
c-19.333 -66 -42.666 -99 -69.999 -99c-29.333 19.333 -44 39.666 -44 60.999zM1300 490.998l-108.997 -11.0029v-1c-26 0 -53 11 -81 33c0 30.667 3 57 9 79c-6 32 -9 70.833 -9 116.5s5.16699 115.5 15.5 209.5s15.5 163 15.5 207v379c0 26.667 13 40 39 40
c15.333 0 29.166 -4.66699 41.499 -14s18.5 -21.666 18.5 -36.999l-9 -159c0 -28 2.66699 -52.667 8 -74v-7c0.666992 -6 1 -40.167 1 -102.5s-4.66699 -151.333 -14 -267s-14 -192 -14 -229s1 -62.833 3 -77.5c22 0.666992 46.333 4.33398 73 11.001
c-1.33301 231.333 -6.83301 379.666 -16.5 444.999s-14.5 106.5 -14.5 123.5s6.66699 29.667 20 38s27.666 12.5 42.999 12.5l42 -36v-129c0 -189.333 8.66699 -337.666 26 -444.999l59 5c40.667 0 61 -14.667 61 -44c0 -20 -5.83301 -33.333 -17.5 -40
s-30.834 -10 -57.501 -10s-40 -6 -40 -18c0 -199.333 5 -310.666 15 -333.999c-2.66699 -16 -4 -30.5 -4 -43.5s3.33301 -24.833 10 -35.5v-37c0 -51.333 -16.333 -77 -49 -77c-20.667 0 -36 10.5 -46 31.5s-15 42.833 -15 65.5v7c4.66699 16 7 40.667 7 74l-14 199
c0 36 2.33301 65.667 7 89c0 23.333 -1.33301 44.333 -4 63z" />
    <glyph glyph-name="questiondown" unicode="&#xbf;" horiz-adv-x="1161" 
d="M670 1298c0 151.333 -34.666 226.999 -103.999 226.999c-40.667 0 -68.334 -10.167 -83.001 -30.5s-22 -49.5 -22 -87.5l8 -144c0 -115.333 7.66699 -203 23 -263c118.667 50.667 178 141.334 178 272.001v26zM534.001 209.999c0 -44.667 -18.333 -66.999 -55 -66.999
c-18.667 0 -35.5 6.16699 -50.5 18.5s-22.5 30.333 -22.5 54s-5.66699 64.667 -17 123s-17 102.166 -17 131.499v984c0 73.333 15.333 122 46 146c28.667 23.333 76 35 142 35c151.333 0 227 -121.667 227 -365c0 -112.667 -27.667 -195.667 -83 -249
c-12 -12 -23.167 -22.167 -33.5 -30.5s-16.5 -15.5 -18.5 -21.5c2 -50.667 60.333 -269 175 -655c0 -14.667 5.83301 -34.167 17.5 -58.5s17.5 -42.833 17.5 -55.5s-6.33301 -25.334 -19 -38.001s-24.667 -19 -36 -19c-42.667 0 -85.667 79.667 -129 239
c-25.333 92 -51.5 198.833 -78.5 320.5s-44.167 192.167 -51.5 211.5h-53c-3.33301 -53.333 -5 -102.666 -5 -147.999s7.33301 -133 22 -263s22 -227.667 22 -293zM624.001 1832c-275.333 0 -412.999 -292.667 -412.999 -878c0 -516 44.667 -825 134 -927
c13.333 -15.333 35 -32.833 65 -52.5s49 -32.5 57 -38.5h59v-20c157.333 2 270.666 74 339.999 216c64.667 132.667 97 324 97 574c0 188.667 -8.16699 359.667 -24.5 513s-48.5 298.666 -96.5 435.999v15c-20.667 32.667 -54.5 67.834 -101.5 105.501
s-85.833 56.5 -116.5 56.5zM784.502 -150c-50.333 -26.667 -108.664 -39.9971 -174.997 -39.9971s-126.666 11.167 -180.999 33.5s-99.333 50.5 -135 84.5s-66.5 78.5 -92.5 133.5s-45.833 107.833 -59.5 158.5s-24.167 111.334 -31.5 182.001
c-11.333 102 -17 191.333 -17 268v163c-2 34.667 -2.33301 73.167 -1 115.5s2.16602 86.833 2.49902 133.5s3.16602 94.667 8.49902 144s11.333 98.333 18 147s17 96.5 31 143.5s29.667 91.5 47 133.5s39.333 80.5 66 115.5s56 65.167 88 90.5c68 54.667 153.333 82 256 82
c56.667 0 111.167 -17.333 163.5 -52s97.166 -78.334 134.499 -131.001c61.333 -36.667 109.666 -225.667 144.999 -567c16.667 -156.667 25 -276.334 25 -359.001s-0.333008 -144.5 -1 -185.5s-4 -100.667 -10 -179s-14.5 -143 -25.5 -194s-27.833 -108.333 -50.5 -172
s-50 -114.334 -82 -152.001s-73.167 -69.834 -123.5 -96.501z" />
    <glyph glyph-name="Agrave" unicode="&#xc0;" horiz-adv-x="709" 
d="M215 1760c-14.667 -1.33301 -26.333 -1.99609 -35 -1.99609c-59.333 0 -89 20.667 -89 62c0 34 9.33301 56.667 28 68c46 0 75 -3 87 -9s20.167 -10.333 24.5 -13s19.833 -8.33398 46.5 -17.001s48.5 -16.334 65.5 -23.001s36.833 -15.334 59.5 -26.001
c47.333 -22 71 -46.333 71 -73c0 -11.333 -5 -20.833 -15 -28.5s-19.5 -11.5 -28.5 -11.5s-20.333 2 -34 6s-29.667 9.33301 -48 16l-50 18.5l-49.5 19.5c-18 7.33301 -29 11.666 -33 12.999zM482.001 447.004c-2 24.667 -8.66699 98.333 -20 221
c-30 313.333 -45 488.5 -45 525.5s0.333008 57.167 1 60.5c-8 -9.33301 -27.167 -106 -57.5 -290s-47.5 -284 -51.5 -300s-10.333 -38 -19 -66c-18 -58 -27.667 -102.667 -29 -134c56.667 -15.333 103.667 -23 141 -23s64 2 80 6zM490.001 1529
c26.667 -191.333 54.668 -440.332 84.001 -746.999s44 -544 44 -712c0 -46 -22.333 -69 -67 -69s-67 17.667 -67 53v267c-19.333 13.333 -53.833 24.666 -103.5 33.999s-93.834 15.333 -132.501 18c-16.667 -28 -29.5 -85.167 -38.5 -171.5s-23.5 -145.833 -43.5 -178.5
c-66 0 -102.333 13.667 -109 41c30.667 44.667 93 329.334 187 854.001c36.667 207.333 58.667 327.666 66 360.999c36.667 176 76.334 264 119.001 264c25.333 0 45.666 -6 60.999 -18v4z" />
    <glyph glyph-name="Aacute" unicode="&#xc1;" horiz-adv-x="709" 
d="M425 1687c-46 0 -69 17.999 -69 53.999v2c1.33301 26.667 62 82.334 182 167.001c47.333 34 76 55.667 86 65c52 0 78 -18.667 78 -56c0 -0.666992 -3 -17 -9 -49c-44 -18 -91.5 -44.5 -142.5 -79.5s-92.833 -69.5 -125.5 -103.5zM482 446.999
c-2 24.667 -8.66699 98.333 -20 221c-30 313.333 -45 488.5 -45 525.5s0.333008 57.167 1 60.5c-8 -9.33301 -27.167 -106 -57.5 -290s-47.5 -284 -51.5 -300s-10.333 -38 -19 -66c-18 -58 -27.667 -102.667 -29 -134c56.667 -15.333 103.667 -23 141 -23s64 2 80 6z
M490 1529c26.667 -191.333 54.668 -440.332 84.001 -746.999s44 -544 44 -712c0 -46 -22.333 -69 -67 -69s-67 17.667 -67 53v267c-19.333 13.333 -53.833 24.666 -103.5 33.999s-93.834 15.333 -132.501 18c-16.667 -28 -29.5 -85.167 -38.5 -171.5
s-23.5 -145.833 -43.5 -178.5c-66 0 -102.333 13.667 -109 41c30.667 44.667 93 329.334 187 854.001c36.667 207.333 58.667 327.666 66 360.999c36.667 176 76.334 264 119.001 264c25.333 0 45.666 -6 60.999 -18v4z" />
    <glyph glyph-name="Acircumflex" unicode="&#xc2;" horiz-adv-x="709" 
d="M569 1762l17.9971 -25c0 -15.333 -6.83301 -27.5 -20.5 -36.5s-28.5 -13.5 -44.5 -13.5h-44c-11.333 114 -24.666 202.667 -39.999 266c-5.33301 -16 -12.666 -39.167 -21.999 -69.5l-22 -70.5c-16 -45.333 -39 -87 -69 -125l-67 48c2.66699 25.333 14.667 68 36 128
s47.833 117.5 79.5 172.5s58.834 82.5 81.501 82.5c34.667 0 52 -22.333 52 -67c0 -30 10.333 -71.333 31 -124s31 -90.667 31 -114v-52zM481.997 447c-2 24.667 -8.66699 98.333 -20 221c-30 313.333 -45 488.5 -45 525.5s0.333008 57.167 1 60.5
c-8 -9.33301 -27.167 -106 -57.5 -290s-47.5 -284 -51.5 -300s-10.333 -38 -19 -66c-18 -58 -27.667 -102.667 -29 -134c56.667 -15.333 103.667 -23 141 -23s64 2 80 6zM489.997 1529c26.667 -191.333 54.668 -440.332 84.001 -746.999s44 -544 44 -712
c0 -46 -22.333 -69 -67 -69s-67 17.667 -67 53v267c-19.333 13.333 -53.833 24.666 -103.5 33.999s-93.834 15.333 -132.501 18c-16.667 -28 -29.5 -85.167 -38.5 -171.5s-23.5 -145.833 -43.5 -178.5c-66 0 -102.333 13.667 -109 41c30.667 44.667 93 329.334 187 854.001
c36.667 207.333 58.667 327.666 66 360.999c36.667 176 76.334 264 119.001 264c25.333 0 45.666 -6 60.999 -18v4z" />
    <glyph glyph-name="Atilde" unicode="&#xc3;" horiz-adv-x="709" 
d="M558 1837l-12.999 45c10.667 21.333 26.667 32 48 32s38 -9.66699 50 -29s18 -43.833 18 -73.5s-13.167 -57.667 -39.5 -84s-55 -39.5 -86 -39.5s-59.5 7.16699 -85.5 21.5s-46.667 29 -62 44s-34 35.167 -56 60.5v2l-53 -31v-98c-22.667 0 -44.834 5.16699 -66.501 15.5
s-32.5 24.833 -32.5 43.5c0 46.667 13.5 86.5 40.5 119.5s63.167 49.5 108.5 49.5l102 -52c6 -16 16.167 -32 30.5 -48s28.833 -24 43.5 -24v1c4 4 10.667 8.33301 20 13c22 9.33301 33 20 33 32zM482.001 447c-2 24.667 -8.66699 98.333 -20 221
c-30 313.333 -45 488.5 -45 525.5s0.333008 57.167 1 60.5c-8 -9.33301 -27.167 -106 -57.5 -290s-47.5 -284 -51.5 -300s-10.333 -38 -19 -66c-18 -58 -27.667 -102.667 -29 -134c56.667 -15.333 103.667 -23 141 -23s64 2 80 6zM490.001 1529
c26.667 -191.333 54.668 -440.332 84.001 -746.999s44 -544 44 -712c0 -46 -22.333 -69 -67 -69s-67 17.667 -67 53v267c-19.333 13.333 -53.833 24.666 -103.5 33.999s-93.834 15.333 -132.501 18c-16.667 -28 -29.5 -85.167 -38.5 -171.5s-23.5 -145.833 -43.5 -178.5
c-66 0 -102.333 13.667 -109 41c30.667 44.667 93 329.334 187 854.001c36.667 207.333 58.667 327.666 66 360.999c36.667 176 76.334 264 119.001 264c25.333 0 45.666 -6 60.999 -18v4z" />
    <glyph glyph-name="Adieresis" unicode="&#xc4;" horiz-adv-x="709" 
d="M580 1708c-12.667 14 -19.002 30.333 -19.002 49s7.33301 35.667 22 51s31.334 23 50.001 23s34.834 -7.5 48.501 -22.5s20.5 -32.333 20.5 -52s-7.66699 -36.167 -23 -49.5s-32.5 -20 -51.5 -20s-34.833 7 -47.5 21zM256.498 1708c-17 -14 -35.333 -21 -55 -21
s-34.667 6.33301 -45 19s-15.5 29 -15.5 49s6.66699 37.167 20 51.5s29.833 21.5 49.5 21.5s36.5 -6.66699 50.5 -20s21 -29.833 21 -49.5s-8.5 -36.5 -25.5 -50.5zM481.998 447c-2 24.667 -8.66699 98.333 -20 221c-30 313.333 -45 488.5 -45 525.5s0.333008 57.167 1 60.5
c-8 -9.33301 -27.167 -106 -57.5 -290s-47.5 -284 -51.5 -300s-10.333 -38 -19 -66c-18 -58 -27.667 -102.667 -29 -134c56.667 -15.333 103.667 -23 141 -23s64 2 80 6zM489.998 1529c26.667 -191.333 54.668 -440.332 84.001 -746.999s44 -544 44 -712
c0 -46 -22.333 -69 -67 -69s-67 17.667 -67 53v267c-19.333 13.333 -53.833 24.666 -103.5 33.999s-93.834 15.333 -132.501 18c-16.667 -28 -29.5 -85.167 -38.5 -171.5s-23.5 -145.833 -43.5 -178.5c-66 0 -102.333 13.667 -109 41c30.667 44.667 93 329.334 187 854.001
c36.667 207.333 58.667 327.666 66 360.999c36.667 176 76.334 264 119.001 264c25.333 0 45.666 -6 60.999 -18v4z" />
    <glyph glyph-name="Aring" unicode="&#xc5;" horiz-adv-x="709" 
d="M342 1610c-20 22 -30 47.668 -30 77.001s11.667 56.5 35 81.5s49.833 37.5 79.5 37.5s55.5 -12 77.5 -36s33 -51.833 33 -83.5s-11.833 -57.834 -35.5 -78.501s-51.167 -31 -82.5 -31s-57 11 -77 33zM426 1693l-24 -30h38c0 28.667 -4.66699 47.667 -14 57v-27z
M482 447.001c-2 24.667 -8.66699 98.333 -20 221c-30 313.333 -45 488.5 -45 525.5s0.333008 57.167 1 60.5c-8 -9.33301 -27.167 -106 -57.5 -290s-47.5 -284 -51.5 -300s-10.333 -38 -19 -66c-18 -58 -27.667 -102.667 -29 -134c56.667 -15.333 103.667 -23 141 -23
s64 2 80 6zM490 1529c26.667 -191.333 54.668 -440.332 84.001 -746.999s44 -544 44 -712c0 -46 -22.333 -69 -67 -69s-67 17.667 -67 53v267c-19.333 13.333 -53.833 24.666 -103.5 33.999s-93.834 15.333 -132.501 18c-16.667 -28 -29.5 -85.167 -38.5 -171.5
s-23.5 -145.833 -43.5 -178.5c-66 0 -102.333 13.667 -109 41c30.667 44.667 93 329.334 187 854.001c36.667 207.333 58.667 327.666 66 360.999c36.667 176 76.334 264 119.001 264c25.333 0 45.666 -6 60.999 -18v4z" />
    <glyph glyph-name="AE" unicode="&#xc6;" horiz-adv-x="919" 
d="M571 82l225.002 21c16.667 0 32.167 -4.5 46.5 -13.5s21.5 -21.167 21.5 -36.5c0 -43.333 -81.333 -65 -244 -65h-30c-10.667 0 -24.667 -4.83301 -42 -14.5s-30.333 -15.167 -39 -16.5l-44 45v1c12 124.667 18 208 18 250l-10 380
c-9.33301 -0.666992 -23.333 -1.5 -42 -2.5s-33.667 -1.83301 -45 -2.5c-33.333 -3.33301 -61 -9 -83 -17l-101 -385c-1.33301 -6 -4.83301 -24 -10.5 -54s-11.167 -56 -16.5 -78s-14.166 -43 -26.499 -63s-25 -30 -38 -30s-23.5 5 -31.5 15s-12 29.167 -12 57.5
s8.66699 85.5 26 171.5s42.166 187 74.499 303l87 305.5l94.5 312l61.5 199l11 38.5l7.5 27.5c1.33301 5 4.16602 13.667 8.49902 26s8.16602 21.5 11.499 27.5s8 13.5 14 22.5s12 15.5 18 19.5c16 12 31.667 18 47 18l156 10c58 0 87 -18.667 87 -56v-48
c-82.667 0 -153.667 -3.33301 -213 -10l14 -274c0 -50 -1 -125 -3 -225s-3 -175 -3 -225c12 1.33301 34.667 4.83301 68 10.5s59.333 8.5 78 8.5l52 -48c0 -44 -40.667 -66 -122 -66h-77zM470.002 706c4.66699 172.667 7.00098 304.832 7.00098 396.499
s-0.666992 151.834 -2 180.501c-70.667 -244 -121.334 -442.333 -152.001 -595c62 4 111 10 147 18z" />
    <glyph glyph-name="Ccedilla" unicode="&#xc7;" horiz-adv-x="684" 
d="M205 998l-17.998 -143.001c0 -71.333 9.16699 -198.5 27.5 -381.5s36.166 -287.833 53.499 -314.5c29.333 -44.667 76 -67 140 -67s112.667 19.667 146 59c23.333 0 45 3.33301 65 10v-27c0 -92 -51 -146 -153 -162c-6 -36 -9.33301 -67.667 -10 -95
c52 -10 89.833 -36 113.5 -78s35.5 -88.5 35.5 -139.5s-18.667 -96.333 -56 -136s-74.166 -59.5 -110.499 -59.5s-66.166 6.83301 -89.499 20.5s-35 29.834 -35 48.501s4.66699 32.334 14 41.001s23.166 13 41.499 13s37.166 -6.66699 56.499 -20
c10 1.33301 20.167 9 30.5 23s15.5 26.167 15.5 36.5s-1.16699 21.166 -3.5 32.499s-5.83301 24 -10.5 38s-7.66699 24.333 -9 31l35 -35v10c0 22.667 -5.66699 39.667 -17 51c-22 -3.33301 -39.833 -5 -53.5 -5s-25.667 4.16699 -36 12.5s-23.5 24.833 -39.5 49.5
c12.667 26 19 63.667 19 113v46c-40 8.66699 -78.333 27.167 -115 55.5s-65.834 66.333 -87.501 114s-39.167 172.5 -52.5 374.5s-20 359 -20 471s4.66699 192 14 240c-4 22 -6 43.333 -6 64c0 84 31.333 150.833 94 200.5s140 74.5 232 74.5
c32.667 0 64.667 -9.16699 96 -27.5s47 -42.5 47 -72.5c0 -14.667 -5.66699 -26 -17 -34s-27.5 -12 -48.5 -12s-35.833 8.33301 -44.5 25v-4h-32v8c-105.333 0 -171.333 -44.333 -198 -133c-13.333 -44.667 -20 -103 -20 -175z" />
    <glyph glyph-name="Egrave" unicode="&#xc8;" horiz-adv-x="672" 
d="M482 749l-51.001 2c-15.333 0 -27.333 -5 -36 -15v-632c70 4 106 6 108 6c76 0 114 -18 114 -54v-7c-9.33301 -18.667 -25.166 -33 -47.499 -43s-41.833 -15.667 -58.5 -17s-38.667 -2 -66 -2h-64c-52 0 -83.667 9.66699 -95 29c-6 10 -9 22.667 -9 38v1478l177 18
c20.667 0 41.5 -6.16699 62.5 -18.5s31.5 -28.5 31.5 -48.5c0 -40.667 -31 -61 -93 -61l-59 2c-10 0 -17.333 -0.333008 -22 -1l16 -338c0 -27.333 -1.66699 -67.166 -5 -119.499s-5 -90.5 -5 -114.5c7.33301 1.33301 17.333 3.66602 30 6.99902
c28 7.33301 49.833 11 65.5 11s29.667 -5.66699 42 -17s18.5 -25 18.5 -41s-5 -30.333 -15 -43s-23 -19 -39 -19zM167.999 1763c-13.333 -1.33301 -25 -1.99609 -35 -1.99609c-59.333 0 -89 20.667 -89 62c0 34 9.33301 56.667 28 68c46 0 75 -3 87 -9
s20.167 -10.333 24.5 -13s19.833 -8.33398 46.5 -17.001s48.5 -16.334 65.5 -23.001s37.167 -15.334 60.5 -26.001c46.667 -22 70 -46.333 70 -73c0 -11.333 -5 -20.833 -15 -28.5s-19.5 -11.5 -28.5 -11.5s-20.333 2 -34 6s-29.667 9.33301 -48 16l-50 18.5l-49.5 19.5
c-18 7.33301 -29 11.666 -33 12.999z" />
    <glyph glyph-name="Eacute" unicode="&#xc9;" horiz-adv-x="528" 
d="M211 1690c-46 0 -69 18.001 -69 54.001v2c1.33301 26.667 62 82.667 182 168c47.333 33.333 76 54.666 86 63.999c52 0 78 -18.667 78 -56c0 -0.666992 -3 -17 -9 -49c-44 -18 -91.5 -44.5 -142.5 -79.5s-92.833 -69.5 -125.5 -103.5zM315 752.001l-51.001 2.00098
c-16 0 -28 -5 -36 -15v-632c70 4 106 6 108 6c76 0 114 -18 114 -54v-7c-9.33301 -18.667 -25.166 -33 -47.499 -43s-41.833 -15.667 -58.5 -17s-38.667 -2 -66 -2h-64c-52 0 -84 10 -96 30c-5.33301 9.33301 -8 21.666 -8 36.999v1478l177 18
c20.667 0 41.5 -6.16699 62.5 -18.5s31.5 -28.5 31.5 -48.5c0 -40.667 -31 -61 -93 -61l-59 2c-10 0 -17.333 -0.333008 -22 -1l16 -338c0 -27.333 -1.66699 -67.166 -5 -119.499s-5 -90.5 -5 -114.5c7.33301 1.33301 17.333 3.66602 30 6.99902
c28 7.33301 49.833 11 65.5 11s29.667 -5.66699 42 -17s18.5 -25 18.5 -41s-5 -30.333 -15 -43s-23 -19 -39 -19z" />
    <glyph glyph-name="Ecircumflex" unicode="&#xca;" horiz-adv-x="510" 
d="M320 750l-51.001 2.00098c-16 0 -28 -5 -36 -15v-632c70 4 106 6 108 6c76 0 114 -18 114 -54v-7c-9.33301 -18.667 -25.166 -33 -47.499 -43s-41.833 -15.667 -58.5 -17s-38.667 -2 -66 -2h-64c-52 0 -83.667 10 -95 30c-6 9.33301 -9 21.666 -9 36.999v1478l177 18
c20.667 0 41.5 -6.16699 62.5 -18.5s31.5 -28.5 31.5 -48.5c0 -40.667 -31 -61 -93 -61l-59 2c-10 0 -17.333 -0.333008 -22 -1l16 -338c0 -27.333 -1.66699 -67.166 -5 -119.499s-5 -90.5 -5 -114.5c7.33301 1.33301 17.333 3.66602 30 6.99902
c28 7.33301 49.833 11 65.5 11s29.667 -5.66699 42 -17s18.5 -25 18.5 -41s-5 -30.333 -15 -43s-23 -19 -39 -19zM360.999 1766l17.9971 -25c0 -15.333 -6.83301 -27.5 -20.5 -36.5s-28.5 -13.5 -44.5 -13.5h-44c-11.333 114 -24.666 202.667 -39.999 266
c-5.33301 -16 -12.666 -39.167 -21.999 -69.5l-22 -70.5c-16 -45.333 -39 -87 -69 -125l-67 48c2.66699 25.333 14.667 68 36 128s47.833 117.5 79.5 172.5s58.834 82.5 81.501 82.5c34.667 0 52 -22.333 52 -67c0 -30 10.333 -71.333 31 -124s31 -90.667 31 -114v-52z" />
    <glyph glyph-name="Edieresis" unicode="&#xcb;" horiz-adv-x="648" 
d="M431 749l-51.001 2c-16 0 -28 -5 -36 -15v-632c70 4 106 6 108 6c76 0 114 -18 114 -54v-7c-9.33301 -18.667 -25.166 -33 -47.499 -43s-41.833 -15.667 -58.5 -17s-38.667 -2 -66 -2h-64c-52 0 -84 9.66699 -96 29c-5.33301 10 -8 22.667 -8 38v1478l177 18
c20.667 0 41.5 -6.16699 62.5 -18.5s31.5 -28.5 31.5 -48.5c0 -40.667 -31 -61 -93 -61l-59 2c-10 0 -17.333 -0.333008 -22 -1l16 -338c0 -27.333 -1.66699 -67.166 -5 -119.499s-5 -90.5 -5 -114.5c7.33301 1.33301 17.333 3.66602 30 6.99902
c28 7.33301 49.833 11 65.5 11s29.667 -5.66699 42 -17s18.5 -25 18.5 -41s-5 -30.333 -15 -43s-23 -19 -39 -19zM481.999 1711c-12.667 14 -19.002 30.333 -19.002 49s7.33301 35.667 22 51s31.334 23 50.001 23s34.834 -7.5 48.501 -22.5s20.5 -32.333 20.5 -52
s-7.66699 -36.167 -23 -49.5s-32.5 -20 -51.5 -20s-34.833 7 -47.5 21zM158.497 1711c-17 -14 -35.167 -21 -54.5 -21s-34.333 6.5 -45 19.5s-16 29.333 -16 49s6.66699 36.667 20 51s29.833 21.5 49.5 21.5s36.5 -6.66699 50.5 -20s21 -29.833 21 -49.5
s-8.5 -36.5 -25.5 -50.5z" />
    <glyph glyph-name="Igrave" unicode="&#xcc;" horiz-adv-x="681" 
d="M572 7l-74.002 10.0039v1h-37c-6.66699 0 -15.667 -2 -27 -6c-20 -6.66699 -36.333 -7 -49 -1c-86 0 -129 16.833 -129 50.5s20.667 50.5 62 50.5l43 -3c20 0 30 16 30 48c0 105.333 -6.33301 263.166 -19 473.499s-19 368.166 -19 473.499l4 209
c0 44 -1.66699 82 -5 114c-18 -6 -34 -9 -48 -9c-32 0 -48 16.333 -48 49c0 16.667 10.333 31.167 31 43.5s46.334 21.166 77.001 26.499c57.333 10 99.833 15 127.5 15s47.5 -5.5 59.5 -16.5s18 -24 18 -39s-4.5 -28 -13.5 -39s-20.5 -16.5 -34.5 -16.5l-36 1
c-13.333 0 -23.166 -2.83301 -29.499 -8.5s-9.5 -16.834 -9.5 -33.501c0 -133.333 8.66699 -333 26 -599s26 -465.667 26 -599v-79c14 2 27.333 3 40 3c56.667 0 85 -24 85 -72v-12zM168.998 1763c-13.333 -1.33301 -25 -1.99609 -35 -1.99609c-59.333 0 -89 20.667 -89 62
c0 34 9.33301 56.667 28 68c46 0 75 -3 87 -9s20.167 -10.333 24.5 -13s19.833 -8.33398 46.5 -17.001s48.5 -16.334 65.5 -23.001s36.833 -15.334 59.5 -26.001c47.333 -22 71 -46.333 71 -73c0 -11.333 -5 -20.833 -15 -28.5s-19.5 -11.5 -28.5 -11.5s-20.333 2 -34 6
s-29.667 9.33301 -48 16l-50 18.5l-49.5 19.5c-18 7.33301 -29 11.666 -33 12.999z" />
    <glyph glyph-name="Iacute" unicode="&#xcd;" horiz-adv-x="502" 
d="M185 1690c-46 0 -69 18.001 -69 54.001v2c1.33301 26.667 62 82.667 182 168c47.333 33.333 76 54.666 86 63.999c52 0 78 -18.667 78 -56c0 -0.666992 -3 -17 -9 -49c-44 -18 -91.5 -44.5 -142.5 -79.5s-92.833 -69.5 -125.5 -103.5zM377 10.001l-74 10.0039v1h-37
c-6.66699 0 -15.334 -1.66699 -26.001 -5c-20.667 -7.33301 -37.334 -8 -50.001 -2c-86 0 -129 16.833 -129 50.5s20.667 50.5 62 50.5l43 -3c20 0 30 16 30 48c0 105.333 -6.33301 263.166 -19 473.499s-19 368.166 -19 473.499l4 209c0 44 -1.66699 82 -5 114
c-18 -6 -34 -9 -48 -9c-32 0 -48 16.333 -48 49c0 16.667 10.333 31.167 31 43.5s46.334 21.166 77.001 26.499c57.333 10 99.833 15 127.5 15s47.5 -5.5 59.5 -16.5s18 -24 18 -39s-4.5 -28 -13.5 -39s-20.5 -16.5 -34.5 -16.5l-36 1
c-13.333 0 -23.166 -2.83301 -29.499 -8.5s-9.5 -16.834 -9.5 -33.501c0 -133.333 8.66699 -333 26 -599s26 -465.667 26 -599v-79c14 2 27.333 3 40 3c56.667 0 85 -24 85 -72v-12z" />
    <glyph glyph-name="Icircumflex" unicode="&#xce;" horiz-adv-x="512" 
d="M403 8l-74 10.0039v1h-37c-6.66699 0 -15.334 -1.66699 -26.001 -5c-20.667 -7.33301 -37.334 -8 -50.001 -2c-86 0 -129 16.833 -129 50.5s20.667 50.5 62 50.5l43 -3c20 0 30 16 30 48c0 105.333 -6.33301 263.166 -19 473.499s-19 368.166 -19 473.499l4 209
c0 44 -1.66699 82 -5 114c-18 -6 -34 -9 -48 -9c-32 0 -48 16.333 -48 49c0 16.667 10.333 31.167 31 43.5s46.334 21.166 77.001 26.499c57.333 10 99.833 15 127.5 15s47.5 -5.5 59.5 -16.5s18 -24 18 -39s-4.5 -28 -13.5 -39s-20.5 -16.5 -34.5 -16.5l-36 1
c-13.333 0 -23.166 -2.83301 -29.499 -8.5s-9.5 -16.834 -9.5 -33.501c0 -133.333 8.66699 -333 26 -599s26 -465.667 26 -599v-79c14 2 27.333 3 40 3c56.667 0 85 -24 85 -72v-12zM354 1767l17.9971 -25c0 -15.333 -6.83301 -27.5 -20.5 -36.5s-28.5 -13.5 -44.5 -13.5
h-44c-11.333 114 -24.666 202.667 -39.999 266c-5.33301 -16 -12.666 -39.167 -21.999 -69.5s-17 -53.833 -23 -70.5c-15.333 -45.333 -38 -87 -68 -125l-67 48c2.66699 25.333 14.667 68 36 128s47.833 117.5 79.5 172.5s58.834 82.5 81.501 82.5
c34.667 0 52 -22.333 52 -67c0 -30 10.333 -71.333 31 -124s31 -90.667 31 -114v-52z" />
    <glyph glyph-name="Idieresis" unicode="&#xcf;" horiz-adv-x="650" 
d="M522 7l-74.002 10.0039v1h-37c-6.66699 0 -15.667 -2 -27 -6c-20 -6.66699 -36.333 -7 -49 -1c-86 0 -129 16.833 -129 50.5s20.667 50.5 62 50.5l43 -3c20 0 30 16 30 48c0 105.333 -6.33301 263.166 -19 473.499s-19 368.166 -19 473.499l4 209
c0 44 -1.66699 82 -5 114c-18 -6 -34 -9 -48 -9c-32 0 -48 16.333 -48 49c0 16.667 10.333 31.167 31 43.5s46.334 21.166 77.001 26.499c57.333 10 99.833 15 127.5 15s47.5 -5.5 59.5 -16.5s18 -24 18 -39s-4.5 -28 -13.5 -39s-20.5 -16.5 -34.5 -16.5l-36 1
c-13.333 0 -23.166 -2.83301 -29.499 -8.5s-9.5 -16.834 -9.5 -33.501c0 -133.333 8.66699 -333 26 -599s26 -465.667 26 -599v-79c14 2 27.333 3 40 3c56.667 0 85 -24 85 -72v-12zM483.998 1711c-12.667 14 -19.002 30.333 -19.002 49s7.33301 35.667 22 51
s31.334 23 50.001 23s34.834 -7.5 48.501 -22.5s20.5 -32.333 20.5 -52s-7.66699 -36.167 -23 -49.5s-32.5 -20 -51.5 -20s-34.833 7 -47.5 21zM160.496 1711c-17 -14 -35.167 -21 -54.5 -21s-34.333 6.5 -45 19.5s-16 29.333 -16 49s6.66699 36.667 20 51
s29.833 21.5 49.5 21.5s36.5 -6.66699 50.5 -20s21 -29.833 21 -49.5s-8.5 -36.5 -25.5 -50.5z" />
    <glyph glyph-name="Eth" unicode="&#xd0;" horiz-adv-x="868" 
d="M320 1141l0.000976562 -1.00098c2.66699 -99.333 12 -253 28 -461s25 -366.333 27 -475c168 146.667 261 346.667 279 600c3.33301 52 5 106.667 5 164s-0.166992 103 -0.5 137s-1.83301 79 -4.5 135s-6.33398 105.333 -11.001 148s-11.5 92 -20.5 148
s-19.833 105.333 -32.5 148s-28.834 87.334 -48.501 134.001s-41.5 86.667 -65.5 120c-55.333 76 -121.666 129 -198.999 159v-268c0 -246 14 -438.333 42 -577c22 1.33301 59.167 5.33301 111.5 12s90.5 10 114.5 10s42 -8.33301 54 -25s18.667 -35 20 -55l-34 -41
c-112.667 0 -201 -4 -265 -12zM47.001 1184c0 40 41.668 60.0049 125.001 60.0049h31c-0.666992 98.667 -8.16699 249 -22.5 451s-21.5 355 -21.5 459c0 14.667 5.66699 29.334 17 44c11.333 14.667 24.333 22 39 22c43.333 0 100.666 -22.833 171.999 -68.5
s134.5 -99.834 189.5 -162.501s82.5 -115.334 82.5 -158.001c0 -136 19.5 -306.333 58.5 -511s58.5 -379.834 58.5 -525.501s-39.333 -289.834 -118 -432.501s-184.667 -248.334 -318 -317.001v2c-40 12 -67.333 32 -82 60c0 456.667 -17.333 800 -52 1030
c-56 -8 -91.833 -12 -107.5 -12s-28.167 5.83301 -37.5 17.5s-14 25.5 -14 41.5z" />
    <glyph glyph-name="Ntilde" unicode="&#xd1;" horiz-adv-x="793" 
d="M676 1444l-7.99609 -757v-626c0 -23.333 -7.66699 -42.833 -23 -58.5s-34.333 -23.5 -57 -23.5s-39.167 5.16699 -49.5 15.5s-17 21.166 -20 32.499s-6 26.833 -9 46.5s-9.16699 46.5 -18.5 80.5s-33.666 116 -72.999 246
c-80.667 261.333 -135.334 473.666 -164.001 636.999c-0.666992 4.66699 -1.33398 12.667 -2.00098 24c-1.33301 24 -6 41 -14 51c0.666992 28 -5.5 63.833 -18.5 107.5s-20.5 69.834 -22.5 78.501v-1296h-72v38c2.66699 10 2.33398 31 -0.999023 63s-5 70 -5 114
s-4.33301 145.333 -13 304s-13 255.667 -13 291v261l14 376c0 50.667 3.66699 79 11 85c17.333 13.333 37 20 59 20s40.333 -6 55 -18s22 -27.833 22 -47.5s3 -40.667 9 -63s14.5 -47.333 25.5 -75s19.333 -51.334 25 -71.001s11.167 -53.667 16.5 -102
s12.166 -93.666 20.499 -135.999s28.166 -112.666 59.499 -210.999s59.166 -192.333 83.499 -282s39.166 -173.167 44.499 -250.5c12 -20 19 -44.333 21 -73l7 714v606c8 34 30.5 51 67.5 51s55.5 -26.667 55.5 -80v-12c-8.66699 -18 -13 -38 -13 -60zM497.004 1846
l-13.0049 45c10.667 21.333 26.334 32 47.001 32s37 -9.66699 49 -29s18 -43.833 18 -73.5s-13 -57.667 -39 -84s-54.167 -39.5 -84.5 -39.5s-58.166 7.16699 -83.499 21.5s-45.666 29 -60.999 44s-33.666 35.167 -54.999 60.5v2l-52 -31v-98
c-22.667 0 -44.667 5.16699 -66 15.5s-32 24.833 -32 43.5c0 46 13.333 85.667 40 119s62.334 50 107.001 50l100 -52c6 -16 16.167 -32 30.5 -48s28.5 -24 42.5 -24v1c4 4 11 8.33301 21 13c20.667 9.33301 31 20 31 32z" />
    <glyph glyph-name="Ograve" unicode="&#xd2;" horiz-adv-x="694" 
d="M124 1760c-14.667 -1.33301 -26.333 -1.99609 -35 -1.99609c-59.333 0 -89 20.667 -89 62c-0 34 9.33301 56.667 28 68c46 0 75 -3 87 -9s20.167 -10.333 24.5 -13s19.833 -8.33398 46.5 -17.001s48.5 -16.334 65.5 -23.001s36.833 -15.334 59.5 -26.001
c47.333 -22 71 -46.333 71 -73c0 -11.333 -5 -20.833 -15 -28.5s-19.5 -11.5 -28.5 -11.5s-20.333 2 -34 6s-29.667 9.33301 -48 16l-50 18.5l-49.5 19.5c-18 7.33301 -29 11.666 -33 12.999zM369.501 1448.5c-19.667 19 -38.6699 28.5039 -57.0029 28.5039
s-33.166 -4.66699 -44.499 -14s-21 -23.333 -29 -42s-15.333 -38.5 -22 -59.5s-12.167 -46.667 -16.5 -77l-11.5 -82.5c-3.33301 -24.667 -6 -54 -8 -88l-5 -83c-1.33301 -21.333 -2.16602 -47 -2.49902 -77s-0.5 -50 -0.5 -60v-42c0 -110 10.333 -236 31 -378
c41.333 -279.333 99.666 -419 174.999 -419c26.667 0 49.334 25.5 68.001 76.5s31.667 114.833 39 191.5c13.333 130 20 224.167 20 282.5s-0.166992 100.166 -0.5 125.499s-1.33301 62.166 -3 110.499s-4.5 93.666 -8.5 135.999s-9 89.166 -15 140.499
s-14.167 97 -24.5 137s-22.166 77.5 -35.499 112.5s-29.833 62 -49.5 81zM598.998 618.008l-18.0039 -258.998v-9c-8.66699 -38 -13 -79 -13 -123s-7.5 -86.5 -22.5 -127.5s-38 -77.333 -69 -109s-64.833 -47.5 -101.5 -47.5s-70.167 12.667 -100.5 38
s-55.333 57.833 -75 97.5s-37.167 87 -52.5 142s-27 108.667 -35 161s-14.667 107.5 -20 165.5c-7.33301 88.667 -11 161.5 -11 218.5s1 103.833 3 140.5c2.66699 67.333 5.66699 127.166 9 179.499s5.33301 92.5 6 120.5s1.33398 51.667 2.00098 71
s2.66699 43.166 6 71.499s7.33301 52.5 12 72.5s11.834 41 21.501 63s21.167 40 34.5 54c30.667 31.333 65 47 103 47s68.333 -3.66699 91 -11s41.834 -16.833 57.501 -28.5s30 -27 43 -46s23.667 -37.5 32 -55.5s15.833 -39.667 22.5 -65
c8.66699 -32 17.334 -77.667 26.001 -137c32.667 -233.333 49 -441.333 49 -624z" />
    <glyph glyph-name="Oacute" unicode="&#xd3;" horiz-adv-x="694" 
d="M337 1687c-46 0 -69 17.999 -69 53.999v2c1.33301 26.667 62 82.334 182 167.001c47.333 34 76 55.667 86 65c52 0 78 -18.667 78 -56c0 -0.666992 -3 -17 -9 -49c-44 -18 -91.5 -44.5 -142.5 -79.5s-92.833 -69.5 -125.5 -103.5zM369.5 1448.5
c-19.667 19 -38.6699 28.5039 -57.0029 28.5039s-33.166 -4.66699 -44.499 -14s-21 -23.333 -29 -42s-15.333 -38.5 -22 -59.5s-12.167 -46.667 -16.5 -77l-11.5 -82.5c-3.33301 -24.667 -6 -54 -8 -88l-5 -83c-1.33301 -21.333 -2.16602 -47 -2.49902 -77
s-0.5 -50 -0.5 -60v-42c0 -110 10.333 -236 31 -378c41.333 -279.333 99.666 -419 174.999 -419c26.667 0 49.334 25.5 68.001 76.5s31.667 114.833 39 191.5c13.333 130 20 224.167 20 282.5s-0.166992 100.166 -0.5 125.499s-1.33301 62.166 -3 110.499
s-4.5 93.666 -8.5 135.999s-9 89.166 -15 140.499s-14.167 97 -24.5 137s-22.166 77.5 -35.499 112.5s-29.833 62 -49.5 81zM598.997 618.003l-18.0039 -258.998v-9c-8.66699 -38 -13 -79 -13 -123s-7.5 -86.5 -22.5 -127.5s-38 -77.333 -69 -109
s-64.833 -47.5 -101.5 -47.5s-70.167 12.667 -100.5 38s-55.333 57.833 -75 97.5s-37.167 87 -52.5 142s-27 108.667 -35 161s-14.667 107.5 -20 165.5c-7.33301 88.667 -11 161.5 -11 218.5s1 103.833 3 140.5c2.66699 67.333 5.66699 127.166 9 179.499
s5.33301 92.5 6 120.5s1.33398 51.667 2.00098 71s2.66699 43.166 6 71.499s7.33301 52.5 12 72.5s11.834 41 21.501 63s21.167 40 34.5 54c30.667 31.333 65 47 103 47s68.333 -3.66699 91 -11s41.834 -16.833 57.501 -28.5s30 -27 43 -46s23.667 -37.5 32 -55.5
s15.833 -39.667 22.5 -65c8.66699 -32 17.334 -77.667 26.001 -137c32.667 -233.333 49 -441.333 49 -624z" />
    <glyph glyph-name="Ocircumflex" unicode="&#xd4;" horiz-adv-x="694" 
d="M447 1766l18 -25.001c0 -15.333 -6.83301 -27.5 -20.5 -36.5s-28.167 -13.5 -43.5 -13.5h-43c-12 118.667 -25 207.334 -39 266.001c-5.33301 -15.333 -12.5 -38.333 -21.5 -69s-16.167 -54 -21.5 -70c-16 -46 -38.667 -88 -68 -126l-66 48
c4.66699 46.667 30 122.167 76 226.5s85.667 156.5 119 156.5s50 -22.333 50 -67c0 -30 10 -71.333 30 -124s30 -90.667 30 -114v-52zM268 1463c11.333 9.33301 26.1709 13.999 44.5039 13.999s37.333 -9.5 57 -28.5s36.167 -46 49.5 -81s25.166 -72.5 35.499 -112.5
s18.5 -85.667 24.5 -137s11 -98.166 15 -140.499s6.66699 -87.5 8 -135.5c2.66699 -68 4 -126 4 -174s-1.33301 -98.333 -4 -151s-7.83398 -117.334 -15.501 -194.001s-20.834 -140.5 -39.501 -191.5s-41.334 -76.5 -68.001 -76.5c-37.333 0 -70.5 34.333 -99.5 103
s-50.833 151.334 -65.5 248.001c-27.333 187.333 -41 336 -41 446v42c0 59.333 0.833008 102.333 2.5 129l5.5 91c2 34 4.66699 63.333 8 88l11.5 82.5c4.33301 30.333 9.83301 56 16.5 77s14 40.833 22 59.5s17.667 32.667 29 42zM586.005 358.998l13.001 258.999
c0 226.667 -20 458 -60 694c-19.333 114 -57 192 -113 234c-35.333 26 -72.5 39 -111.5 39s-68.667 -4.5 -89 -13.5s-37.166 -20.333 -50.499 -34s-24.833 -31.5 -34.5 -53.5s-16.834 -43 -21.501 -63s-8.66699 -44.167 -12 -72.5s-5.33301 -52.166 -6 -71.499
s-1.33398 -43 -2.00098 -71s-1.5 -50.167 -2.5 -66.5l-6.5 -101.5c-6 -107.333 -9 -182.333 -9 -225s0.666992 -83.167 2 -121.5s4.5 -86.5 9.5 -144.5s11.5 -113.167 19.5 -165.5s19.667 -106 35 -161s32.833 -102.333 52.5 -142s44.667 -72.167 75 -97.5
s63.833 -38 100.5 -38s70.5 15.833 101.5 47.5s54.167 68 69.5 109s23 80.5 23 118.5s5.66699 82 17 132v9z" />
    <glyph glyph-name="Otilde" unicode="&#xd5;" horiz-adv-x="698" 
d="M440 1840l-13.0029 45c10.667 21.333 26.334 32 47.001 32s37 -9.66699 49 -29s18 -43.833 18 -73.5s-13 -57.667 -39 -84s-54.167 -39.5 -84.5 -39.5s-58.166 7.16699 -83.499 21.5s-45.666 29 -60.999 44s-33.666 35.167 -54.999 60.5v2l-52 -31v-98
c-22.667 0 -44.834 5.16699 -66.501 15.5s-32.5 24.833 -32.5 43.5c0 46.667 13.333 86.5 40 119.5s62.667 49.5 108 49.5l100 -52c6 -16 16.167 -32 30.5 -48s28.5 -24 42.5 -24v1c4 4 10.667 8.33301 20 13c21.333 9.33301 32 20 32 32zM271.997 1463
c11.333 9.33301 26.1709 13.999 44.5039 13.999s37.333 -9.5 57 -28.5s36.167 -46 49.5 -81s25.166 -72.5 35.499 -112.5s18.5 -85.667 24.5 -137s11 -98.166 15 -140.499s6.66699 -87.5 8 -135.5c2.66699 -68 4 -126 4 -174s-1.33301 -98.333 -4 -151
s-7.83398 -117.334 -15.501 -194.001s-20.834 -140.5 -39.501 -191.5s-41.334 -76.5 -68.001 -76.5c-37.333 0 -70.5 34.333 -99.5 103s-50.833 151.334 -65.5 248.001c-27.333 187.333 -41 336 -41 446v42c0 59.333 0.833008 102.333 2.5 129l5.5 91
c2 34 4.66699 63.333 8 88l11.5 82.5c4.33301 30.333 9.83301 56 16.5 77s14 40.833 22 59.5s17.667 32.667 29 42zM590.002 358.999l13.001 258.999c0 226.667 -20 458 -60 694c-19.333 114 -57 192 -113 234c-35.333 26 -72.5 39 -111.5 39s-68.667 -4.5 -89 -13.5
s-37.166 -20.333 -50.499 -34s-24.833 -31.5 -34.5 -53.5s-16.834 -43 -21.501 -63s-8.66699 -44.167 -12 -72.5s-5.33301 -52.166 -6 -71.499s-1.33398 -43 -2.00098 -71s-1.5 -50.167 -2.5 -66.5l-6.5 -101.5c-6 -107.333 -9 -182.333 -9 -225s0.666992 -83.167 2 -121.5
s4.5 -86.5 9.5 -144.5s11.5 -113.167 19.5 -165.5s19.667 -106 35 -161s32.833 -102.333 52.5 -142s44.667 -72.167 75 -97.5s63.833 -38 100.5 -38s70.5 15.833 101.5 47.5s54.167 68 69.5 109s23 80.5 23 118.5s5.66699 82 17 132v9z" />
    <glyph glyph-name="Odieresis" unicode="&#xd6;" horiz-adv-x="719" 
d="M610 358l13.001 258.999c0 226 -20 457 -60 693c-19.333 114.667 -57 192.667 -113 234c-35.333 26.667 -72.5 40 -111.5 40s-68.667 -4.5 -89 -13.5s-37.166 -20.333 -50.499 -34s-24.833 -31.5 -34.5 -53.5s-16.834 -43 -21.501 -63s-8.66699 -44.167 -12 -72.5
s-5.33301 -52.166 -6 -71.499s-1.33398 -43 -2.00098 -71s-1.5 -50.167 -2.5 -66.5s-3.16699 -49.833 -6.5 -100.5c-6 -108 -9 -183.333 -9 -226s0.666992 -83.167 2 -121.5s4.5 -86.5 9.5 -144.5s11.5 -113.167 19.5 -165.5s19.667 -106 35 -161s32.833 -102.333 52.5 -142
s44.667 -72.167 75 -97.5s63.833 -38 100.5 -38s70.5 15.833 101.5 47.5s54.167 68 69.5 109s23 80.5 23 118.5s5.66699 82 17 132v9zM292.001 1462c11.333 9.33301 26.1709 14 44.5039 14s37.333 -9.5 57 -28.5s36.167 -46 49.5 -81s25.166 -72.5 35.499 -112.5
s18.5 -85.667 24.5 -137s11 -98.166 15 -140.499s6.66699 -87.833 8 -136.5c2.66699 -67.333 4 -125 4 -173s-1.33301 -98.333 -4 -151s-7.83398 -117.334 -15.501 -194.001s-20.834 -140.5 -39.501 -191.5s-41.334 -76.5 -68.001 -76.5c-37.333 0 -70.5 34.333 -99.5 103
s-50.833 151.667 -65.5 249c-27.333 186.667 -41 335 -41 445v42c0 59.333 0.833008 102.333 2.5 129l5.5 91c2 34 4.66699 63.333 8 88l11.5 82.5c4.33301 30.333 9.83301 56 16.5 77s14 40.833 22 59.5s17.667 32.667 29 42zM481.006 1711
c-12 14 -17.999 30.333 -17.999 49s7.16699 35.667 21.5 51s30.666 23 48.999 23s34.333 -7.5 48 -22.5s20.5 -32.333 20.5 -52s-7.66699 -36.167 -23 -49.5s-32.5 -20 -51.5 -20s-34.5 7 -46.5 21zM163.507 1711c-17 -14 -35.333 -21 -55 -21s-34.667 6.33301 -45 19
s-15.5 29 -15.5 49s6.66699 37.167 20 51.5s29.833 21.5 49.5 21.5s36.5 -6.66699 50.5 -20s21 -29.833 21 -49.5s-8.5 -36.5 -25.5 -50.5z" />
    <glyph glyph-name="multiply" unicode="&#xd7;" horiz-adv-x="646" 
d="M456 399c-6 5.33301 -20.3359 21.667 -43.0029 49c-61.333 74 -95.666 112 -102.999 114c-6.66699 -0.666992 -18 -12 -34 -34c-48.667 -65.333 -88 -98 -118 -98c-15.333 0 -29.5 6.33301 -42.5 19s-19.5 25.5 -19.5 38.5s9 28.833 27 47.5s38.667 38.167 62 58.5
s38.333 35.166 45 44.499c-3.33301 3.33301 -22.666 19 -57.999 47c-71.333 56.667 -107 102.667 -107 138c0 15.333 6.16699 28.666 18.5 39.999s24.333 17 36 17s30.167 -10.667 55.5 -32s53.666 -46.833 84.999 -76.5s49.333 -46.5 54 -50.5
c18.667 9.33301 39.334 29.333 62.001 60c42 56.667 79 85 111 85c14 0 26.5 -5.66699 37.5 -17s16.5 -24.166 16.5 -38.499s-7.16699 -29.166 -21.5 -44.499s-30.166 -28.666 -47.499 -39.999c-46 -28.667 -69 -56.334 -69 -83.001c0 -23.333 26.5 -50.833 79.5 -82.5
s79.5 -59 79.5 -82s-7.5 -42 -22.5 -57s-31.833 -22.5 -50.5 -22.5h-33z" />
    <glyph glyph-name="Oslash" unicode="&#xd8;" horiz-adv-x="619" 
d="M316 1552l52 246.999h77c-1.33301 -34.667 -9.16602 -88 -23.499 -160s-21.5 -127.333 -21.5 -166c0 -14 11.667 -31.667 35 -53v-54c0.666992 -16 8.83398 -39.667 24.501 -71s23.5 -55.333 23.5 -72v-16c1.33301 -39.333 6.66602 -99.833 15.999 -181.5
s14.333 -139.667 15 -174s1.33398 -77.5 2.00098 -129.5c2.66699 -121.333 4 -203.5 4 -246.5s-0.166992 -74.333 -0.5 -94s-2 -48 -5 -85s-7 -67.667 -12 -92s-13 -51.666 -24 -81.999s-24.167 -54.5 -39.5 -72.5c-36.667 -44 -83.334 -66 -140.001 -66
c-30.667 0 -58 6.66699 -82 20c-4.66699 -30.667 -13.334 -79.667 -26.001 -147l-27 -137l-70 56c0 40 9.83301 98.833 29.5 176.5s29.5 136.5 29.5 176.5c-44 146.667 -65.333 352.667 -64 618l3 361v48c0 136 16.667 242.667 50 320c27.333 62.667 67.333 94 120 94
c18.667 0 36.667 -7.33301 54 -22v4zM315 71.999c70.667 0 106 130.668 106 392.001v172c0 266.667 -14.333 487 -43 661c-10 -80.667 -25.167 -244.334 -45.5 -491.001s-39 -414.834 -56 -504.501s-25.5 -145.167 -25.5 -166.5s4 -37.166 12 -47.499s25.333 -15.5 52 -15.5
zM267 1492l0.00292969 -0.996094h-34v-11c-33.333 -71.333 -50 -281.333 -50 -630c0 -54.667 4.16699 -120.334 12.5 -197.001s13.5 -126.667 15.5 -150c11.333 105.333 24.166 236.166 38.499 392.499s23.666 254.666 27.999 294.999s8.16602 72.333 11.499 96
s6 43.5 8 59.5c5.33301 41.333 8 72.666 8 93.999c0 32.667 -12.667 50 -38 52z" />
    <glyph glyph-name="Ugrave" unicode="&#xd9;" 
d="M169 1760c-14.667 -1.33301 -26.333 -1.99609 -35 -1.99609c-59.333 0 -89 20.667 -89 62c0 34 9.33301 56.667 28 68c46 0 75 -3 87 -9s20.167 -10.333 24.5 -13s19.833 -8.33398 46.5 -17.001s48.5 -16.334 65.5 -23.001s36.833 -15.334 59.5 -26.001
c47.333 -22 71 -46.333 71 -73c0 -11.333 -5 -20.833 -15 -28.5s-19.5 -11.5 -28.5 -11.5s-20.333 2 -34 6s-29.667 9.33301 -48 16l-50 18.5l-49.5 19.5c-18 7.33301 -29 11.666 -33 12.999zM645.001 586.004l5.99805 -126.004v-31l-5 -22l1 -119c0 -120 -17 -205 -51 -255
c-32 -46.667 -81.667 -70 -149 -70c-82 0 -144.333 29.667 -187 89c-37.333 50.667 -64.666 118.667 -81.999 204c-22 102.667 -39.667 175.334 -53 218.001c-1.33301 3.33301 -8.83301 156 -22.5 458s-20.5 469.667 -20.5 503c-10 11.333 -15 25.333 -15 42
s5.83301 31.334 17.5 44.001s25.5 19 41.5 19c49.333 0 74 -48.667 74 -146l19 -712c8 -18 14.833 -54.333 20.5 -109s8.5 -97.167 8.5 -127.5s4.83301 -67.666 14.5 -111.999s22.834 -89.166 39.501 -134.499s39.167 -84 67.5 -116s58.5 -48 90.5 -48
c52 0 79.333 47 82 141c0.666992 12 1 26.333 1 43v919c0 38.667 -7.33301 97.167 -22 175.5s-22 131.333 -22 159s6.83301 46.667 20.5 57s29.167 15.5 46.5 15.5l62 -48v-34l-18 -125c0 -79.333 5 -195.5 15 -348.5s15.333 -266.5 16 -340.5v-3z" />
    <glyph glyph-name="Uacute" unicode="&#xda;" 
d="M382 1687c-46 0 -69 17.999 -69 53.999v2c1.33301 26.667 62 82.334 182 167.001c47.333 34 76 55.667 86 65c52 0 78 -18.667 78 -56c0 -0.666992 -3 -17 -9 -49c-44 -18 -91.5 -44.5 -142.5 -79.5s-92.833 -69.5 -125.5 -103.5zM645 585.999l5.99805 -126.004v-31
l-5 -22l1 -119c0 -120 -17 -205 -51 -255c-32 -46.667 -81.667 -70 -149 -70c-82 0 -144.333 29.667 -187 89c-37.333 50.667 -64.666 118.667 -81.999 204c-22 102.667 -39.667 175.334 -53 218.001c-1.33301 3.33301 -8.83301 156 -22.5 458s-20.5 469.667 -20.5 503
c-10 11.333 -15 25.333 -15 42s5.83301 31.334 17.5 44.001s25.5 19 41.5 19c49.333 0 74 -48.667 74 -146l19 -712c8 -18 14.833 -54.333 20.5 -109s8.5 -97.167 8.5 -127.5s4.83301 -67.666 14.5 -111.999s22.834 -89.166 39.501 -134.499s39.167 -84 67.5 -116
s58.5 -48 90.5 -48c52 0 79.333 47 82 141c0.666992 12 1 26.333 1 43v919c0 38.667 -7.33301 97.167 -22 175.5s-22 131.333 -22 159s6.83301 46.667 20.5 57s29.167 15.5 46.5 15.5l62 -48v-34l-18 -125c0 -79.333 5 -195.5 15 -348.5s15.333 -266.5 16 -340.5v-3z" />
    <glyph glyph-name="Ucircumflex" unicode="&#xdb;" 
d="M520 1762l17.9971 -25c0 -15.333 -6.83301 -27.5 -20.5 -36.5s-28.5 -13.5 -44.5 -13.5h-44c-11.333 114 -24.666 202.667 -39.999 266c-5.33301 -16 -12.666 -39.167 -21.999 -69.5l-22 -70.5c-16 -45.333 -39 -87 -69 -125l-67 48c2.66699 25.333 14.667 68 36 128
s47.833 117.5 79.5 172.5s58.834 82.5 81.501 82.5c34.667 0 52 -22.333 52 -67c0 -30 10.333 -71.333 31 -124s31 -90.667 31 -114v-52zM644.997 586l5.99805 -126.004v-31l-5 -22l1 -119c0 -120 -17 -205 -51 -255c-32 -46.667 -81.667 -70 -149 -70
c-82 0 -144.333 29.667 -187 89c-37.333 50.667 -64.666 118.667 -81.999 204c-22 102.667 -39.667 175.334 -53 218.001c-1.33301 3.33301 -8.83301 156 -22.5 458s-20.5 469.667 -20.5 503c-10 11.333 -15 25.333 -15 42s5.83301 31.334 17.5 44.001s25.5 19 41.5 19
c49.333 0 74 -48.667 74 -146l19 -712c8 -18 14.833 -54.333 20.5 -109s8.5 -97.167 8.5 -127.5s4.83301 -67.666 14.5 -111.999s22.834 -89.166 39.501 -134.499s39.167 -84 67.5 -116s58.5 -48 90.5 -48c52 0 79.333 47 82 141c0.666992 12 1 26.333 1 43v919
c0 38.667 -7.33301 97.167 -22 175.5s-22 131.333 -22 159s6.83301 46.667 20.5 57s29.167 15.5 46.5 15.5l62 -48v-34l-18 -125c0 -79.333 5 -195.5 15 -348.5s15.333 -266.5 16 -340.5v-3z" />
    <glyph glyph-name="Udieresis" unicode="&#xdc;" 
d="M529 1708c-12.667 14 -19.002 30.333 -19.002 49s7.33301 35.667 22 51s31.334 23 50.001 23s34.834 -7.5 48.501 -22.5s20.5 -32.333 20.5 -52s-7.66699 -36.167 -23 -49.5s-32.5 -20 -51.5 -20s-34.833 7 -47.5 21zM205.498 1708c-17 -14 -35.333 -21 -55 -21
s-34.667 6.33301 -45 19s-15.5 29 -15.5 49s6.66699 37.167 20 51.5s29.833 21.5 49.5 21.5s36.5 -6.66699 50.5 -20s21 -29.833 21 -49.5s-8.5 -36.5 -25.5 -50.5zM644.998 586l5.99805 -126.004v-31l-5 -22l1 -119c0 -120 -17 -205 -51 -255
c-32 -46.667 -81.667 -70 -149 -70c-82 0 -144.333 29.667 -187 89c-37.333 50.667 -64.666 118.667 -81.999 204c-22 102.667 -39.667 175.334 -53 218.001c-1.33301 3.33301 -8.83301 156 -22.5 458s-20.5 469.667 -20.5 503c-10 11.333 -15 25.333 -15 42
s5.83301 31.334 17.5 44.001s25.5 19 41.5 19c49.333 0 74 -48.667 74 -146l19 -712c8 -18 14.833 -54.333 20.5 -109s8.5 -97.167 8.5 -127.5s4.83301 -67.666 14.5 -111.999s22.834 -89.166 39.501 -134.499s39.167 -84 67.5 -116s58.5 -48 90.5 -48
c52 0 79.333 47 82 141c0.666992 12 1 26.333 1 43v919c0 38.667 -7.33301 97.167 -22 175.5s-22 131.333 -22 159s6.83301 46.667 20.5 57s29.167 15.5 46.5 15.5l62 -48v-34l-18 -125c0 -79.333 5 -195.5 15 -348.5s15.333 -266.5 16 -340.5v-3z" />
    <glyph glyph-name="Yacute" unicode="&#xdd;" horiz-adv-x="522" 
d="M284 1687c-46 0 -69 17.999 -69 53.999v2c1.33301 26.667 62 82.334 182 167.001c47.333 34 76 55.667 86 65c52 0 78 -18.667 78 -56c0 -0.666992 -3 -17 -9 -49c-44 -18 -91.5 -44.5 -142.5 -79.5s-92.833 -69.5 -125.5 -103.5zM353 182.999l-1.00195 -102v-46
c0 -18 -6 -32.5 -18 -43.5s-25.5 -16.5 -40.5 -16.5s-27.667 4.83301 -38 14.5s-15.5 21.5 -15.5 35.5l10 396c0 40 -6.5 99.167 -19.5 177.5s-19.5 141.333 -19.5 189s-8.16699 105.667 -24.5 174s-34.5 129.833 -54.5 184.5c-52.667 142.667 -79 265 -79 367
c0 22 21.667 33 65 33c10 0 20.333 -4 31 -12s16.334 -17 17.001 -27c13.333 -157.333 47.333 -324.333 102 -501c2.66699 12 5.83398 40.5 9.50098 85.5s8 91.167 13 138.5s11.5 95.333 19.5 144c18 110 45.167 165 81.5 165s54.5 -7.33301 54.5 -22
c0 -76.667 -16.333 -191 -49 -343s-49 -267.333 -49 -346l6 -71v-31z" />
    <glyph glyph-name="Thorn" unicode="&#xde;" horiz-adv-x="553" 
d="M120 58l-22 1239v190c0 40.667 16.333 61 49 61c46.667 0 70 -41.333 70 -124l-2 -71c55.333 -8 103 -33.333 143 -76c75.333 -80.667 113 -184.667 113 -312c0 -99.333 -21.333 -190 -64 -272s-104.667 -145.667 -186 -191l15 -428c0 -56.667 -22.333 -85 -67 -85
c-16.667 0 -29 7.16699 -37 21.5s-12 30.166 -12 47.499zM216 601.001c99.333 98 149 213.667 149 347c0 100 -17.333 170.667 -52 212c-18 22 -49.667 51.667 -95 89c0 -72 -0.333008 -180 -1 -324s-1 -252 -1 -324z" />
    <glyph glyph-name="germandbls" unicode="&#xdf;" horiz-adv-x="620" 
d="M116 538l-15.002 710.996c0 159.333 37.333 263.666 112 312.999c24 15.333 51 23 81 23s56.333 -8 79 -24s40.5 -36 53.5 -60s23.5 -51.667 31.5 -83c14.667 -54 22 -110.333 22 -169c0 -120.667 -40.667 -250.667 -122 -390
c72 -55.333 120.167 -113.166 144.5 -173.499s36.5 -134.833 36.5 -223.5c0 -179.333 -59.333 -317 -178 -413l-15 -4c-10.667 0 -21.167 3.33301 -31.5 10s-15.5 15.334 -15.5 26.001s7.33301 27.334 22 50.001s30.834 46 48.501 70s33.834 55 48.501 93s22 84.333 22 139
s-5.83301 107.834 -17.5 159.501s-26 90.334 -43 116.001s-33.833 46.834 -50.5 63.501l-42.5 43.5c-11.667 12.333 -17.5 24.333 -17.5 36s9.66699 41.167 29 88.5c56.667 142 85 253.333 85 334c0 32.667 -4.66699 66 -14 100c-18 66 -42.333 99 -73 99
c-46.667 0 -76.667 -42.333 -90 -127c-3.33301 -18.667 -5 -66.667 -5 -144s5.16699 -254.5 15.5 -531.5s15.5 -485.167 15.5 -624.5c0 -28.667 -4.5 -51.334 -13.5 -68.001s-26.5 -25 -52.5 -25c-40 0 -60 17 -60 51z" />
    <glyph glyph-name="agrave" unicode="&#xe0;" horiz-adv-x="674" 
d="M211 1553c-14.667 -1.33301 -26.333 -1.99609 -35 -1.99609c-59.333 0 -89 20.667 -89 62c0 34 9.33301 56.667 28 68c46 0 75 -3 87 -9s20.167 -10.333 24.5 -13s19.833 -8.33398 46.5 -17.001s48.5 -16.334 65.5 -23.001s36.833 -15.334 59.5 -26.001
c47.333 -22 71 -46.333 71 -73c0 -11.333 -5 -20.833 -15 -28.5s-19.5 -11.5 -28.5 -11.5s-20.333 2 -34 6s-29.667 9.33301 -48 16l-50 18.5l-49.5 19.5c-18 7.33301 -29 11.666 -33 12.999zM572.001 331.004l-11 -41.001c0 -16.667 6 -57.334 18 -122.001s18 -107 18 -127
v-2c0 -30.667 -10.333 -50 -31 -58c-28.667 0 -51 4.66699 -67 14s-24 32.833 -24 70.5s-10 115.167 -30 232.5l-63 6h-68c-15.333 6.66699 -42.333 10 -81 10c0 -1.33301 -0.833008 -10.166 -2.5 -26.499l-4 -39.5c-1 -10 -2.66699 -24.833 -5 -44.5
s-4.83301 -36.334 -7.5 -50.001s-6 -29.667 -10 -48s-8.5 -33.666 -13.5 -45.999s-10.5 -24.166 -16.5 -35.499c-12 -23.333 -26.667 -35 -44 -35s-32.833 5.16699 -46.5 15.5s-20.5 23.5 -20.5 39.5c36 138 66.833 282.667 92.5 434l46 269.5c5 28.333 16.667 83 35 164
s29.333 135.167 33 162.5s7.16699 62.666 10.5 105.999c6 94.667 18.333 155.667 37 183h69c46.667 0 70 -14 70 -42c0 -263.333 25.667 -525 77 -785c2.66699 -15.333 7.66699 -36.666 15 -63.999c16 -59.333 24 -106.333 24 -141zM432.001 375.003
c-4 20 -5.99902 52.333 -5.99902 97s-2.83301 98.834 -8.5 162.501s-13.834 137.5 -24.501 221.5s-18 144.667 -22 182c-8 -38.667 -23.667 -103.334 -47 -194.001c-47.333 -188.667 -71.666 -334 -72.999 -436c23.333 -15.333 83.666 -26.333 180.999 -33z" />
    <glyph glyph-name="aacute" unicode="&#xe1;" horiz-adv-x="674" 
d="M424 1480c-46 0 -69 17.999 -69 53.999v2c1.33301 26.667 62 82.334 182 167.001c47.333 34 76 55.667 86 65c52 0 78 -18.667 78 -56c0 -0.666992 -3 -17 -9 -49c-44 -18 -91.5 -44.5 -142.5 -79.5s-92.833 -69.5 -125.5 -103.5zM572 330.999l-11 -41.001
c0 -16.667 6 -57.334 18 -122.001s18 -107 18 -127v-2c0 -30.667 -10.333 -50 -31 -58c-28.667 0 -51 4.66699 -67 14s-24 32.833 -24 70.5s-10 115.167 -30 232.5l-63 6h-68c-15.333 6.66699 -42.333 10 -81 10c0 -1.33301 -0.833008 -10.166 -2.5 -26.499l-4 -39.5
c-1 -10 -2.66699 -24.833 -5 -44.5s-4.83301 -36.334 -7.5 -50.001s-6 -29.667 -10 -48s-8.5 -33.666 -13.5 -45.999s-10.5 -24.166 -16.5 -35.499c-12 -23.333 -26.667 -35 -44 -35s-32.833 5.16699 -46.5 15.5s-20.5 23.5 -20.5 39.5c36 138 66.833 282.667 92.5 434
l46 269.5c5 28.333 16.667 83 35 164s29.333 135.167 33 162.5s7.16699 62.666 10.5 105.999c6 94.667 18.333 155.667 37 183h69c46.667 0 70 -14 70 -42c0 -263.333 25.667 -525 77 -785c2.66699 -15.333 7.66699 -36.666 15 -63.999c16 -59.333 24 -106.333 24 -141z
M432 374.998c-4 20 -5.99902 52.333 -5.99902 97s-2.83301 98.834 -8.5 162.501s-13.834 137.5 -24.501 221.5s-18 144.667 -22 182c-8 -38.667 -23.667 -103.334 -47 -194.001c-47.333 -188.667 -71.666 -334 -72.999 -436c23.333 -15.333 83.666 -26.333 180.999 -33z" />
    <glyph glyph-name="acircumflex" unicode="&#xe2;" horiz-adv-x="674" 
d="M562 1555l17.9971 -25c0 -15.333 -6.83301 -27.5 -20.5 -36.5s-28.5 -13.5 -44.5 -13.5h-44c-11.333 114 -24.666 202.667 -39.999 266c-5.33301 -16 -12.666 -39.167 -21.999 -69.5l-22 -70.5c-16 -45.333 -39 -87 -69 -125l-67 48c2.66699 25.333 14.667 68 36 128
s47.833 117.5 79.5 172.5s58.834 82.5 81.501 82.5c34.667 0 52 -22.333 52 -67c0 -30 10.333 -71.333 31 -124s31 -90.667 31 -114v-52zM571.997 331l-11 -41.001c0 -16.667 6 -57.334 18 -122.001s18 -107 18 -127v-2c0 -30.667 -10.333 -50 -31 -58
c-28.667 0 -51 4.66699 -67 14s-24 32.833 -24 70.5s-10 115.167 -30 232.5l-63 6h-68c-15.333 6.66699 -42.333 10 -81 10c0 -1.33301 -0.833008 -10.166 -2.5 -26.499l-4 -39.5c-1 -10 -2.66699 -24.833 -5 -44.5s-4.83301 -36.334 -7.5 -50.001s-6 -29.667 -10 -48
s-8.5 -33.666 -13.5 -45.999s-10.5 -24.166 -16.5 -35.499c-12 -23.333 -26.667 -35 -44 -35s-32.833 5.16699 -46.5 15.5s-20.5 23.5 -20.5 39.5c36 138 66.833 282.667 92.5 434l46 269.5c5 28.333 16.667 83 35 164s29.333 135.167 33 162.5s7.16699 62.666 10.5 105.999
c6 94.667 18.333 155.667 37 183h69c46.667 0 70 -14 70 -42c0 -263.333 25.667 -525 77 -785c2.66699 -15.333 7.66699 -36.666 15 -63.999c16 -59.333 24 -106.333 24 -141zM431.997 374.999c-4 20 -5.99902 52.333 -5.99902 97s-2.83301 98.834 -8.5 162.501
s-13.834 137.5 -24.501 221.5s-18 144.667 -22 182c-8 -38.667 -23.667 -103.334 -47 -194.001c-47.333 -188.667 -71.666 -334 -72.999 -436c23.333 -15.333 83.666 -26.333 180.999 -33z" />
    <glyph glyph-name="atilde" unicode="&#xe3;" horiz-adv-x="674" 
d="M550 1630l-12.999 45c10.667 21.333 26.667 32 48 32s38 -9.66699 50 -29s18 -43.833 18 -73.5s-13.167 -57.667 -39.5 -84s-55 -39.5 -86 -39.5s-59.5 7.16699 -85.5 21.5s-46.667 29 -62 44s-34 35.167 -56 60.5v2l-53 -31v-98c-22.667 0 -44.834 5.16699 -66.501 15.5
s-32.5 24.833 -32.5 43.5c0 46.667 13.5 86.5 40.5 119.5s63.167 49.5 108.5 49.5l102 -52c6 -16 16.167 -32 30.5 -48s28.833 -24 43.5 -24v1c4 4 10.667 8.33301 20 13c22 9.33301 33 20 33 32zM572.001 331l-11 -41.001c0 -16.667 6 -57.334 18 -122.001s18 -107 18 -127
v-2c0 -30.667 -10.333 -50 -31 -58c-28.667 0 -51 4.66699 -67 14s-24 32.833 -24 70.5s-10 115.167 -30 232.5l-63 6h-68c-15.333 6.66699 -42.333 10 -81 10c0 -1.33301 -0.833008 -10.166 -2.5 -26.499l-4 -39.5c-1 -10 -2.66699 -24.833 -5 -44.5
s-4.83301 -36.334 -7.5 -50.001s-6 -29.667 -10 -48s-8.5 -33.666 -13.5 -45.999s-10.5 -24.166 -16.5 -35.499c-12 -23.333 -26.667 -35 -44 -35s-32.833 5.16699 -46.5 15.5s-20.5 23.5 -20.5 39.5c36 138 66.833 282.667 92.5 434l46 269.5c5 28.333 16.667 83 35 164
s29.333 135.167 33 162.5s7.16699 62.666 10.5 105.999c6 94.667 18.333 155.667 37 183h69c46.667 0 70 -14 70 -42c0 -263.333 25.667 -525 77 -785c2.66699 -15.333 7.66699 -36.666 15 -63.999c16 -59.333 24 -106.333 24 -141zM432.001 374.999
c-4 20 -5.99902 52.333 -5.99902 97s-2.83301 98.834 -8.5 162.501s-13.834 137.5 -24.501 221.5s-18 144.667 -22 182c-8 -38.667 -23.667 -103.334 -47 -194.001c-47.333 -188.667 -71.666 -334 -72.999 -436c23.333 -15.333 83.666 -26.333 180.999 -33z" />
    <glyph glyph-name="adieresis" unicode="&#xe4;" horiz-adv-x="674" 
d="M571 1501c-12.667 14 -19.002 30.333 -19.002 49s7.33301 35.667 22 51s31.334 23 50.001 23s34.834 -7.5 48.501 -22.5s20.5 -32.333 20.5 -52s-7.66699 -36.167 -23 -49.5s-32.5 -20 -51.5 -20s-34.833 7 -47.5 21zM247.498 1501c-17 -14 -35.333 -21 -55 -21
s-34.667 6.33301 -45 19s-15.5 29 -15.5 49s6.66699 37.167 20 51.5s29.833 21.5 49.5 21.5s36.5 -6.66699 50.5 -20s21 -29.833 21 -49.5s-8.5 -36.5 -25.5 -50.5zM571.998 331l-11 -41.001c0 -16.667 6 -57.334 18 -122.001s18 -107 18 -127v-2
c0 -30.667 -10.333 -50 -31 -58c-28.667 0 -51 4.66699 -67 14s-24 32.833 -24 70.5s-10 115.167 -30 232.5l-63 6h-68c-15.333 6.66699 -42.333 10 -81 10c0 -1.33301 -0.833008 -10.166 -2.5 -26.499l-4 -39.5c-1 -10 -2.66699 -24.833 -5 -44.5
s-4.83301 -36.334 -7.5 -50.001s-6 -29.667 -10 -48s-8.5 -33.666 -13.5 -45.999s-10.5 -24.166 -16.5 -35.499c-12 -23.333 -26.667 -35 -44 -35s-32.833 5.16699 -46.5 15.5s-20.5 23.5 -20.5 39.5c36 138 66.833 282.667 92.5 434l46 269.5c5 28.333 16.667 83 35 164
s29.333 135.167 33 162.5s7.16699 62.666 10.5 105.999c6 94.667 18.333 155.667 37 183h69c46.667 0 70 -14 70 -42c0 -263.333 25.667 -525 77 -785c2.66699 -15.333 7.66699 -36.666 15 -63.999c16 -59.333 24 -106.333 24 -141zM431.998 374.999
c-4 20 -5.99902 52.333 -5.99902 97s-2.83301 98.834 -8.5 162.501s-13.834 137.5 -24.501 221.5s-18 144.667 -22 182c-8 -38.667 -23.667 -103.334 -47 -194.001c-47.333 -188.667 -71.666 -334 -72.999 -436c23.333 -15.333 83.666 -26.333 180.999 -33z" />
    <glyph glyph-name="aring" unicode="&#xe5;" horiz-adv-x="674" 
d="M333 1513c-20 22 -30 47.668 -30 77.001s11.667 56.5 35 81.5s49.833 37.5 79.5 37.5s55.5 -12 77.5 -36s33 -51.833 33 -83.5s-11.833 -57.834 -35.5 -78.501s-51.167 -31 -82.5 -31s-57 11 -77 33zM417 1596l-24 -30h38c0 28.667 -4.66699 47.667 -14 57v-27z
M572 331.001l-11 -41.001c0 -16.667 6 -57.334 18 -122.001s18 -107 18 -127v-2c0 -30.667 -10.333 -50 -31 -58c-28.667 0 -51 4.66699 -67 14s-24 32.833 -24 70.5s-10 115.167 -30 232.5l-63 6h-68c-15.333 6.66699 -42.333 10 -81 10
c0 -1.33301 -0.833008 -10.166 -2.5 -26.499l-4 -39.5c-1 -10 -2.66699 -24.833 -5 -44.5s-4.83301 -36.334 -7.5 -50.001s-6 -29.667 -10 -48s-8.5 -33.666 -13.5 -45.999s-10.5 -24.166 -16.5 -35.499c-12 -23.333 -26.667 -35 -44 -35s-32.833 5.16699 -46.5 15.5
s-20.5 23.5 -20.5 39.5c36 138 66.833 282.667 92.5 434l46 269.5c5 28.333 16.667 83 35 164s29.333 135.167 33 162.5s7.16699 62.666 10.5 105.999c6 94.667 18.333 155.667 37 183h69c46.667 0 70 -14 70 -42c0 -263.333 25.667 -525 77 -785
c2.66699 -15.333 7.66699 -36.666 15 -63.999c16 -59.333 24 -106.333 24 -141zM432 375c-4 20 -5.99902 52.333 -5.99902 97s-2.83301 98.834 -8.5 162.501s-13.834 137.5 -24.501 221.5s-18 144.667 -22 182c-8 -38.667 -23.667 -103.334 -47 -194.001
c-47.333 -188.667 -71.666 -334 -72.999 -436c23.333 -15.333 83.666 -26.333 180.999 -33z" />
    <glyph glyph-name="ae" unicode="&#xe6;" horiz-adv-x="921" 
d="M470 666c4.66699 112 7.00098 202.332 7.00098 270.999s-0.666992 117.334 -2 146.001c-78.667 -200.667 -129.334 -345.667 -152.001 -435c55.333 2 104.333 8 147 18zM589.001 -14.001l-80.001 1c-9.33301 0 -18.5 3 -27.5 9s-13.5 13.667 -13.5 23l15 234l-10 340
c-9.33301 -0.666992 -23.333 -1.5 -42 -2.5s-33.667 -1.83301 -45 -2.5c-33.333 -3.33301 -61 -9 -83 -17l-169 -578c-12 0 -26.167 6.66699 -42.5 20s-24.5 25 -24.5 35c0 104 78.333 375.333 235 814c75.333 212 116.333 329.667 123 353s11.834 39.833 15.501 49.5
s9.5 21.167 17.5 34.5c14.667 26 42.667 41.667 84 47s89.833 8 145.5 8s83.5 -18.667 83.5 -56v-48c-42.667 -6.66699 -113.667 -10 -213 -10l14 -274l-6 -290l156 9l42 -38c0 -34 -38.333 -50.667 -115 -50h-84l6 -515l225 21c16.667 0 32.167 -4.5 46.5 -13.5
s21.5 -21.167 21.5 -36.5c0 -44.667 -91.667 -67 -275 -67z" />
    <glyph glyph-name="ccedilla" unicode="&#xe7;" horiz-adv-x="568" 
d="M348 -191c12.667 25.333 18.999 62.665 18.999 111.998v47h112c-7.33301 -38 -11.666 -69 -12.999 -93c52 -10 89.833 -36 113.5 -78s35.5 -88.5 35.5 -139.5s-18.667 -96.333 -56 -136s-74.166 -59.5 -110.499 -59.5s-66.166 6.83301 -89.499 20.5
s-35 29.834 -35 48.501s4.66699 32.334 14 41.001s23.166 13 41.499 13s37.166 -6.66699 56.499 -20c10 0.666992 20.167 8.16699 30.5 22.5s15.5 26.833 15.5 37.5s-1.16699 21.5 -3.5 32.5s-5.83301 23.5 -10.5 37.5s-7.66699 24.333 -9 31l35 -35v9
c0 24 -5.66699 41.333 -17 52c-22 -3.33301 -39.667 -5 -53 -5s-25.333 4.16699 -36 12.5s-24 24.833 -40 49.5zM436.999 96.999c41.333 0 62.001 -14.998 62.001 -44.998c0 -54 -38 -81 -114 -81c-31.333 0 -63.5 4.5 -96.5 13.5s-57.833 18.833 -74.5 29.5
c-90.667 58.667 -136 219 -136 481l-1 120c0 392.667 48 624.334 144 695.001c49.333 36 118 54 206 54c14.667 0 28.167 -5.33301 40.5 -16s18.5 -23 18.5 -37v-8c-12.667 -31.333 -45.667 -47 -99 -47l-37 2c-22.667 0 -42.834 -12.333 -60.501 -37
s-31.167 -54.334 -40.5 -89.001s-17 -73.334 -23 -116.001c-9.33301 -67.333 -14 -130.333 -14 -189v-10l-13 -395c0 -83.333 4.5 -141 13.5 -173s18.333 -57.833 28 -77.5s21.167 -35.834 34.5 -48.501c30.667 -29.333 70 -44 118 -44c16 0 30.667 6 44 18z" />
    <glyph glyph-name="egrave" unicode="&#xe8;" horiz-adv-x="517" 
d="M60 1553c-14.667 -1.33301 -26.333 -1.99609 -35 -1.99609c-59.333 0 -89 20.667 -89 62c0 34 9.33301 56.667 28 68c46 0 75 -3 87 -9s20.167 -10.333 24.5 -13s19.833 -8.33398 46.5 -17.001s48.5 -16.334 65.5 -23.001s36.833 -15.334 59.5 -26.001
c47.333 -22 71 -46.333 71 -73c0 -11.333 -5 -20.833 -15 -28.5s-19.5 -11.5 -28.5 -11.5s-20.333 2 -34 6s-29.667 9.33301 -48 16l-50 18.5l-49.5 19.5c-18 7.33301 -29 11.666 -33 12.999zM289.001 77.0039l81.002 5.00195c52 0 78 -16.667 78 -50
c0 -20.667 -9 -35.667 -27 -45s-38.333 -14 -61 -14h-193c-17.333 0 -32.166 6 -44.499 18s-19 27.333 -20 46s0.333008 42 4 70s5.5 50.333 5.5 67l-10 262l14 598l-11 173c0 96.667 28.667 145 86 145c16 0 31 -5 45 -15
c5.33301 -0.666992 18.166 -1.83398 38.499 -3.50098s38.166 -3.83398 53.499 -6.50098s32 -6.33398 50 -11.001c38.667 -10.667 58 -29 58 -55c0 -28 -20 -49.333 -60 -64c-62.667 21.333 -114.334 34.333 -155.001 39c2 -29.333 3 -58.666 3 -87.999l-9 -294
c0 -1.33301 2 -12 6 -32l73 3c66 0 99 -18.667 99 -56c0 -20 -5.83301 -37.667 -17.5 -53s-28.167 -23 -49.5 -23s-40 6 -56 18h-52c4 -52 6 -101.333 6 -148l-9 -371c0 -76.667 24.667 -115 74 -115z" />
    <glyph glyph-name="eacute" unicode="&#xe9;" horiz-adv-x="517" 
d="M231 1480c-46 0 -69 17.999 -69 53.999v2c1.33301 26.667 62 82.334 182 167.001c47.333 34 76 55.667 86 65c52 0 78 -18.667 78 -56c0 -0.666992 -3 -17 -9 -49c-44 -18 -91.5 -44.5 -142.5 -79.5s-92.833 -69.5 -125.5 -103.5zM289 76.999l81.002 5.00195
c52 0 78 -16.667 78 -50c0 -20.667 -9 -35.667 -27 -45s-38.333 -14 -61 -14h-193c-17.333 0 -32.166 6 -44.499 18s-19 27.333 -20 46s0.333008 42 4 70s5.5 50.333 5.5 67l-10 262l14 598l-11 173c0 96.667 28.667 145 86 145c16 0 31 -5 45 -15
c5.33301 -0.666992 18.166 -1.83398 38.499 -3.50098s38.166 -3.83398 53.499 -6.50098s32 -6.33398 50 -11.001c38.667 -10.667 58 -29 58 -55c0 -28 -20 -49.333 -60 -64c-62.667 21.333 -114.334 34.333 -155.001 39c2 -29.333 3 -58.666 3 -87.999l-9 -294
c0 -1.33301 2 -12 6 -32l73 3c66 0 99 -18.667 99 -56c0 -20 -5.83301 -37.667 -17.5 -53s-28.167 -23 -49.5 -23s-40 6 -56 18h-52c4 -52 6 -101.333 6 -148l-9 -371c0 -76.667 24.667 -115 74 -115z" />
    <glyph glyph-name="ecircumflex" unicode="&#xea;" horiz-adv-x="517" 
d="M411 1555l17.9971 -25c0 -15.333 -6.83301 -27.5 -20.5 -36.5s-28.5 -13.5 -44.5 -13.5h-44c-11.333 114 -24.666 202.667 -39.999 266c-5.33301 -16 -12.666 -39.167 -21.999 -69.5l-22 -70.5c-16 -45.333 -39 -87 -69 -125l-67 48c2.66699 25.333 14.667 68 36 128
s47.833 117.5 79.5 172.5s58.834 82.5 81.501 82.5c34.667 0 52 -22.333 52 -67c0 -30 10.333 -71.333 31 -124s31 -90.667 31 -114v-52zM288.997 77l81.002 5.00195c52 0 78 -16.667 78 -50c0 -20.667 -9 -35.667 -27 -45s-38.333 -14 -61 -14h-193
c-17.333 0 -32.166 6 -44.499 18s-19 27.333 -20 46s0.333008 42 4 70s5.5 50.333 5.5 67l-10 262l14 598l-11 173c0 96.667 28.667 145 86 145c16 0 31 -5 45 -15c5.33301 -0.666992 18.166 -1.83398 38.499 -3.50098s38.166 -3.83398 53.499 -6.50098
s32 -6.33398 50 -11.001c38.667 -10.667 58 -29 58 -55c0 -28 -20 -49.333 -60 -64c-62.667 21.333 -114.334 34.333 -155.001 39c2 -29.333 3 -58.666 3 -87.999l-9 -294c0 -1.33301 2 -12 6 -32l73 3c66 0 99 -18.667 99 -56c0 -20 -5.83301 -37.667 -17.5 -53
s-28.167 -23 -49.5 -23s-40 6 -56 18h-52c4 -52 6 -101.333 6 -148l-9 -371c0 -76.667 24.667 -115 74 -115z" />
    <glyph glyph-name="edieresis" unicode="&#xeb;" horiz-adv-x="517" 
d="M420 1501c-12.667 14 -19.002 30.333 -19.002 49s7.33301 35.667 22 51s31.334 23 50.001 23s34.834 -7.5 48.501 -22.5s20.5 -32.333 20.5 -52s-7.66699 -36.167 -23 -49.5s-32.5 -20 -51.5 -20s-34.833 7 -47.5 21zM96.498 1501c-17 -14 -35.333 -21 -55 -21
s-34.667 6.33301 -45 19s-15.5 29 -15.5 49s6.66699 37.167 20 51.5s29.833 21.5 49.5 21.5s36.5 -6.66699 50.5 -20s21 -29.833 21 -49.5s-8.5 -36.5 -25.5 -50.5zM288.998 77l81.002 5.00195c52 0 78 -16.667 78 -50c0 -20.667 -9 -35.667 -27 -45s-38.333 -14 -61 -14
h-193c-17.333 0 -32.166 6 -44.499 18s-19 27.333 -20 46s0.333008 42 4 70s5.5 50.333 5.5 67l-10 262l14 598l-11 173c0 96.667 28.667 145 86 145c16 0 31 -5 45 -15c5.33301 -0.666992 18.166 -1.83398 38.499 -3.50098s38.166 -3.83398 53.499 -6.50098
s32 -6.33398 50 -11.001c38.667 -10.667 58 -29 58 -55c0 -28 -20 -49.333 -60 -64c-62.667 21.333 -114.334 34.333 -155.001 39c2 -29.333 3 -58.666 3 -87.999l-9 -294c0 -1.33301 2 -12 6 -32l73 3c66 0 99 -18.667 99 -56c0 -20 -5.83301 -37.667 -17.5 -53
s-28.167 -23 -49.5 -23s-40 6 -56 18h-52c4 -52 6 -101.333 6 -148l-9 -371c0 -76.667 24.667 -115 74 -115z" />
    <glyph glyph-name="igrave" unicode="&#xec;" horiz-adv-x="552" 
d="M95 1553c-14.667 -1.33301 -26.333 -1.99609 -35 -1.99609c-59.333 0 -89 20.667 -89 62c0 34 9.33301 56.667 28 68c46 0 75 -3 87 -9s20.167 -10.333 24.5 -13s19.833 -8.33398 46.5 -17.001s48.5 -16.334 65.5 -23.001s36.833 -15.334 59.5 -26.001
c47.333 -22 71 -46.333 71 -73c0 -11.333 -5 -20.833 -15 -28.5s-19.5 -11.5 -28.5 -11.5s-20.333 2 -34 6s-29.667 9.33301 -48 16l-50 18.5l-49.5 19.5c-18 7.33301 -29 11.666 -33 12.999zM314.001 681.004l14.998 -435.002v-61c0 -8 -0.333008 -15.667 -1 -23
c-1.33301 -12.667 0.666992 -23 6 -31v-3l75 2c56 0 84 -17 84 -51c0 -17.333 -6.83301 -32.166 -20.5 -44.499s-29.5 -18.5 -47.5 -18.5l-68 7c-3.33301 0 -13.666 -3.83301 -30.999 -11.5s-36.5 -11.5 -57.5 -11.5s-38.5 6.66699 -52.5 20c-10.667 -1.33301 -19 -2 -25 -2
c-38 0 -63.333 12.333 -76 37c0 26.667 10.667 45 32 55v8h65l4 27l-14 435l11 456c0 76.667 -3.33301 149.334 -10 218.001h-79.5c-24.333 0 -42.166 3.83301 -53.499 11.5s-17 22.167 -17 43.5c0 32 37 47.667 111 47h7c175.333 0 263 -27.667 263 -83
c0 -7.33301 -4 -20 -12 -38h-105c5.33301 -50 8 -104.333 8 -163z" />
    <glyph glyph-name="iacute" unicode="&#xed;" horiz-adv-x="552" 
d="M308 1480c-46 0 -69 17.999 -69 53.999v2c1.33301 26.667 62 82.334 182 167.001c47.333 34 76 55.667 86 65c52 0 78 -18.667 78 -56c0 -0.666992 -3 -17 -9 -49c-44 -18 -91.5 -44.5 -142.5 -79.5s-92.833 -69.5 -125.5 -103.5zM314 680.999l14.998 -435.002v-61
c0 -8 -0.333008 -15.667 -1 -23c-1.33301 -12.667 0.666992 -23 6 -31v-3l75 2c56 0 84 -17 84 -51c0 -17.333 -6.83301 -32.166 -20.5 -44.499s-29.5 -18.5 -47.5 -18.5l-68 7c-3.33301 0 -13.666 -3.83301 -30.999 -11.5s-36.5 -11.5 -57.5 -11.5s-38.5 6.66699 -52.5 20
c-10.667 -1.33301 -19 -2 -25 -2c-38 0 -63.333 12.333 -76 37c0 26.667 10.667 45 32 55v8h65l4 27l-14 435l11 456c0 76.667 -3.33301 149.334 -10 218.001h-79.5c-24.333 0 -42.166 3.83301 -53.499 11.5s-17 22.167 -17 43.5c0 32 37 47.667 111 47h7
c175.333 0 263 -27.667 263 -83c0 -7.33301 -4 -20 -12 -38h-105c5.33301 -50 8 -104.333 8 -163z" />
    <glyph glyph-name="icircumflex" unicode="&#xee;" horiz-adv-x="552" 
d="M446 1555l17.9971 -25c0 -15.333 -6.83301 -27.5 -20.5 -36.5s-28.5 -13.5 -44.5 -13.5h-44c-11.333 114 -24.666 202.667 -39.999 266c-5.33301 -16 -12.666 -39.167 -21.999 -69.5l-22 -70.5c-16 -45.333 -39 -87 -69 -125l-67 48c2.66699 25.333 14.667 68 36 128
s47.833 117.5 79.5 172.5s58.834 82.5 81.501 82.5c34.667 0 52 -22.333 52 -67c0 -30 10.333 -71.333 31 -124s31 -90.667 31 -114v-52zM313.997 681l14.998 -435.002v-61c0 -8 -0.333008 -15.667 -1 -23c-1.33301 -12.667 0.666992 -23 6 -31v-3l75 2c56 0 84 -17 84 -51
c0 -17.333 -6.83301 -32.166 -20.5 -44.499s-29.5 -18.5 -47.5 -18.5l-68 7c-3.33301 0 -13.666 -3.83301 -30.999 -11.5s-36.5 -11.5 -57.5 -11.5s-38.5 6.66699 -52.5 20c-10.667 -1.33301 -19 -2 -25 -2c-38 0 -63.333 12.333 -76 37c0 26.667 10.667 45 32 55v8h65l4 27
l-14 435l11 456c0 76.667 -3.33301 149.334 -10 218.001h-79.5c-24.333 0 -42.166 3.83301 -53.499 11.5s-17 22.167 -17 43.5c0 32 37 47.667 111 47h7c175.333 0 263 -27.667 263 -83c0 -7.33301 -4 -20 -12 -38h-105c5.33301 -50 8 -104.333 8 -163z" />
    <glyph glyph-name="idieresis" unicode="&#xef;" horiz-adv-x="552" 
d="M455 1501c-12.667 14 -19.002 30.333 -19.002 49s7.33301 35.667 22 51s31.334 23 50.001 23s34.834 -7.5 48.501 -22.5s20.5 -32.333 20.5 -52s-7.66699 -36.167 -23 -49.5s-32.5 -20 -51.5 -20s-34.833 7 -47.5 21zM131.498 1501c-17 -14 -35.333 -21 -55 -21
s-34.667 6.33301 -45 19s-15.5 29 -15.5 49s6.66699 37.167 20 51.5s29.833 21.5 49.5 21.5s36.5 -6.66699 50.5 -20s21 -29.833 21 -49.5s-8.5 -36.5 -25.5 -50.5zM313.998 681l14.998 -435.002v-61c0 -8 -0.333008 -15.667 -1 -23c-1.33301 -12.667 0.666992 -23 6 -31v-3
l75 2c56 0 84 -17 84 -51c0 -17.333 -6.83301 -32.166 -20.5 -44.499s-29.5 -18.5 -47.5 -18.5l-68 7c-3.33301 0 -13.666 -3.83301 -30.999 -11.5s-36.5 -11.5 -57.5 -11.5s-38.5 6.66699 -52.5 20c-10.667 -1.33301 -19 -2 -25 -2c-38 0 -63.333 12.333 -76 37
c0 26.667 10.667 45 32 55v8h65l4 27l-14 435l11 456c0 76.667 -3.33301 149.334 -10 218.001h-79.5c-24.333 0 -42.166 3.83301 -53.499 11.5s-17 22.167 -17 43.5c0 32 37 47.667 111 47h7c175.333 0 263 -27.667 263 -83c0 -7.33301 -4 -20 -12 -38h-105
c5.33301 -50 8 -104.333 8 -163z" />
    <glyph glyph-name="eth" unicode="&#xf0;" horiz-adv-x="559" 
d="M471 1355c11.333 0 16.9922 -9.66699 16.9922 -29c0 -26 -35 -45.667 -105 -59c34.667 -161.333 52 -370 52 -626l-9 -358c0 -77.333 -3.83301 -128.833 -11.5 -154.5s-15.667 -47.167 -24 -64.5s-18.5 -31.333 -30.5 -42c-28 -24.667 -63.333 -37 -106 -37
c-97.333 0 -152.666 66.333 -165.999 199c-3.33301 36.667 -5.16602 67.334 -5.49902 92.001s-0.666016 41.834 -0.999023 51.501s-0.666016 29.334 -0.999023 59.001s-0.166016 58.834 0.500977 87.501s2.83398 62.667 6.50098 102s8.33398 75.666 14.001 108.999
s14 67.166 25 101.499s23.833 63.5 38.5 87.5c33.333 54.667 76.333 82 129 82c5.33301 0 14 -0.666992 26 -2c-16.667 126 -32.667 225 -48 297c-56 -6 -112.333 -9 -169 -9c-11.333 0 -17 10 -17 30c0 31.333 55.333 54 166 68c-20 74 -38.667 118.333 -56 133
c-28.667 4.66699 -49.5 13.667 -62.5 27s-19.5 26.166 -19.5 38.499s5.66699 22.666 17 30.999s23.333 12.5 36 12.5c84.667 0 149.334 -77 194.001 -231c49.333 2.66699 86 4 110 4zM181.992 390l-1.00098 -38v-27c0 -168.667 22.667 -253 68 -253
c39.333 0 61.333 26.667 66 80c0.666992 7.33301 1.33398 17.833 2.00098 31.5s4.66699 68 12 163s11 202.5 11 322.5s-19.667 192 -59 216c-32 -8.66699 -57 -57 -75 -145c-16 -74.667 -24 -176.667 -24 -306v-44z" />
    <glyph glyph-name="ntilde" unicode="&#xf1;" horiz-adv-x="769" 
d="M582 1630l-12.999 45c10.667 21.333 26.667 32 48 32s38 -9.66699 50 -29s18 -43.833 18 -73.5s-13.167 -57.667 -39.5 -84s-55 -39.5 -86 -39.5s-59.5 7.16699 -85.5 21.5s-46.667 29 -62 44s-34 35.167 -56 60.5v2l-53 -31v-98c-22.667 0 -44.834 5.16699 -66.501 15.5
s-32.5 24.833 -32.5 43.5c0 46.667 13.5 86.5 40.5 119.5s63.167 49.5 108.5 49.5l102 -52c6 -16 16.167 -32 30.5 -48s28.833 -24 43.5 -24v1c4 4 10.667 8.33301 20 13c22 9.33301 33 20 33 32zM211.001 808l12.002 -530.001v-232c0 -18 -4.66699 -33.167 -14 -45.5
s-22.333 -18.5 -39 -18.5c-44.667 0 -67 41.667 -67 125l-4 722l12 382c0 92 25 138 75 138c30 0 51.667 -23 65 -69c18.667 -88 51.167 -214.5 97.5 -379.5s78.166 -290.5 95.499 -376.5c12.667 -42 29 -104.167 49 -186.5s35.667 -144.166 47 -185.499
c5.33301 296 8 654.667 8 1076l-3 55c0 18.667 3.5 33.5 10.5 44.5s18.833 16.5 35.5 16.5s30.334 -4 41.001 -12c21.333 -16 32 -38.667 32 -68c0 -187.333 -5.33301 -428 -16 -722s-26.667 -477.667 -48 -551c-2.66699 -0.666992 -8.33398 -2.5 -17.001 -5.5
s-15 -4.83301 -19 -5.5c-38 -8.66699 -62 -7 -72 5s-17.167 28 -21.5 48s-9.33301 39.5 -15 58.5s-26.834 109.833 -63.501 272.5c-98 430 -158.333 680 -181 750v-306z" />
    <glyph glyph-name="ograve" unicode="&#xf2;" horiz-adv-x="669" 
d="M127 1553c-14.667 -1.33301 -26.333 -1.99609 -35 -1.99609c-59.333 0 -89 20.667 -89 62c0 34 9.33301 56.667 28 68c46 0 75 -3 87 -9s20.167 -10.333 24.5 -13s19.833 -8.33398 46.5 -17.001s48.5 -16.334 65.5 -23.001s36.833 -15.334 59.5 -26.001
c47.333 -22 71 -46.333 71 -73c0 -11.333 -5 -20.833 -15 -28.5s-19.5 -11.5 -28.5 -11.5s-20.333 2 -34 6s-29.667 9.33301 -48 16l-50 18.5l-49.5 19.5c-18 7.33301 -29 11.666 -33 12.999zM190.001 1033l3 -120.001l-1 -196c0 -16.667 0.333008 -36.334 1 -59.001
s1.5 -52.5 2.5 -89.5s3 -73.667 6 -110s6.5 -74.666 10.5 -114.999s9.33301 -77.666 16 -111.999s14 -65.5 22 -93.5c18 -60.667 41.667 -91 71 -91c39.333 0 69.333 37 90 111c30.667 110 46 245.333 46 406l3 211c0 148 -6.5 247.667 -19.5 299s-25.167 90 -36.5 116
c-22.667 52.667 -57 79 -103 79h-4c-71.333 0 -107 -78.667 -107 -236zM570.001 551.003c0 -392.667 -80.335 -588.997 -241.002 -588.997c-148 0 -231 186 -249 558c-1.33301 35.333 -2 70.666 -2 105.999l-1 125v40c0 288.667 42.333 467 127 535
c20.667 16.667 43.667 25.667 69 27c19.333 -6.66699 43 -12.834 71 -18.501s48.667 -11.5 62 -17.5c24.667 -11.333 51.334 -40.833 80.001 -88.5s49.834 -111.334 63.501 -191.001s20.5 -159.5 20.5 -239.5v-247z" />
    <glyph glyph-name="oacute" unicode="&#xf3;" horiz-adv-x="669" 
d="M257 1480c-46 0 -69 17.999 -69 53.999v2c1.33301 26.667 62 82.334 182 167.001c47.333 34 76 55.667 86 65c52 0 78 -18.667 78 -56c0 -0.666992 -3 -17 -9 -49c-44 -18 -91.5 -44.5 -142.5 -79.5s-92.833 -69.5 -125.5 -103.5zM190 1033l3 -120.001l-1 -196
c0 -16.667 0.333008 -36.334 1 -59.001s1.5 -52.5 2.5 -89.5s3 -73.667 6 -110s6.5 -74.666 10.5 -114.999s9.33301 -77.666 16 -111.999s14 -65.5 22 -93.5c18 -60.667 41.667 -91 71 -91c39.333 0 69.333 37 90 111c30.667 110 46 245.333 46 406l3 211
c0 148 -6.5 247.667 -19.5 299s-25.167 90 -36.5 116c-22.667 52.667 -57 79 -103 79h-4c-71.333 0 -107 -78.667 -107 -236zM570 550.998c0 -392.667 -80.335 -588.997 -241.002 -588.997c-148 0 -231 186 -249 558c-1.33301 35.333 -2 70.666 -2 105.999l-1 125v40
c0 288.667 42.333 467 127 535c20.667 16.667 43.667 25.667 69 27c19.333 -6.66699 43 -12.834 71 -18.501s48.667 -11.5 62 -17.5c24.667 -11.333 51.334 -40.833 80.001 -88.5s49.834 -111.334 63.501 -191.001s20.5 -159.5 20.5 -239.5v-247z" />
    <glyph glyph-name="ocircumflex" unicode="&#xf4;" horiz-adv-x="669" 
d="M478 1555l17.9971 -25c0 -15.333 -6.83301 -27.5 -20.5 -36.5s-28.5 -13.5 -44.5 -13.5h-44c-11.333 114 -24.666 202.667 -39.999 266c-5.33301 -16 -12.666 -39.167 -21.999 -69.5l-22 -70.5c-16 -45.333 -39 -87 -69 -125l-67 48c2.66699 25.333 14.667 68 36 128
s47.833 117.5 79.5 172.5s58.834 82.5 81.501 82.5c34.667 0 52 -22.333 52 -67c0 -30 10.333 -71.333 31 -124s31 -90.667 31 -114v-52zM189.997 1033l3 -120.001l-1 -196c0 -16.667 0.333008 -36.334 1 -59.001s1.5 -52.5 2.5 -89.5s3 -73.667 6 -110
s6.5 -74.666 10.5 -114.999s9.33301 -77.666 16 -111.999s14 -65.5 22 -93.5c18 -60.667 41.667 -91 71 -91c39.333 0 69.333 37 90 111c30.667 110 46 245.333 46 406l3 211c0 148 -6.5 247.667 -19.5 299s-25.167 90 -36.5 116c-22.667 52.667 -57 79 -103 79h-4
c-71.333 0 -107 -78.667 -107 -236zM569.997 550.999c0 -392.667 -80.335 -588.997 -241.002 -588.997c-148 0 -231 186 -249 558c-1.33301 35.333 -2 70.666 -2 105.999l-1 125v40c0 288.667 42.333 467 127 535c20.667 16.667 43.667 25.667 69 27
c19.333 -6.66699 43 -12.834 71 -18.501s48.667 -11.5 62 -17.5c24.667 -11.333 51.334 -40.833 80.001 -88.5s49.834 -111.334 63.501 -191.001s20.5 -159.5 20.5 -239.5v-247z" />
    <glyph glyph-name="otilde" unicode="&#xf5;" horiz-adv-x="669" 
d="M466 1630l-12.999 45c10.667 21.333 26.667 32 48 32s38 -9.66699 50 -29s18 -43.833 18 -73.5s-13.167 -57.667 -39.5 -84s-55 -39.5 -86 -39.5s-59.5 7.16699 -85.5 21.5s-46.667 29 -62 44s-34 35.167 -56 60.5v2l-53 -31v-98c-22.667 0 -44.834 5.16699 -66.501 15.5
s-32.5 24.833 -32.5 43.5c0 46.667 13.5 86.5 40.5 119.5s63.167 49.5 108.5 49.5l102 -52c6 -16 16.167 -32 30.5 -48s28.833 -24 43.5 -24v1c4 4 10.667 8.33301 20 13c22 9.33301 33 20 33 32zM190.001 1033l3 -120.001l-1 -196c0 -16.667 0.333008 -36.334 1 -59.001
s1.5 -52.5 2.5 -89.5s3 -73.667 6 -110s6.5 -74.666 10.5 -114.999s9.33301 -77.666 16 -111.999s14 -65.5 22 -93.5c18 -60.667 41.667 -91 71 -91c39.333 0 69.333 37 90 111c30.667 110 46 245.333 46 406l3 211c0 148 -6.5 247.667 -19.5 299s-25.167 90 -36.5 116
c-22.667 52.667 -57 79 -103 79h-4c-71.333 0 -107 -78.667 -107 -236zM570.001 550.999c0 -392.667 -80.335 -588.997 -241.002 -588.997c-148 0 -231 186 -249 558c-1.33301 35.333 -2 70.666 -2 105.999l-1 125v40c0 288.667 42.333 467 127 535
c20.667 16.667 43.667 25.667 69 27c19.333 -6.66699 43 -12.834 71 -18.501s48.667 -11.5 62 -17.5c24.667 -11.333 51.334 -40.833 80.001 -88.5s49.834 -111.334 63.501 -191.001s20.5 -159.5 20.5 -239.5v-247z" />
    <glyph glyph-name="odieresis" unicode="&#xf6;" horiz-adv-x="669" 
d="M487 1501c-12.667 14 -19.002 30.333 -19.002 49s7.33301 35.667 22 51s31.334 23 50.001 23s34.834 -7.5 48.501 -22.5s20.5 -32.333 20.5 -52s-7.66699 -36.167 -23 -49.5s-32.5 -20 -51.5 -20s-34.833 7 -47.5 21zM163.498 1501c-17 -14 -35.333 -21 -55 -21
s-34.667 6.33301 -45 19s-15.5 29 -15.5 49s6.66699 37.167 20 51.5s29.833 21.5 49.5 21.5s36.5 -6.66699 50.5 -20s21 -29.833 21 -49.5s-8.5 -36.5 -25.5 -50.5zM189.998 1033l3 -120.001l-1 -196c0 -16.667 0.333008 -36.334 1 -59.001s1.5 -52.5 2.5 -89.5
s3 -73.667 6 -110s6.5 -74.666 10.5 -114.999s9.33301 -77.666 16 -111.999s14 -65.5 22 -93.5c18 -60.667 41.667 -91 71 -91c39.333 0 69.333 37 90 111c30.667 110 46 245.333 46 406l3 211c0 148 -6.5 247.667 -19.5 299s-25.167 90 -36.5 116
c-22.667 52.667 -57 79 -103 79h-4c-71.333 0 -107 -78.667 -107 -236zM569.998 550.999c0 -392.667 -80.335 -588.997 -241.002 -588.997c-148 0 -231 186 -249 558c-1.33301 35.333 -2 70.666 -2 105.999l-1 125v40c0 288.667 42.333 467 127 535
c20.667 16.667 43.667 25.667 69 27c19.333 -6.66699 43 -12.834 71 -18.501s48.667 -11.5 62 -17.5c24.667 -11.333 51.334 -40.833 80.001 -88.5s49.834 -111.334 63.501 -191.001s20.5 -159.5 20.5 -239.5v-247z" />
    <glyph glyph-name="divide" unicode="&#xf7;" horiz-adv-x="714" 
d="M575 600l-431.999 -9.99902c-54.667 0 -82 21.667 -82 65c0 14 4.16699 25.167 12.5 33.5s19.5 12.5 33.5 12.5h427c49.333 0 78.166 -5.83301 86.499 -17.5s12.5 -23.834 12.5 -36.501c0 -31.333 -19.333 -47 -58 -47zM394.001 808.001
c-14 -12.667 -30.333 -19.002 -49 -19.002s-35.667 7.33301 -51 22s-23 31.334 -23 50.001s7.5 34.834 22.5 48.501s32.333 20.5 52 20.5s36.167 -7.66699 49.5 -23s20 -32.5 20 -51.5s-7 -34.833 -21 -47.5zM394.001 484.499c14 -17 21 -35.333 21 -55
s-6.33301 -34.667 -19 -45s-29 -15.5 -49 -15.5s-37.167 6.66699 -51.5 20s-21.5 29.833 -21.5 49.5s6.66699 36.5 20 50.5s29.833 21 49.5 21s36.5 -8.5 50.5 -25.5z" />
    <glyph glyph-name="oslash" unicode="&#xf8;" horiz-adv-x="578" 
d="M463 909.5c8.66699 -61.667 13.9961 -138.827 15.9961 -231.494s3 -163.834 3 -213.501s-0.166992 -81.667 -0.5 -96s-1.16602 -34.166 -2.49902 -59.499s-3.16602 -47 -5.49902 -65s-5.83301 -38.833 -10.5 -62.5s-10.5 -44 -17.5 -61s-15.667 -34.333 -26 -52
s-22.166 -31.834 -35.499 -42.501c-30 -25.333 -61.833 -38 -95.5 -38s-61.834 5.33301 -84.501 16c0 -72 -11.333 -141.333 -34 -208c-10 -28 -22.333 -42 -37 -42s-25.667 5.33301 -33 16s-11 22.667 -11 36v2c2.66699 28 11.834 77.5 27.501 148.5s23.5 117.5 23.5 139.5
s-0.5 35.833 -1.5 41.5s-2.16699 10.5 -3.5 14.5s-2.83301 9 -4.5 15s-4 15.167 -7 27.5s-6.5 29 -10.5 50s-7.33301 44.167 -10 69.5s-5.16699 46 -7.5 62s-4 39.5 -5 70.5s-2 52.167 -3 63.5s-1.66699 35.166 -2 71.499s-0.5 57.166 -0.5 62.499v390
c0 38.667 1.16699 67.5 3.5 86.5l7 59c2.33301 20.333 5.5 37.666 9.5 51.999s8.83301 30 14.5 47s12.5 31.333 20.5 43s16.667 22.5 26 32.5c20 20 41.333 30 64 30s44.667 -6 66 -18v4c14.667 84.667 30 159 46 223h74c0 -35.333 -6.5 -85.833 -19.5 -151.5
s-20.167 -113.834 -21.5 -144.501v-60c49.333 -75.333 74 -133 74 -173v-16c0.666992 -30.667 5.33398 -76.834 14.001 -138.501zM291.996 73.0068c62 0 93 116.669 93 350.002c0 320 -12.333 554 -37 702c-10 -74.667 -19.333 -170.667 -28 -288
c-20 -282.667 -44.333 -488.334 -73 -617.001c-9.33301 -37.333 -14 -66.833 -14 -88.5s4 -36.834 12 -45.501s23.667 -13 47 -13zM213.996 1298.01c-29.333 -63.333 -44 -235.998 -44 -517.998c0 -52 3.5 -112 10.5 -180s10.833 -104 11.5 -108
c6.66699 57.333 18 139.666 34 246.999c35.333 237.333 53 417.666 53 540.999h-34l-31 28v-10z" />
    <glyph glyph-name="ugrave" unicode="&#xf9;" horiz-adv-x="698" 
d="M371 1564c-14.667 -1.33301 -26.333 -1.99609 -35 -1.99609c-59.333 0 -89 20.667 -89 62c0 34 9.33301 56.667 28 68c46 0 75 -3 87 -9s20.167 -10.333 24.5 -13s19.833 -8.33398 46.5 -17.001s48.5 -16.334 65.5 -23.001s36.833 -15.334 59.5 -26.001
c47.333 -22 71 -46.333 71 -73c0 -11.333 -5 -20.833 -15 -28.5s-19.5 -11.5 -28.5 -11.5s-20.333 2 -34 6s-29.667 9.33301 -48 16l-50 18.5l-49.5 19.5c-18 7.33301 -29 11.666 -33 12.999zM581.001 913.004l2.00195 -34.999c-10 -48 -16.5 -130.5 -19.5 -247.5
s-8.83301 -211.333 -17.5 -283s-20.334 -134.667 -35.001 -189s-38.167 -99.5 -70.5 -135.5s-68.333 -54 -108 -54s-72.167 7.16699 -97.5 21.5s-46 35 -62 62s-29.333 56 -40 87s-18.667 66.833 -24 107.5c-9.33301 71.333 -14 146.666 -14 225.999l11 540
c0 118 -8.33301 215.667 -25 293v49c32.667 0 58.5 -12.667 77.5 -38s28.5 -53.666 28.5 -84.999v-991c0 -52.667 13.167 -100.834 39.5 -144.501s65.166 -65.5 116.499 -65.5c58 0 96.667 168.667 116 506v9l1 13c17.333 308 26 557.333 26 748l-1 34
c0 16 3.66699 28 11 36s21.333 12 42 12s36 -5.66699 46 -17s15.833 -22.833 17.5 -34.5s2.5 -27.5 2.5 -47.5l-14 -206z" />
    <glyph glyph-name="uacute" unicode="&#xfa;" horiz-adv-x="698" 
d="M365 1491c-46 0 -69 17.999 -69 53.999v2c1.33301 26.667 62 82.334 182 167.001c47.333 34 76 55.667 86 65c52 0 78 -18.667 78 -56c0 -0.666992 -3 -17 -9 -49c-44 -18 -91.5 -44.5 -142.5 -79.5s-92.833 -69.5 -125.5 -103.5zM581 912.999l2.00195 -34.999
c-10 -48 -16.5 -130.5 -19.5 -247.5s-8.83301 -211.333 -17.5 -283s-20.334 -134.667 -35.001 -189s-38.167 -99.5 -70.5 -135.5s-68.333 -54 -108 -54s-72.167 7.16699 -97.5 21.5s-46 35 -62 62s-29.333 56 -40 87s-18.667 66.833 -24 107.5
c-9.33301 71.333 -14 146.666 -14 225.999l11 540c0 118 -8.33301 215.667 -25 293v49c32.667 0 58.5 -12.667 77.5 -38s28.5 -53.666 28.5 -84.999v-991c0 -52.667 13.167 -100.834 39.5 -144.501s65.166 -65.5 116.499 -65.5c58 0 96.667 168.667 116 506v9l1 13
c17.333 308 26 557.333 26 748l-1 34c0 16 3.66699 28 11 36s21.333 12 42 12s36 -5.66699 46 -17s15.833 -22.833 17.5 -34.5s2.5 -27.5 2.5 -47.5l-14 -206z" />
    <glyph glyph-name="ucircumflex" unicode="&#xfb;" horiz-adv-x="698" 
d="M503 1566l17.9971 -25c0 -15.333 -6.83301 -27.5 -20.5 -36.5s-28.5 -13.5 -44.5 -13.5h-44c-11.333 114 -24.666 202.667 -39.999 266c-5.33301 -16 -12.666 -39.167 -21.999 -69.5l-22 -70.5c-16 -45.333 -39 -87 -69 -125l-67 48c2.66699 25.333 14.667 68 36 128
s47.833 117.5 79.5 172.5s58.834 82.5 81.501 82.5c34.667 0 52 -22.333 52 -67c0 -30 10.333 -71.333 31 -124s31 -90.667 31 -114v-52zM580.997 913l2.00195 -34.999c-10 -48 -16.5 -130.5 -19.5 -247.5s-8.83301 -211.333 -17.5 -283s-20.334 -134.667 -35.001 -189
s-38.167 -99.5 -70.5 -135.5s-68.333 -54 -108 -54s-72.167 7.16699 -97.5 21.5s-46 35 -62 62s-29.333 56 -40 87s-18.667 66.833 -24 107.5c-9.33301 71.333 -14 146.666 -14 225.999l11 540c0 118 -8.33301 215.667 -25 293v49c32.667 0 58.5 -12.667 77.5 -38
s28.5 -53.666 28.5 -84.999v-991c0 -52.667 13.167 -100.834 39.5 -144.501s65.166 -65.5 116.499 -65.5c58 0 96.667 168.667 116 506v9l1 13c17.333 308 26 557.333 26 748l-1 34c0 16 3.66699 28 11 36s21.333 12 42 12s36 -5.66699 46 -17s15.833 -22.833 17.5 -34.5
s2.5 -27.5 2.5 -47.5l-14 -206z" />
    <glyph glyph-name="udieresis" unicode="&#xfc;" horiz-adv-x="698" 
d="M512 1512c-12.667 14 -19.002 30.333 -19.002 49s7.33301 35.667 22 51s31.334 23 50.001 23s34.834 -7.5 48.501 -22.5s20.5 -32.333 20.5 -52s-7.66699 -36.167 -23 -49.5s-32.5 -20 -51.5 -20s-34.833 7 -47.5 21zM188.498 1512c-17 -14 -35.333 -21 -55 -21
s-34.667 6.33301 -45 19s-15.5 29 -15.5 49s6.66699 37.167 20 51.5s29.833 21.5 49.5 21.5s36.5 -6.66699 50.5 -20s21 -29.833 21 -49.5s-8.5 -36.5 -25.5 -50.5zM580.998 913l2.00195 -34.999c-10 -48 -16.5 -130.5 -19.5 -247.5s-8.83301 -211.333 -17.5 -283
s-20.334 -134.667 -35.001 -189s-38.167 -99.5 -70.5 -135.5s-68.333 -54 -108 -54s-72.167 7.16699 -97.5 21.5s-46 35 -62 62s-29.333 56 -40 87s-18.667 66.833 -24 107.5c-9.33301 71.333 -14 146.666 -14 225.999l11 540c0 118 -8.33301 215.667 -25 293v49
c32.667 0 58.5 -12.667 77.5 -38s28.5 -53.666 28.5 -84.999v-991c0 -52.667 13.167 -100.834 39.5 -144.501s65.166 -65.5 116.499 -65.5c58 0 96.667 168.667 116 506v9l1 13c17.333 308 26 557.333 26 748l-1 34c0 16 3.66699 28 11 36s21.333 12 42 12
s36 -5.66699 46 -17s15.833 -22.833 17.5 -34.5s2.5 -27.5 2.5 -47.5l-14 -206z" />
    <glyph glyph-name="yacute" unicode="&#xfd;" horiz-adv-x="580" 
d="M315 1480c-46 0 -69 17.999 -69 53.999v2c1.33301 26.667 62 82.334 182 167.001c47.333 34 76 55.667 86 65c52 0 78 -18.667 78 -56c0 -0.666992 -3 -17 -9 -49c-44 -18 -91.5 -44.5 -142.5 -79.5s-92.833 -69.5 -125.5 -103.5zM379 108.999
c0 -66.667 -9 -108.334 -27 -125.001c-9.33301 -8 -23.833 -12 -43.5 -12s-36.167 15 -49.5 45c15.333 30 23 145.667 23 347c0 38 -2.66699 91.5 -8 160.5s-8.33301 115.5 -9 139.5c-26.667 46 -67.834 151.833 -123.501 317.5s-83.5 267.834 -83.5 306.501v11l46 34
c42 -1.33301 92 -107 150 -317c25.333 -92 38 -138.333 38 -139c5.33301 14.667 16 65.667 32 153c40.667 221.333 83.334 332 128.001 332c12.667 0 24.167 -4 34.5 -12s15.5 -18.333 15.5 -31c0 -84 -20.5 -182.167 -61.5 -294.5s-61.5 -211.833 -61.5 -298.5v-617z" />
    <glyph glyph-name="thorn" unicode="&#xfe;" horiz-adv-x="553" 
d="M121 58l-22 1120v309c0 40.667 16.333 61 49 61c50 0 75 -56 75 -168l-7 -147c55.333 -8 103 -33.333 143 -76c75.333 -80.667 113 -184.667 113 -312c0 -85.333 -22.167 -160.166 -66.5 -224.499s-105.5 -113.833 -183.5 -148.5l15 -398c0 -56.667 -22.333 -85 -67 -85
c-16.667 0 -29 7 -37 21s-12 30 -12 48zM217 570.999c99.333 70.667 149 153.332 149 247.999c0 50 -1.5 87.667 -4.5 113s-10.833 49.5 -23.5 72.5s-27 42.333 -43 58s-41.333 37.834 -76 66.501c0 -62 -0.333008 -155 -1 -279s-1 -217 -1 -279z" />
    <glyph glyph-name="ydieresis" unicode="&#xff;" horiz-adv-x="580" 
d="M462 1501c-12.667 14 -19.002 30.333 -19.002 49s7.33301 35.667 22 51s31.334 23 50.001 23s34.834 -7.5 48.501 -22.5s20.5 -32.333 20.5 -52s-7.66699 -36.167 -23 -49.5s-32.5 -20 -51.5 -20s-34.833 7 -47.5 21zM138.498 1501c-17 -14 -35.333 -21 -55 -21
s-34.667 6.33301 -45 19s-15.5 29 -15.5 49s6.66699 37.167 20 51.5s29.833 21.5 49.5 21.5s36.5 -6.66699 50.5 -20s21 -29.833 21 -49.5s-8.5 -36.5 -25.5 -50.5zM378.998 109c0 -66.667 -9 -108.334 -27 -125.001c-9.33301 -8 -23.833 -12 -43.5 -12s-36.167 15 -49.5 45
c15.333 30 23 145.667 23 347c0 38 -2.66699 91.5 -8 160.5s-8.33301 115.5 -9 139.5c-26.667 46 -67.834 151.833 -123.501 317.5s-83.5 267.834 -83.5 306.501v11l46 34c42 -1.33301 92 -107 150 -317c25.333 -92 38 -138.333 38 -139c5.33301 14.667 16 65.667 32 153
c40.667 221.333 83.334 332 128.001 332c12.667 0 24.167 -4 34.5 -12s15.5 -18.333 15.5 -31c0 -84 -20.5 -182.167 -61.5 -294.5s-61.5 -211.833 -61.5 -298.5v-617z" />
    <glyph glyph-name="Amacron" unicode="&#x100;" horiz-adv-x="709" 
d="M324 1787l144 4c138.667 0 208 -18.333 208 -55c0 -30 -22 -45 -66 -45l-148 -4c-152 0 -228 18.667 -228 56c0 29.333 30 44 90 44zM482 447c-2 24.667 -8.66699 98.333 -20 221c-30 313.333 -45 488.5 -45 525.5s0.333008 57.167 1 60.5
c-8 -9.33301 -27.167 -106 -57.5 -290s-47.5 -284 -51.5 -300s-10.333 -38 -19 -66c-18 -58 -27.667 -102.667 -29 -134c56.667 -15.333 103.667 -23 141 -23s64 2 80 6zM490 1529c26.667 -191.333 54.668 -440.332 84.001 -746.999s44 -544 44 -712
c0 -46 -22.333 -69 -67 -69s-67 17.667 -67 53v267c-19.333 13.333 -53.833 24.666 -103.5 33.999s-93.834 15.333 -132.501 18c-16.667 -28 -29.5 -85.167 -38.5 -171.5s-23.5 -145.833 -43.5 -178.5c-66 0 -102.333 13.667 -109 41c30.667 44.667 93 329.334 187 854.001
c36.667 207.333 58.667 327.666 66 360.999c36.667 176 76.334 264 119.001 264c25.333 0 45.666 -6 60.999 -18v4z" />
    <glyph glyph-name="amacron" unicode="&#x101;" horiz-adv-x="674" 
d="M284 1580l144 4c138.667 0 208 -18.333 208 -55c0 -30 -22 -45 -66 -45l-148 -4c-152 0 -228 18.667 -228 56c0 29.333 30 44 90 44zM572 331l-11 -41.001c0 -16.667 6 -57.334 18 -122.001s18 -107 18 -127v-2c0 -30.667 -10.333 -50 -31 -58
c-28.667 0 -51 4.66699 -67 14s-24 32.833 -24 70.5s-10 115.167 -30 232.5l-63 6h-68c-15.333 6.66699 -42.333 10 -81 10c0 -1.33301 -0.833008 -10.166 -2.5 -26.499l-4 -39.5c-1 -10 -2.66699 -24.833 -5 -44.5s-4.83301 -36.334 -7.5 -50.001s-6 -29.667 -10 -48
s-8.5 -33.666 -13.5 -45.999s-10.5 -24.166 -16.5 -35.499c-12 -23.333 -26.667 -35 -44 -35s-32.833 5.16699 -46.5 15.5s-20.5 23.5 -20.5 39.5c36 138 66.833 282.667 92.5 434l46 269.5c5 28.333 16.667 83 35 164s29.333 135.167 33 162.5s7.16699 62.666 10.5 105.999
c6 94.667 18.333 155.667 37 183h69c46.667 0 70 -14 70 -42c0 -263.333 25.667 -525 77 -785c2.66699 -15.333 7.66699 -36.666 15 -63.999c16 -59.333 24 -106.333 24 -141zM432 374.999c-4 20 -5.99902 52.333 -5.99902 97s-2.83301 98.834 -8.5 162.501
s-13.834 137.5 -24.501 221.5s-18 144.667 -22 182c-8 -38.667 -23.667 -103.334 -47 -194.001c-47.333 -188.667 -71.666 -334 -72.999 -436c23.333 -15.333 83.666 -26.333 180.999 -33z" />
    <glyph glyph-name="Abreve" unicode="&#x102;" horiz-adv-x="709" 
d="M609 1868l0.000976562 -17c-6 -18 -15.833 -40.667 -29.5 -68s-22.667 -43 -27 -47s-10.666 -10.333 -18.999 -19s-16.833 -14.334 -25.5 -17.001c-26.667 -8.66699 -52 -13 -76 -13s-47.5 7 -70.5 21s-40.833 32.667 -53.5 56c-26 45.333 -39 97.333 -39 156v10l38 32
c29.333 0 49.333 -25 60 -75c11.333 -54.667 27.666 -89.667 48.999 -105h43c9.33301 0 19.5 10.833 30.5 32.5s16.5 39 16.5 52s0.333008 23.167 1 30.5s2.66699 16.166 6 26.499s9.16602 17.833 17.499 22.5s19.5 7 33.5 7s26.5 -5.16699 37.5 -15.5
s16.5 -19.166 16.5 -26.499s-3 -21.666 -9 -42.999zM482.001 447c-2 24.667 -8.66699 98.333 -20 221c-30 313.333 -45 488.5 -45 525.5s0.333008 57.167 1 60.5c-8 -9.33301 -27.167 -106 -57.5 -290s-47.5 -284 -51.5 -300s-10.333 -38 -19 -66
c-18 -58 -27.667 -102.667 -29 -134c56.667 -15.333 103.667 -23 141 -23s64 2 80 6zM490.001 1529c26.667 -191.333 54.668 -440.332 84.001 -746.999s44 -544 44 -712c0 -46 -22.333 -69 -67 -69s-67 17.667 -67 53v267c-19.333 13.333 -53.833 24.666 -103.5 33.999
s-93.834 15.333 -132.501 18c-16.667 -28 -29.5 -85.167 -38.5 -171.5s-23.5 -145.833 -43.5 -178.5c-66 0 -102.333 13.667 -109 41c30.667 44.667 93 329.334 187 854.001c36.667 207.333 58.667 327.666 66 360.999c36.667 176 76.334 264 119.001 264
c25.333 0 45.666 -6 60.999 -18v4z" />
    <glyph glyph-name="abreve" unicode="&#x103;" horiz-adv-x="674" 
d="M568 1661l0.000976562 -17c-6 -18 -15.833 -40.667 -29.5 -68s-22.667 -43 -27 -47s-10.666 -10.333 -18.999 -19s-16.833 -14.334 -25.5 -17.001c-26.667 -8.66699 -52 -13 -76 -13s-47.5 7 -70.5 21s-40.833 32.667 -53.5 56c-26 45.333 -39 97.333 -39 156v10l38 32
c29.333 0 49.333 -25 60 -75c11.333 -54.667 27.666 -89.667 48.999 -105h43c9.33301 0 19.5 10.833 30.5 32.5s16.5 39 16.5 52s0.333008 23.167 1 30.5s2.66699 16.166 6 26.499s9.16602 17.833 17.499 22.5s19.5 7 33.5 7s26.5 -5.16699 37.5 -15.5
s16.5 -19.166 16.5 -26.499s-3 -21.666 -9 -42.999zM572.001 331l-11 -41.001c0 -16.667 6 -57.334 18 -122.001s18 -107 18 -127v-2c0 -30.667 -10.333 -50 -31 -58c-28.667 0 -51 4.66699 -67 14s-24 32.833 -24 70.5s-10 115.167 -30 232.5l-63 6h-68
c-15.333 6.66699 -42.333 10 -81 10c0 -1.33301 -0.833008 -10.166 -2.5 -26.499l-4 -39.5c-1 -10 -2.66699 -24.833 -5 -44.5s-4.83301 -36.334 -7.5 -50.001s-6 -29.667 -10 -48s-8.5 -33.666 -13.5 -45.999s-10.5 -24.166 -16.5 -35.499c-12 -23.333 -26.667 -35 -44 -35
s-32.833 5.16699 -46.5 15.5s-20.5 23.5 -20.5 39.5c36 138 66.833 282.667 92.5 434l46 269.5c5 28.333 16.667 83 35 164s29.333 135.167 33 162.5s7.16699 62.666 10.5 105.999c6 94.667 18.333 155.667 37 183h69c46.667 0 70 -14 70 -42
c0 -263.333 25.667 -525 77 -785c2.66699 -15.333 7.66699 -36.666 15 -63.999c16 -59.333 24 -106.333 24 -141zM432.001 374.999c-4 20 -5.99902 52.333 -5.99902 97s-2.83301 98.834 -8.5 162.501s-13.834 137.5 -24.501 221.5s-18 144.667 -22 182
c-8 -38.667 -23.667 -103.334 -47 -194.001c-47.333 -188.667 -71.666 -334 -72.999 -436c23.333 -15.333 83.666 -26.333 180.999 -33z" />
    <glyph glyph-name="Aogonek" unicode="&#x104;" horiz-adv-x="716" 
d="M655 14c-118 -98 -177.001 -187.999 -177.001 -269.999c0 -16.667 2.83301 -29.334 8.5 -38.001s11.834 -13 18.501 -13c26.667 0 55.334 11 86.001 33v-34c0 -18 -10.5 -33.167 -31.5 -45.5s-43.333 -18.5 -67 -18.5s-43.667 10.667 -60 32s-24.5 46.333 -24.5 75
c0 54.667 18.667 106.667 56 156s82.666 90.333 135.999 123h55zM480.999 447.001c-2 24.667 -8.66699 98.333 -20 221c-30 313.333 -45 488.5 -45 525.5s0.333008 57.167 1 60.5c-8 -9.33301 -27.167 -106 -57.5 -290s-47.5 -284 -51.5 -300s-10.333 -38 -19 -66
c-18 -58 -27.667 -102.667 -29 -134c56.667 -15.333 103.667 -23 141 -23s64 2 80 6zM488.999 1529c26.667 -191.333 54.668 -440.332 84.001 -746.999s44 -544 44 -712c0 -46 -22.333 -69 -67 -69s-67 17.667 -67 53v267c-19.333 13.333 -53.833 24.666 -103.5 33.999
s-93.834 15.333 -132.501 18c-16.667 -28 -29.5 -85.167 -38.5 -171.5s-23.5 -145.833 -43.5 -178.5c-66 0 -102.333 13.667 -109 41c30.667 44.667 93 329.334 187 854.001c36.667 207.333 58.667 327.666 66 360.999c36.667 176 76.334 264 119.001 264
c25.333 0 45.666 -6 60.999 -18v4z" />
    <glyph glyph-name="aogonek" unicode="&#x105;" horiz-adv-x="711" 
d="M670 -6c-118 -98 -177.001 -187.999 -177.001 -269.999c0 -16.667 2.83301 -29.334 8.5 -38.001s11.834 -13 18.501 -13c26.667 0 55.334 11 86.001 33v-34c0 -18 -10.5 -33.167 -31.5 -45.5s-43.333 -18.5 -67 -18.5s-43.667 10.667 -60 32s-24.5 46.333 -24.5 75
c0 54.667 18.667 106.667 56 156s82.666 90.333 135.999 123h55zM571.999 331.001l-11 -41.001c0 -16.667 6 -57.334 18 -122.001s18 -107 18 -127v-2c0 -30.667 -10.333 -50 -31 -58c-28.667 0 -51 4.66699 -67 14s-24 32.833 -24 70.5s-10 115.167 -30 232.5l-63 6h-68
c-15.333 6.66699 -42.333 10 -81 10c0 -1.33301 -0.833008 -10.166 -2.5 -26.499l-4 -39.5c-1 -10 -2.66699 -24.833 -5 -44.5s-4.83301 -36.334 -7.5 -50.001s-6 -29.667 -10 -48s-8.5 -33.666 -13.5 -45.999s-10.5 -24.166 -16.5 -35.499c-12 -23.333 -26.667 -35 -44 -35
s-32.833 5.16699 -46.5 15.5s-20.5 23.5 -20.5 39.5c36 138 66.833 282.667 92.5 434l46 269.5c5 28.333 16.667 83 35 164s29.333 135.167 33 162.5s7.16699 62.666 10.5 105.999c6 94.667 18.333 155.667 37 183h69c46.667 0 70 -14 70 -42
c0 -263.333 25.667 -525 77 -785c2.66699 -15.333 7.66699 -36.666 15 -63.999c16 -59.333 24 -106.333 24 -141zM431.999 375c-4 20 -5.99902 52.333 -5.99902 97s-2.83301 98.834 -8.5 162.501s-13.834 137.5 -24.501 221.5s-18 144.667 -22 182
c-8 -38.667 -23.667 -103.334 -47 -194.001c-47.333 -188.667 -71.666 -334 -72.999 -436c23.333 -15.333 83.666 -26.333 180.999 -33z" />
    <glyph glyph-name="Cacute" unicode="&#x106;" horiz-adv-x="685" 
d="M357 1687c-46 0 -69 17.999 -69 53.999v2c1.33301 26.667 62 82.334 182 167.001c47.333 34 76 55.667 86 65c52 0 78 -18.667 78 -56c0 -0.666992 -3 -17 -9 -49c-44 -18 -91.5 -44.5 -142.5 -79.5s-92.833 -69.5 -125.5 -103.5zM206 998.999l-18 -143.001
c0 -69.333 9.16699 -196.333 27.5 -381s36.166 -289.667 53.499 -315c30.667 -44.667 77.667 -67 141 -67s111.666 19.667 144.999 59c23.333 0 45 3.33301 65 10v-27c0 -41.333 -12 -75 -36 -101c-39.333 -44.667 -102 -67 -188 -67c-46 0 -91.333 15.5 -136 46.5
s-78.667 71.167 -102 120.5s-41.666 176.333 -54.999 381s-20 362.334 -20 473.001s4.66699 190 14 238c-4 22 -6 43.333 -6 64c0 84 31.333 150.833 94 200.5s140 74.5 232 74.5c32.667 0 64.667 -9.16699 96 -27.5s47 -42.5 47 -72.5c0 -14.667 -5.66699 -26 -17 -34
s-27.166 -12 -47.499 -12s-35.5 8.33301 -45.5 25v-4h-32v8c-105.333 0 -171.333 -44.667 -198 -134c-13.333 -44 -20 -102 -20 -174z" />
    <glyph glyph-name="cacute" unicode="&#x107;" horiz-adv-x="568" 
d="M298 1480c-46 0 -69 17.999 -69 53.999v2c1.33301 26.667 62 82.334 182 167.001c47.333 34 76 55.667 86 65c52 0 78 -18.667 78 -56c0 -0.666992 -3 -17 -9 -49c-44 -18 -91.5 -44.5 -142.5 -79.5s-92.833 -69.5 -125.5 -103.5zM437 96.999
c41.333 0 62.001 -14.998 62.001 -44.998c0 -54 -38 -81 -114 -81c-31.333 0 -63.5 4.5 -96.5 13.5s-57.833 18.833 -74.5 29.5c-90.667 58.667 -136 219 -136 481l-1 120c0 392.667 48 624.334 144 695.001c49.333 36 118 54 206 54c14.667 0 28.167 -5.33301 40.5 -16
s18.5 -23 18.5 -37v-8c-12.667 -31.333 -45.667 -47 -99 -47l-37 2c-22.667 0 -42.834 -12.333 -60.501 -37s-31.167 -54.334 -40.5 -89.001s-17 -73.334 -23 -116.001c-9.33301 -67.333 -14 -130.333 -14 -189v-10l-13 -395c0 -83.333 4.5 -141 13.5 -173
s18.333 -57.833 28 -77.5s21.167 -35.834 34.5 -48.501c30.667 -29.333 70 -44 118 -44c16 0 30.667 6 44 18z" />
    <glyph glyph-name="Ccircumflex" unicode="&#x108;" horiz-adv-x="685" 
d="M495 1762l17.9971 -25c0 -15.333 -6.83301 -27.5 -20.5 -36.5s-28.5 -13.5 -44.5 -13.5h-44c-11.333 114 -24.666 202.667 -39.999 266c-5.33301 -16 -12.666 -39.167 -21.999 -69.5l-22 -70.5c-16 -45.333 -39 -87 -69 -125l-67 48c2.66699 25.333 14.667 68 36 128
s47.833 117.5 79.5 172.5s58.834 82.5 81.501 82.5c34.667 0 52 -22.333 52 -67c0 -30 10.333 -71.333 31 -124s31 -90.667 31 -114v-52zM205.997 999l-18 -143.001c0 -69.333 9.16699 -196.333 27.5 -381s36.166 -289.667 53.499 -315c30.667 -44.667 77.667 -67 141 -67
s111.666 19.667 144.999 59c23.333 0 45 3.33301 65 10v-27c0 -41.333 -12 -75 -36 -101c-39.333 -44.667 -102 -67 -188 -67c-46 0 -91.333 15.5 -136 46.5s-78.667 71.167 -102 120.5s-41.666 176.333 -54.999 381s-20 362.334 -20 473.001s4.66699 190 14 238
c-4 22 -6 43.333 -6 64c0 84 31.333 150.833 94 200.5s140 74.5 232 74.5c32.667 0 64.667 -9.16699 96 -27.5s47 -42.5 47 -72.5c0 -14.667 -5.66699 -26 -17 -34s-27.166 -12 -47.499 -12s-35.5 8.33301 -45.5 25v-4h-32v8c-105.333 0 -171.333 -44.667 -198 -134
c-13.333 -44 -20 -102 -20 -174z" />
    <glyph glyph-name="ccircumflex" unicode="&#x109;" horiz-adv-x="568" 
d="M436 1555l17.9971 -25c0 -15.333 -6.83301 -27.5 -20.5 -36.5s-28.5 -13.5 -44.5 -13.5h-44c-11.333 114 -24.666 202.667 -39.999 266c-5.33301 -16 -12.666 -39.167 -21.999 -69.5l-22 -70.5c-16 -45.333 -39 -87 -69 -125l-67 48c2.66699 25.333 14.667 68 36 128
s47.833 117.5 79.5 172.5s58.834 82.5 81.501 82.5c34.667 0 52 -22.333 52 -67c0 -30 10.333 -71.333 31 -124s31 -90.667 31 -114v-52zM436.997 97c41.333 0 62.001 -14.998 62.001 -44.998c0 -54 -38 -81 -114 -81c-31.333 0 -63.5 4.5 -96.5 13.5
s-57.833 18.833 -74.5 29.5c-90.667 58.667 -136 219 -136 481l-1 120c0 392.667 48 624.334 144 695.001c49.333 36 118 54 206 54c14.667 0 28.167 -5.33301 40.5 -16s18.5 -23 18.5 -37v-8c-12.667 -31.333 -45.667 -47 -99 -47l-37 2
c-22.667 0 -42.834 -12.333 -60.501 -37s-31.167 -54.334 -40.5 -89.001s-17 -73.334 -23 -116.001c-9.33301 -67.333 -14 -130.333 -14 -189v-10l-13 -395c0 -83.333 4.5 -141 13.5 -173s18.333 -57.833 28 -77.5s21.167 -35.834 34.5 -48.501
c30.667 -29.333 70 -44 118 -44c16 0 30.667 6 44 18z" />
    <glyph glyph-name="Cdotaccent" unicode="&#x10a;" horiz-adv-x="685" 
d="M387.5 1709.5c-13.667 15 -20.5 32.333 -20.5 52s7.66699 37.5 23 53.5s33 24 53 24s37.333 -8 52 -24s22 -34.5 22 -55.5s-7.66699 -38.333 -23 -52s-33.5 -20.5 -54.5 -20.5s-38.333 7.5 -52 22.5zM206 999l-18 -143.001c0 -69.333 9.16699 -196.333 27.5 -381
s36.166 -289.667 53.499 -315c30.667 -44.667 77.667 -67 141 -67s111.666 19.667 144.999 59c23.333 0 45 3.33301 65 10v-27c0 -41.333 -12 -75 -36 -101c-39.333 -44.667 -102 -67 -188 -67c-46 0 -91.333 15.5 -136 46.5s-78.667 71.167 -102 120.5
s-41.666 176.333 -54.999 381s-20 362.334 -20 473.001s4.66699 190 14 238c-4 22 -6 43.333 -6 64c0 84 31.333 150.833 94 200.5s140 74.5 232 74.5c32.667 0 64.667 -9.16699 96 -27.5s47 -42.5 47 -72.5c0 -14.667 -5.66699 -26 -17 -34s-27.166 -12 -47.499 -12
s-35.5 8.33301 -45.5 25v-4h-32v8c-105.333 0 -171.333 -44.667 -198 -134c-13.333 -44 -20 -102 -20 -174z" />
    <glyph glyph-name="cdotaccent" unicode="&#x10b;" horiz-adv-x="568" 
d="M351.5 1502.5c-13.667 15 -20.5 32.333 -20.5 52s7.66699 37.5 23 53.5s33 24 53 24s37.333 -8 52 -24s22 -34.5 22 -55.5s-7.66699 -38.333 -23 -52s-33.5 -20.5 -54.5 -20.5s-38.333 7.5 -52 22.5zM437 97c41.333 0 62.001 -14.998 62.001 -44.998
c0 -54 -38 -81 -114 -81c-31.333 0 -63.5 4.5 -96.5 13.5s-57.833 18.833 -74.5 29.5c-90.667 58.667 -136 219 -136 481l-1 120c0 392.667 48 624.334 144 695.001c49.333 36 118 54 206 54c14.667 0 28.167 -5.33301 40.5 -16s18.5 -23 18.5 -37v-8
c-12.667 -31.333 -45.667 -47 -99 -47l-37 2c-22.667 0 -42.834 -12.333 -60.501 -37s-31.167 -54.334 -40.5 -89.001s-17 -73.334 -23 -116.001c-9.33301 -67.333 -14 -130.333 -14 -189v-10l-13 -395c0 -83.333 4.5 -141 13.5 -173s18.333 -57.833 28 -77.5
s21.167 -35.834 34.5 -48.501c30.667 -29.333 70 -44 118 -44c16 0 30.667 6 44 18z" />
    <glyph glyph-name="Ccaron" unicode="&#x10c;" horiz-adv-x="685" 
d="M598 2069c0 -6.66699 -2.33203 -17 -6.99902 -31v-37c-8.66699 -1.33301 -13 -2.33301 -13 -3c0 -6.66699 -10.167 -44.167 -30.5 -112.5s-30.5 -112.5 -30.5 -132.5c0 -44 -16.833 -66 -50.5 -66s-73.834 52 -120.501 156s-72.334 179 -77.001 225l66 47l53 -71
c0.666992 -25.333 20.334 -90 59.001 -194c20 78.667 34 159 42 241h44l35 1c20 0 30 -7.66699 30 -23zM206.001 999l-18 -143.001c0 -69.333 9.16699 -196.333 27.5 -381s36.166 -289.667 53.499 -315c30.667 -44.667 77.667 -67 141 -67s111.666 19.667 144.999 59
c23.333 0 45 3.33301 65 10v-27c0 -41.333 -12 -75 -36 -101c-39.333 -44.667 -102 -67 -188 -67c-46 0 -91.333 15.5 -136 46.5s-78.667 71.167 -102 120.5s-41.666 176.333 -54.999 381s-20 362.334 -20 473.001s4.66699 190 14 238c-4 22 -6 43.333 -6 64
c0 84 31.333 150.833 94 200.5s140 74.5 232 74.5c32.667 0 64.667 -9.16699 96 -27.5s47 -42.5 47 -72.5c0 -14.667 -5.66699 -26 -17 -34s-27.166 -12 -47.499 -12s-35.5 8.33301 -45.5 25v-4h-32v8c-105.333 0 -171.333 -44.667 -198 -134c-13.333 -44 -20 -102 -20 -174
z" />
    <glyph glyph-name="ccaron" unicode="&#x10d;" horiz-adv-x="568" 
d="M561 1862c0 -6.66699 -2.33203 -17 -6.99902 -31v-37c-8.66699 -1.33301 -13 -2.33301 -13 -3c0 -6.66699 -10.167 -44.167 -30.5 -112.5s-30.5 -112.5 -30.5 -132.5c0 -44 -16.833 -66 -50.5 -66s-73.834 52 -120.501 156s-72.334 179 -77.001 225l66 47l53 -71
c0.666992 -25.333 20.334 -90 59.001 -194c20 78.667 34 159 42 241h44l35 1c20 0 30 -7.66699 30 -23zM437.001 97c41.333 0 62.001 -14.998 62.001 -44.998c0 -54 -38 -81 -114 -81c-31.333 0 -63.5 4.5 -96.5 13.5s-57.833 18.833 -74.5 29.5
c-90.667 58.667 -136 219 -136 481l-1 120c0 392.667 48 624.334 144 695.001c49.333 36 118 54 206 54c14.667 0 28.167 -5.33301 40.5 -16s18.5 -23 18.5 -37v-8c-12.667 -31.333 -45.667 -47 -99 -47l-37 2c-22.667 0 -42.834 -12.333 -60.501 -37
s-31.167 -54.334 -40.5 -89.001s-17 -73.334 -23 -116.001c-9.33301 -67.333 -14 -130.333 -14 -189v-10l-13 -395c0 -83.333 4.5 -141 13.5 -173s18.333 -57.833 28 -77.5s21.167 -35.834 34.5 -48.501c30.667 -29.333 70 -44 118 -44c16 0 30.667 6 44 18z" />
    </font>
</defs>
</svg>
